#N canvas 88 22 1436 814 10;
#X obj 636 500 dac~;
#X obj 257 336 tgl 15 0 empty empty empty 17 7 0 10 -262144 -1 -1 0
1;
#X obj 636 446 clip~ -1 1;
#X obj 636 411 hip~ 1;
#X floatatom 268 -227 5 0 0 0 - - -;
#X msg 268 -266 1;
#X msg 298 -266 2;
#X msg 328 -266 3;
#X obj 189 -267 r kit_number;
#X floatatom 50 -76 5 0 0 0 - - -;
#X msg 79 -113 0;
#X msg 50 -113 1;
#X floatatom 111 -76 5 0 0 0 - - -;
#X msg 140 -113 0;
#X msg 111 -113 1;
#X floatatom 172 -76 5 0 0 0 - - -;
#X msg 201 -113 0;
#X msg 172 -113 1;
#X obj 50 -49 s dsp1;
#X obj 111 -49 s dsp2;
#X obj 172 -49 s dsp3;
#X obj 257 315 r dsp1;
#X msg 359 -266 0;
#X obj 199 -181 select 1 2 3 0;
#N canvas 37 32 1436 792 voice1_________________________________ 1
;
#X floatatom 206 -40 5 0 0 0 - - -;
#X obj 206 -68 line;
#X obj 206 -96 pack f 200;
#X obj 40 -175 inlet;
#X obj 79 -175 inlet;
#X obj 206 -144 inlet;
#X obj 343 -173 inlet;
#X obj 393 -144 inlet;
#X obj 40 571 outlet~;
#X floatatom 65 14 5 0 0 0 - - -;
#X obj 79 -99 + 0.001;
#X floatatom 741 -42 5 0 0 0 - - -;
#X floatatom 947 -11 5 0 0 0 - - -;
#X obj 1049 -130 line;
#X obj 1049 -159 pack f 200;
#X obj 741 -130 line;
#X obj 741 -159 pack f 200;
#X obj 641 -159 pack f 200;
#X obj 846 -159 pack f 200;
#X obj 947 -130 line;
#X obj 947 -159 pack f 200;
#X floatatom 1050 -18 5 0 0 0 - - -;
#X obj 641 -187 inlet;
#X obj 741 -187 inlet;
#X obj 846 -187 inlet;
#X obj 947 -187 inlet;
#X obj 1049 -187 inlet;
#X obj 41 97 *~ 0.7;
#X obj 104 101 *~ 0.5;
#X obj 1165 -181 inlet;
#X obj 1165 -101 tgl 15 0 empty empty empty 17 7 0 10 -262144 -1 -1
0 1;
#X obj 1194 38 vline~;
#X obj 1165 -71 select 1;
#X msg 1165 7 1;
#X floatatom 1281 87 5 0 0 0 - - -;
#X obj 1281 110 select 0;
#X msg 1281 138 0;
#X obj 1211 117 bng 15 250 50 0 empty empty empty 17 7 0 10 -262144
-1 -1;
#X obj 1281 60 line;
#X msg 1194 6 0 500;
#X obj 1165 180 switch~;
#X floatatom 1165 150 5 0 0 0 - - -;
#X msg 1237 6 1 500;
#X msg 1331 7 1 500;
#X obj 1165 -27 t b b b;
#X obj 1222 -28 t b b b;
#X obj 37 488 *~;
#N canvas 0 22 687 515 crossfade 0;
#X obj 158 33 inlet~;
#X obj 202 33 inlet;
#X obj 161 255 *~;
#X text 203 14 crossfade;
#X obj 70 33 inlet~;
#X obj 73 255 *~;
#X obj 146 284 +~;
#X obj 146 313 outlet~;
#X obj 177 187 sin;
#X obj 84 185 cos;
#X text 68 15 1;
#X text 159 14 2;
#X obj 202 58 * 2;
#X obj 202 80 - 1;
#X obj 202 102 + 1;
#X obj 202 124 / 4;
#X obj 202 146 * 3.14159;
#X floatatom 202 168 5 0 0 0 - - -;
#X msg 176 208 \$1 60;
#X obj 176 230 line~;
#X msg 84 208 \$1 60;
#X obj 85 232 line~;
#X text 77 367 adapted from http://puredata.hurleur.com/sujet-5326-stereo-crossfader-adjustable-curve
(as used by 76synth);
#X connect 0 0 2 0;
#X connect 1 0 12 0;
#X connect 2 0 6 1;
#X connect 4 0 5 0;
#X connect 5 0 6 0;
#X connect 6 0 7 0;
#X connect 8 0 18 0;
#X connect 9 0 20 0;
#X connect 12 0 13 0;
#X connect 13 0 14 0;
#X connect 14 0 15 0;
#X connect 15 0 16 0;
#X connect 16 0 17 0;
#X connect 17 0 8 0;
#X connect 17 0 9 0;
#X connect 18 0 19 0;
#X connect 19 0 2 1;
#X connect 20 0 21 0;
#X connect 21 0 5 1;
#X restore 41 261 pd crossfade;
#X obj 41 163 +~;
#N canvas 394 175 839 516 schroederReverb 0;
#X obj 82 91 +~;
#X obj 82 18 inlet~;
#X obj 142 91 +~;
#X obj 127 18 delread~ drom1A 101;
#X obj 327 213 +~;
#X obj 327 254 +~;
#X obj 327 293 *~ 0.4;
#X obj 87 341 delwrite~ drom1A 1000;
#X obj 359 213 -~;
#X obj 250 18 delread~ drom1B 143;
#X obj 222 341 delwrite~ drom1B 1000;
#X obj 376 293 *~ 0.37;
#X obj 359 254 +~;
#X obj 82 247 outlet~;
#X obj 142 247 outlet~;
#X obj 373 18 delread~ drom1C 165;
#X obj 496 18 delread~ drom1D 177;
#X obj 357 341 delwrite~ drom1C 1000;
#X obj 492 341 delwrite~ drom1D 1000;
#X obj 390 213 +~;
#X obj 420 213 -~;
#X obj 390 254 -~;
#X obj 421 254 -~;
#X obj 431 294 *~ 0.333;
#X obj 492 294 *~ 0.3;
#X text 427 454 Schroeder reverb \, source: Andy Farnell's Designing
Sound \, page 234 \, Claude Heiland-Allen credited;
#X connect 0 0 4 0;
#X connect 0 0 13 0;
#X connect 0 0 8 0;
#X connect 1 0 0 0;
#X connect 1 0 2 0;
#X connect 2 0 14 0;
#X connect 2 0 8 1;
#X connect 2 0 4 1;
#X connect 3 0 0 1;
#X connect 4 0 5 0;
#X connect 4 0 21 0;
#X connect 5 0 6 0;
#X connect 6 0 7 0;
#X connect 8 0 12 0;
#X connect 8 0 22 0;
#X connect 9 0 2 1;
#X connect 11 0 10 0;
#X connect 12 0 11 0;
#X connect 15 0 19 0;
#X connect 15 0 20 0;
#X connect 16 0 19 1;
#X connect 16 0 20 1;
#X connect 19 0 21 1;
#X connect 19 0 5 1;
#X connect 20 0 22 1;
#X connect 20 0 12 1;
#X connect 21 0 23 0;
#X connect 22 0 24 0;
#X connect 23 0 17 0;
#X connect 24 0 18 0;
#X restore 254 501 pd schroederReverb;
#X obj 142 570 outlet~;
#N canvas 216 22 889 639 OmGen 0;
#X obj 250 596 outlet~;
#X obj 101 22 inlet;
#X obj 101 127 phasor~ 100;
#X obj 101 149 -~ 0.5;
#X obj 101 171 cos~;
#X obj 101 193 +~ 1;
#X obj 101 215 *~ 0.5;
#X obj 101 237 *~;
#X obj 206 137 sig~;
#X obj 206 159 lop~ 10;
#X obj 191 190 *~;
#X obj 191 212 cos~;
#X floatatom 101 76 5 0 0 1 frequency - -;
#X floatatom 206 117 5 0 0 1 ripple - -;
#X obj 101 299 *~;
#X floatatom 355 155 5 0 0 1 width - -;
#X obj 101 352 *~;
#X obj 101 374 +~ 1;
#X obj 37 447 /~;
#X obj 37 374 sig~ 1;
#X obj 40 504 hip~ 1;
#X obj 205 21 inlet;
#X obj 355 21 inlet;
#X connect 1 0 12 0;
#X connect 2 0 3 0;
#X connect 3 0 4 0;
#X connect 3 0 10 0;
#X connect 4 0 5 0;
#X connect 5 0 6 0;
#X connect 6 0 7 0;
#X connect 7 0 14 0;
#X connect 8 0 9 0;
#X connect 9 0 10 1;
#X connect 10 0 11 0;
#X connect 11 0 7 1;
#X connect 12 0 2 0;
#X connect 13 0 8 0;
#X connect 14 0 16 0;
#X connect 14 0 16 1;
#X connect 15 0 14 1;
#X connect 16 0 17 0;
#X connect 17 0 18 1;
#X connect 18 0 20 0;
#X connect 19 0 18 0;
#X connect 20 0 0 0;
#X connect 21 0 13 0;
#X connect 22 0 15 0;
#X restore 41 52 pd OmGen;
#X floatatom 20 -1 5 0 0 0 - - -;
#X obj 20 -99 + 80;
#N canvas 404 50 889 639 OmGen 0;
#X obj 250 596 outlet~;
#X obj 101 22 inlet;
#X obj 101 127 phasor~ 100;
#X obj 101 149 -~ 0.5;
#X obj 101 171 cos~;
#X obj 101 193 +~ 1;
#X obj 101 215 *~ 0.5;
#X obj 101 237 *~;
#X obj 206 137 sig~;
#X obj 206 159 lop~ 10;
#X obj 191 190 *~;
#X obj 191 212 cos~;
#X floatatom 101 76 5 0 0 1 frequency - -;
#X floatatom 206 117 5 0 0 1 ripple - -;
#X obj 101 299 *~;
#X floatatom 355 155 5 0 0 1 width - -;
#X obj 101 352 *~;
#X obj 101 374 +~ 1;
#X obj 37 447 /~;
#X obj 37 374 sig~ 1;
#X obj 40 504 hip~ 1;
#X obj 205 21 inlet;
#X obj 355 21 inlet;
#X connect 1 0 12 0;
#X connect 2 0 3 0;
#X connect 3 0 4 0;
#X connect 3 0 10 0;
#X connect 4 0 5 0;
#X connect 5 0 6 0;
#X connect 6 0 7 0;
#X connect 7 0 14 0;
#X connect 8 0 9 0;
#X connect 9 0 10 1;
#X connect 10 0 11 0;
#X connect 11 0 7 1;
#X connect 12 0 2 0;
#X connect 13 0 8 0;
#X connect 14 0 16 0;
#X connect 14 0 16 1;
#X connect 15 0 14 1;
#X connect 16 0 17 0;
#X connect 17 0 18 1;
#X connect 18 0 20 0;
#X connect 19 0 18 0;
#X connect 20 0 0 0;
#X connect 21 0 13 0;
#X connect 22 0 15 0;
#X restore 104 53 pd OmGen;
#X obj 741 66 s OmGen1_width;
#X text 738 85 a.k.a. depth;
#X obj 149 9 r OmGen1_width;
#X floatatom 641 -41 5 0 0 0 - - -;
#X obj 641 -129 line;
#X text 638 -15 a.k.a. speed;
#X obj 243 9 r OmGen1_ripple;
#X floatatom 846 -42 5 0 0 0 - - -;
#X obj 846 -130 line;
#X obj 846 -14 s OmGen1_ripple;
#X obj 846 -101 * 10;
#X obj 846 -71 + 2;
#X text 843 5 a.k.a. freq;
#X floatatom 393 -40 5 0 0 0 - - -;
#X obj 393 -68 + 0.001;
#X obj 354 101 *~ 0.7;
#X obj 417 101 *~ 0.5;
#X obj 354 167 +~;
#N canvas 404 50 889 639 OmGen 0;
#X obj 250 596 outlet~;
#X obj 101 22 inlet;
#X obj 101 127 phasor~ 100;
#X obj 101 149 -~ 0.5;
#X obj 101 171 cos~;
#X obj 101 193 +~ 1;
#X obj 101 215 *~ 0.5;
#X obj 101 237 *~;
#X obj 206 137 sig~;
#X obj 206 159 lop~ 10;
#X obj 191 190 *~;
#X obj 191 212 cos~;
#X floatatom 101 76 5 0 0 1 frequency - -;
#X floatatom 206 117 5 0 0 1 ripple - -;
#X obj 101 299 *~;
#X floatatom 355 155 5 0 0 1 width - -;
#X obj 101 352 *~;
#X obj 101 374 +~ 1;
#X obj 37 447 /~;
#X obj 37 374 sig~ 1;
#X obj 40 504 hip~ 1;
#X obj 205 21 inlet;
#X obj 355 21 inlet;
#X connect 1 0 12 0;
#X connect 2 0 3 0;
#X connect 3 0 4 0;
#X connect 3 0 10 0;
#X connect 4 0 5 0;
#X connect 5 0 6 0;
#X connect 6 0 7 0;
#X connect 7 0 14 0;
#X connect 8 0 9 0;
#X connect 9 0 10 1;
#X connect 10 0 11 0;
#X connect 11 0 7 1;
#X connect 12 0 2 0;
#X connect 13 0 8 0;
#X connect 14 0 16 0;
#X connect 14 0 16 1;
#X connect 15 0 14 1;
#X connect 16 0 17 0;
#X connect 17 0 18 1;
#X connect 18 0 20 0;
#X connect 19 0 18 0;
#X connect 20 0 0 0;
#X connect 21 0 13 0;
#X connect 22 0 15 0;
#X restore 354 56 pd OmGen;
#X floatatom 354 -40 5 0 0 0 - - -;
#X obj 343 -113 + 80;
#N canvas 404 50 889 639 OmGen 0;
#X obj 250 596 outlet~;
#X obj 101 22 inlet;
#X obj 101 127 phasor~ 100;
#X obj 101 149 -~ 0.5;
#X obj 101 171 cos~;
#X obj 101 193 +~ 1;
#X obj 101 215 *~ 0.5;
#X obj 101 237 *~;
#X obj 206 137 sig~;
#X obj 206 159 lop~ 10;
#X obj 191 190 *~;
#X obj 191 212 cos~;
#X floatatom 101 76 5 0 0 1 frequency - -;
#X floatatom 206 117 5 0 0 1 ripple - -;
#X obj 101 299 *~;
#X floatatom 355 155 5 0 0 1 width - -;
#X obj 101 352 *~;
#X obj 101 374 +~ 1;
#X obj 37 447 /~;
#X obj 37 374 sig~ 1;
#X obj 72 525 hip~ 1;
#X obj 205 21 inlet;
#X obj 355 21 inlet;
#X connect 1 0 12 0;
#X connect 2 0 3 0;
#X connect 3 0 4 0;
#X connect 3 0 10 0;
#X connect 4 0 5 0;
#X connect 5 0 6 0;
#X connect 6 0 7 0;
#X connect 7 0 14 0;
#X connect 8 0 9 0;
#X connect 9 0 10 1;
#X connect 10 0 11 0;
#X connect 11 0 7 1;
#X connect 12 0 2 0;
#X connect 13 0 8 0;
#X connect 14 0 16 0;
#X connect 14 0 16 1;
#X connect 15 0 14 1;
#X connect 16 0 17 0;
#X connect 17 0 18 1;
#X connect 18 0 20 0;
#X connect 19 0 18 0;
#X connect 20 0 0 0;
#X connect 21 0 13 0;
#X connect 22 0 15 0;
#X restore 417 57 pd OmGen;
#X obj 462 9 r OmGen1_width;
#X obj 555 9 r OmGen1_ripple;
#X obj 104 8 * 2;
#N canvas 94 354 703 423 filter 0;
#X floatatom 296 96 5 0 0 0 - - -;
#X floatatom 605 120 5 0 0 0 - - -;
#X obj 538 121 +~ 1;
#X floatatom 538 79 5 0 0 0 - - -;
#X floatatom 602 144 5 0 0 0 - - -;
#X obj 538 162 +~ 100;
#X obj 538 100 osc~ 0.25;
#X obj 538 141 *~ 2000;
#X obj 68 49 inlet~;
#X obj 196 319 outlet~;
#X obj 538 39 inlet;
#X obj 597 39 inlet;
#X text 338 95 Q (1-4);
#X obj 296 115 + 0.01;
#X obj 87 199 vcf~ 1;
#X connect 0 0 13 0;
#X connect 1 0 7 1;
#X connect 2 0 7 0;
#X connect 3 0 6 0;
#X connect 4 0 5 1;
#X connect 5 0 14 1;
#X connect 6 0 2 0;
#X connect 7 0 5 0;
#X connect 8 0 14 0;
#X connect 10 0 3 0;
#X connect 11 0 0 0;
#X connect 13 0 14 2;
#X connect 14 0 9 0;
#X restore 41 216 pd filter;
#X obj 947 13 s OmGen1_res;
#X obj 92 193 r OmGen1_res;
#X text 946 41 a.k.a resonance;
#X obj 947 -73 * 3.5;
#X obj 947 -41 clip 1 3.5;
#N canvas 56 22 906 644 rescalePitch 0;
#X obj 27 120 ftom;
#X obj 126 18 inlet;
#X floatatom 27 62 5 0 0 0 - - -;
#X obj 118 342 % 12;
#X floatatom 118 364 5 0 0 1 pitch_class - -;
#X obj -64 203 / 12;
#X obj -64 225 - 1;
#X floatatom -64 247 5 0 0 1 register - -;
#X floatatom -31 203 5 0 0 1 midi_note - -;
#X obj 27 38 mtof;
#X floatatom 27 18 5 0 0 0 - - -;
#X obj -64 313 * 12;
#X obj -79 378 +;
#X floatatom -79 400 5 0 0 0 - - -;
#X obj -79 419 mtof;
#X floatatom -108 441 10 0 0 0 - - -;
#X obj -108 504 outlet;
#X obj 27 82 int;
#X floatatom 27 102 5 0 0 0 - - -;
#X obj -108 483 line;
#X obj -64 289 int;
#X text 330 187 based on Todd Winkler's Scale subpatch \, see p. 198
of Composing Interactive Music \, 2001 paperback 1st ed.;
#X obj 488 355 tgl 15 0 empty empty empty 17 7 0 10 -262144 -1 -1 0
1;
#X floatatom 650 335 10 0 0 1 speed - -;
#X floatatom 650 354 10 0 0 1 flip_time - -;
#X floatatom 650 373 10 0 0 1 interval - -;
#X floatatom 650 316 10 0 0 1 note_in - -;
#N canvas 400 92 509 495 arpeggio______________ 0;
#X obj 18 102 inlet;
#X obj 50 135 tgl 15 0 empty empty empty 17 7 0 10 -262144 -1 -1 0
1;
#X obj 50 294 outlet;
#X obj 162 272 + 3;
#X obj 93 15 inlet;
#X obj 175 108 inlet;
#X floatatom 175 130 10 0 0 0 - - -;
#X obj 265 108 inlet;
#X floatatom 265 130 10 0 0 0 - - -;
#X obj 117 161 metro 1000;
#X obj 216 205 f 3;
#X obj 290 239 * -1;
#X obj 50 228 f 60;
#X obj 327 108 inlet;
#X floatatom 327 130 10 0 0 0 - - -;
#X floatatom 14 348 5 0 0 0 - - -;
#X floatatom 90 113 10 0 0 0 - - -;
#X obj 50 161 metro 1000;
#X obj 93 82 ftom;
#X floatatom 93 39 5 0 0 0 - - -;
#X obj 93 61 int;
#X connect 0 0 1 0;
#X connect 1 0 9 0;
#X connect 1 0 17 0;
#X connect 3 0 12 1;
#X connect 4 0 19 0;
#X connect 5 0 6 0;
#X connect 6 0 17 1;
#X connect 7 0 8 0;
#X connect 8 0 9 1;
#X connect 9 0 10 0;
#X connect 10 0 11 0;
#X connect 11 0 3 1;
#X connect 11 0 10 1;
#X connect 12 0 2 0;
#X connect 12 0 3 0;
#X connect 12 0 15 0;
#X connect 13 0 14 0;
#X connect 14 0 3 1;
#X connect 14 0 10 1;
#X connect 16 0 12 1;
#X connect 17 0 12 0;
#X connect 18 0 16 0;
#X connect 19 0 20 0;
#X connect 20 0 18 0;
#X restore 501 421 pd arpeggio______________;
#X text 567 461 use longer flip time than speed;
#X obj 340 253 r arp1_on;
#X obj 650 253 r arp1_notefreq;
#X obj 571 253 r arp1_speed;
#X obj 498 253 r arp1_flip;
#X obj 401 253 r arp1_interval;
#X obj 246 68 sel 0 1 2 3 4 5 6 7 8 9 10 11;
#X msg 242 121 1;
#X msg 275 121 3;
#X msg 308 121 6;
#X msg 341 121 8;
#X msg 373 121 10;
#X text 443 20 pentatonic scale;
#X msg -108 464 \$1 30;
#X obj 127 62 f;
#X obj 385 442 t b b;
#X obj 364 410 sel 0;
#X obj 36 160 t f f;
#X floatatom 27 300 5 0 0 0 - - -;
#X connect 0 0 8 0;
#X connect 0 0 45 0;
#X connect 1 0 2 0;
#X connect 1 0 42 0;
#X connect 2 0 17 0;
#X connect 3 0 4 0;
#X connect 4 0 34 0;
#X connect 5 0 6 0;
#X connect 6 0 7 0;
#X connect 7 0 20 0;
#X connect 9 0 2 0;
#X connect 10 0 9 0;
#X connect 11 0 12 0;
#X connect 12 0 13 0;
#X connect 13 0 14 0;
#X connect 14 0 15 0;
#X connect 15 0 41 0;
#X connect 17 0 18 0;
#X connect 18 0 0 0;
#X connect 19 0 16 0;
#X connect 20 0 11 0;
#X connect 22 0 27 0;
#X connect 22 0 44 0;
#X connect 23 0 27 2;
#X connect 24 0 27 3;
#X connect 25 0 27 4;
#X connect 26 0 27 1;
#X connect 27 0 10 0;
#X connect 29 0 22 0;
#X connect 30 0 26 0;
#X connect 31 0 23 0;
#X connect 32 0 24 0;
#X connect 33 0 25 0;
#X connect 34 0 35 0;
#X connect 34 1 35 0;
#X connect 34 2 35 0;
#X connect 34 3 36 0;
#X connect 34 4 36 0;
#X connect 34 5 37 0;
#X connect 34 6 37 0;
#X connect 34 7 38 0;
#X connect 34 8 38 0;
#X connect 34 9 39 0;
#X connect 34 10 39 0;
#X connect 34 11 39 0;
#X connect 35 0 46 0;
#X connect 36 0 46 0;
#X connect 37 0 46 0;
#X connect 38 0 46 0;
#X connect 39 0 46 0;
#X connect 41 0 19 0;
#X connect 42 0 2 0;
#X connect 43 1 42 0;
#X connect 44 0 43 0;
#X connect 45 0 5 0;
#X connect 45 1 3 0;
#X connect 46 0 12 1;
#X restore 20 -26 pd rescalePitch;
#X obj 79 -127 * 0.55;
#X obj 393 -96 * 0.55;
#X obj 417 9 * 2;
#N canvas 442 125 906 644 rescalePitch2 0;
#X obj 27 120 ftom;
#X obj 126 18 inlet;
#X floatatom 27 62 5 0 0 0 - - -;
#X obj 159 343 % 12;
#X floatatom 159 365 5 0 0 1 pitch_class - -;
#X obj -63 212 / 12;
#X obj -63 234 - 1;
#X floatatom -63 256 5 0 0 1 register - -;
#X floatatom -30 212 5 0 0 1 midi_note - -;
#X obj 27 38 mtof;
#X floatatom 27 18 5 0 0 0 - - -;
#X obj -63 322 * 12;
#X obj -78 387 +;
#X floatatom -78 409 5 0 0 0 - - -;
#X obj -78 430 mtof;
#X floatatom -78 452 10 0 0 0 - - -;
#X obj -78 541 outlet;
#X obj 27 82 int;
#X floatatom 27 102 5 0 0 0 - - -;
#X obj -78 520 line;
#X obj -63 298 int;
#X obj 494 366 tgl 15 0 empty empty empty 17 7 0 10 -262144 -1 -1 0
1;
#X floatatom 650 335 10 0 0 1 speed - -;
#X floatatom 650 354 10 0 0 1 flip_time - -;
#X floatatom 650 373 10 0 0 1 interval - -;
#X floatatom 650 316 10 0 0 1 note_in - -;
#N canvas 807 304 509 495 arpeggio______________ 0;
#X obj 18 102 inlet;
#X obj 50 135 tgl 15 0 empty empty empty 17 7 0 10 -262144 -1 -1 0
1;
#X obj 50 294 outlet;
#X obj 162 272 + 3;
#X obj 93 15 inlet;
#X obj 175 108 inlet;
#X floatatom 175 130 10 0 0 0 - - -;
#X obj 265 108 inlet;
#X floatatom 265 130 10 0 0 0 - - -;
#X obj 117 161 metro 1000;
#X obj 216 205 f 3;
#X obj 290 239 * -1;
#X obj 50 228 f 60;
#X obj 327 108 inlet;
#X floatatom 327 130 10 0 0 0 - - -;
#X floatatom 14 348 5 0 0 0 - - -;
#X floatatom 90 113 10 0 0 0 - - -;
#X obj 50 161 metro 1000;
#X obj 93 82 ftom;
#X floatatom 93 39 5 0 0 0 - - -;
#X obj 93 61 int;
#X connect 0 0 1 0;
#X connect 1 0 9 0;
#X connect 1 0 17 0;
#X connect 3 0 12 1;
#X connect 4 0 19 0;
#X connect 5 0 6 0;
#X connect 6 0 17 1;
#X connect 7 0 8 0;
#X connect 8 0 9 1;
#X connect 9 0 10 0;
#X connect 10 0 11 0;
#X connect 11 0 3 1;
#X connect 11 0 10 1;
#X connect 12 0 2 0;
#X connect 12 0 3 0;
#X connect 12 0 15 0;
#X connect 13 0 14 0;
#X connect 14 0 3 1;
#X connect 14 0 10 1;
#X connect 16 0 12 1;
#X connect 17 0 12 0;
#X connect 18 0 16 0;
#X connect 19 0 20 0;
#X connect 20 0 18 0;
#X restore 501 421 pd arpeggio______________;
#X text 567 461 use longer flip time than speed;
#X obj 340 253 r arp2_on;
#X obj 401 253 r arp2_interval;
#X obj 498 253 r arp2_flip;
#X obj 571 253 r arp2_speed;
#X obj 650 253 r arp2_notefreq;
#X obj -78 471 + 0.75;
#X obj 235 98 sel 0 1 2 3 4 5 6 7 8 9 10 11;
#X msg 231 151 1;
#X msg 264 151 3;
#X msg 297 151 6;
#X msg 330 151 8;
#X msg 362 151 10;
#X text 362 60 pentatonic scale;
#X msg -78 497 \$1 30;
#X obj 90 96 f;
#X obj 450 588 t b b;
#X obj 429 556 sel 0;
#X obj 20 168 t f f;
#X floatatom 20 345 5 0 0 0 - - -;
#X connect 0 0 8 0;
#X connect 0 0 45 0;
#X connect 1 0 2 0;
#X connect 1 0 42 0;
#X connect 2 0 17 0;
#X connect 3 0 4 0;
#X connect 4 0 34 0;
#X connect 5 0 6 0;
#X connect 6 0 7 0;
#X connect 7 0 20 0;
#X connect 9 0 2 0;
#X connect 10 0 9 0;
#X connect 11 0 12 0;
#X connect 12 0 13 0;
#X connect 13 0 14 0;
#X connect 14 0 15 0;
#X connect 15 0 33 0;
#X connect 17 0 18 0;
#X connect 18 0 0 0;
#X connect 19 0 16 0;
#X connect 20 0 11 0;
#X connect 21 0 26 0;
#X connect 21 0 44 0;
#X connect 22 0 26 2;
#X connect 23 0 26 3;
#X connect 24 0 26 4;
#X connect 25 0 26 1;
#X connect 26 0 10 0;
#X connect 28 0 21 0;
#X connect 29 0 24 0;
#X connect 30 0 23 0;
#X connect 31 0 22 0;
#X connect 32 0 25 0;
#X connect 33 0 41 0;
#X connect 34 0 35 0;
#X connect 34 1 35 0;
#X connect 34 2 35 0;
#X connect 34 3 36 0;
#X connect 34 4 36 0;
#X connect 34 5 37 0;
#X connect 34 6 37 0;
#X connect 34 7 38 0;
#X connect 34 8 38 0;
#X connect 34 9 39 0;
#X connect 34 10 39 0;
#X connect 34 11 39 0;
#X connect 35 0 46 0;
#X connect 36 0 46 0;
#X connect 37 0 46 0;
#X connect 38 0 46 0;
#X connect 41 0 19 0;
#X connect 42 0 2 0;
#X connect 43 1 42 0;
#X connect 44 0 43 0;
#X connect 45 0 5 0;
#X connect 45 1 3 0;
#X connect 46 0 12 1;
#X restore 293 -78 pd rescalePitch2;
#N canvas 94 354 703 423 filter 0;
#X floatatom 296 96 5 0 0 0 - - -;
#X floatatom 605 120 5 0 0 0 - - -;
#X obj 538 121 +~ 1;
#X floatatom 538 79 5 0 0 0 - - -;
#X floatatom 602 144 5 0 0 0 - - -;
#X obj 538 162 +~ 100;
#X obj 538 100 osc~ 0.25;
#X obj 538 141 *~ 2000;
#X obj 68 49 inlet~;
#X obj 196 319 outlet~;
#X obj 538 39 inlet;
#X obj 597 39 inlet;
#X text 338 95 Q (1-4);
#X obj 296 115 + 0.01;
#X obj 87 199 vcf~ 1;
#X connect 0 0 13 0;
#X connect 1 0 7 1;
#X connect 2 0 7 0;
#X connect 3 0 6 0;
#X connect 4 0 5 1;
#X connect 5 0 14 1;
#X connect 6 0 2 0;
#X connect 7 0 5 0;
#X connect 8 0 14 0;
#X connect 10 0 3 0;
#X connect 11 0 0 0;
#X connect 13 0 14 2;
#X connect 14 0 9 0;
#X restore 348 213 pd filter;
#X obj 399 190 r OmGen1_res;
#X floatatom 947 -90 5 0 0 0 - - -;
#N canvas 0 22 450 300 !- 0;
#X obj 92 21 inlet;
#X obj 124 240 outlet;
#X floatatom 92 57 5 0 0 0 - - -;
#X obj 124 204 - 1;
#X obj 92 106 trigger b f;
#X obj 82 158 f 1;
#X connect 0 0 2 0;
#X connect 2 0 4 0;
#X connect 3 0 1 0;
#X connect 4 0 5 0;
#X connect 4 1 3 1;
#X connect 5 0 3 0;
#X restore 947 -110 pd !-;
#X obj 741 -71 + 5;
#X obj 741 -101 * 95;
#N canvas 542 231 1381 562 speed1 0;
#X obj 124 259 s arp2_on;
#X obj 525 424 s arp2_interval;
#X obj 622 424 s arp2_flip;
#X obj 695 424 s arp2_speed;
#X obj 774 424 s arp2_notefreq;
#X obj 124 231 tgl 15 0 empty empty empty 17 7 0 10 -262144 -1 -1 0
1;
#X floatatom 525 399 10 0 0 0 - - -;
#X floatatom 622 399 10 0 0 0 - - -;
#X floatatom 695 399 10 0 0 0 - - -;
#X floatatom 774 399 10 0 0 0 - - -;
#X floatatom 168 400 10 0 0 0 - - -;
#X floatatom 265 400 10 0 0 0 - - -;
#X floatatom 338 400 10 0 0 0 - - -;
#X obj 168 425 s arp1_interval;
#X obj 265 425 s arp1_flip;
#X obj 338 425 s arp1_speed;
#X obj 64 231 tgl 15 0 empty empty empty 17 7 0 10 -262144 -1 -1 0
1;
#X obj 64 259 s arp1_on;
#X floatatom 417 400 10 0 0 0 - - -;
#X obj 417 425 s arp1_notefreq;
#X obj 64 10 inlet;
#X obj 64 41 pack f 200;
#X floatatom 64 98 5 0 0 0 - - -;
#X obj 64 71 line;
#X obj 108 10 hsl 128 15 0 1 0 0 empty empty empty -2 -8 0 10 -262144
-1 -1 0 1;
#X obj 64 141 + 1;
#X obj 64 174 > 1;
#X obj 64 193 tgl 15 0 empty empty empty 17 7 0 10 -262144 -1 -1 0
1;
#X floatatom 291 11 5 0 0 0 - - -;
#X obj 291 36 int;
#X floatatom 291 65 5 0 0 0 - - -;
#X obj 291 184 unpack f f f f f f f f;
#X obj 291 84 change;
#X obj 133 145 change;
#X obj 64 119 * 12;
#X obj 676 -35 sel 2 3 4 5 6 7 8 9 10 11 12 13;
#X msg 890 137 2 8500 4000 349 1 8500 3000 493.63;
#X msg 891 182 2 8000 3000 392 2 8000 2250 554.37;
#X msg 893 269 2 7000 1750 247 1 7000 875 349.31;
#X msg 889 26 1 10000 6000 262 1 10000 4500 370.5;
#X msg 889 48 2 10000 6000 278 1 10000 4500 390.15;
#X msg 889 70 1 9500 6000 294 2 9500 4500 415.77;
#X msg 889 92 2 9500 5000 311 2 9500 3950 439.82;
#X msg 890 114 1 9000 5000 330 1 9000 3950 466.69;
#X msg 891 159 1 8500 4000 370 2 8500 3000 523.25;
#X msg 891 204 1 7500 3000 415 1 7500 2250 586.89;
#X msg 891 227 2 7500 2000 440 1 7500 1500 622.25;
#X msg 892 248 1 7000 1750 233 2 7000 875 329.51;
#X connect 5 0 0 0;
#X connect 6 0 1 0;
#X connect 7 0 2 0;
#X connect 8 0 3 0;
#X connect 9 0 4 0;
#X connect 10 0 13 0;
#X connect 11 0 14 0;
#X connect 12 0 15 0;
#X connect 16 0 17 0;
#X connect 18 0 19 0;
#X connect 20 0 21 0;
#X connect 21 0 23 0;
#X connect 22 0 34 0;
#X connect 23 0 22 0;
#X connect 24 0 21 0;
#X connect 25 0 28 0;
#X connect 26 0 27 0;
#X connect 27 0 16 0;
#X connect 27 0 5 0;
#X connect 28 0 29 0;
#X connect 29 0 30 0;
#X connect 29 0 33 0;
#X connect 30 0 32 0;
#X connect 31 0 10 0;
#X connect 31 1 11 0;
#X connect 31 2 12 0;
#X connect 31 3 18 0;
#X connect 31 4 6 0;
#X connect 31 5 7 0;
#X connect 31 6 8 0;
#X connect 31 7 9 0;
#X connect 32 0 35 0;
#X connect 33 0 26 0;
#X connect 34 0 25 0;
#X connect 35 0 39 0;
#X connect 35 1 40 0;
#X connect 35 2 41 0;
#X connect 35 3 42 0;
#X connect 35 4 43 0;
#X connect 35 5 36 0;
#X connect 35 6 44 0;
#X connect 35 7 37 0;
#X connect 35 8 45 0;
#X connect 35 9 46 0;
#X connect 35 10 47 0;
#X connect 35 11 38 0;
#X connect 36 0 31 0;
#X connect 37 0 31 0;
#X connect 38 0 31 0;
#X connect 39 0 31 0;
#X connect 40 0 31 0;
#X connect 41 0 31 0;
#X connect 42 0 31 0;
#X connect 43 0 31 0;
#X connect 44 0 31 0;
#X connect 45 0 31 0;
#X connect 46 0 31 0;
#X connect 47 0 31 0;
#X restore 640 82 pd speed1;
#X obj 1049 -108 * 0.6;
#X msg 1283 7 0 1500;
#X obj 20 -127 * 1200;
#X obj 343 -141 * 1200;
#X obj 38 459 *~ 0.3;
#X connect 0 0 47 2;
#X connect 1 0 0 0;
#X connect 2 0 1 0;
#X connect 3 0 100 0;
#X connect 4 0 87 0;
#X connect 5 0 2 0;
#X connect 6 0 101 0;
#X connect 7 0 88 0;
#X connect 9 0 80 1;
#X connect 10 0 9 0;
#X connect 11 0 55 0;
#X connect 12 0 81 0;
#X connect 13 0 98 0;
#X connect 14 0 13 0;
#X connect 15 0 96 0;
#X connect 16 0 15 0;
#X connect 17 0 59 0;
#X connect 18 0 63 0;
#X connect 19 0 94 0;
#X connect 20 0 19 0;
#X connect 21 0 102 1;
#X connect 22 0 17 0;
#X connect 23 0 16 0;
#X connect 24 0 18 0;
#X connect 25 0 20 0;
#X connect 26 0 14 0;
#X connect 27 0 48 0;
#X connect 28 0 48 1;
#X connect 29 0 30 0;
#X connect 30 0 32 0;
#X connect 31 0 46 1;
#X connect 32 0 44 0;
#X connect 32 1 45 0;
#X connect 33 0 41 0;
#X connect 34 0 35 0;
#X connect 35 0 36 0;
#X connect 35 0 37 0;
#X connect 36 0 41 0;
#X connect 38 0 34 0;
#X connect 39 0 31 0;
#X connect 39 0 38 0;
#X connect 41 0 40 0;
#X connect 42 0 31 0;
#X connect 42 0 38 0;
#X connect 43 0 38 0;
#X connect 44 0 33 0;
#X connect 44 1 42 0;
#X connect 44 2 99 0;
#X connect 45 0 39 0;
#X connect 45 1 43 0;
#X connect 46 0 49 0;
#X connect 47 0 102 0;
#X connect 48 0 80 0;
#X connect 49 0 8 0;
#X connect 49 1 50 0;
#X connect 51 0 27 0;
#X connect 52 0 51 0;
#X connect 52 0 79 0;
#X connect 53 0 86 0;
#X connect 54 0 28 0;
#X connect 57 0 51 2;
#X connect 57 0 54 2;
#X connect 58 0 97 0;
#X connect 59 0 58 0;
#X connect 61 0 54 1;
#X connect 61 0 51 1;
#X connect 62 0 64 0;
#X connect 63 0 65 0;
#X connect 65 0 66 0;
#X connect 66 0 62 0;
#X connect 68 0 91 1;
#X connect 69 0 68 0;
#X connect 70 0 72 0;
#X connect 71 0 72 1;
#X connect 72 0 91 0;
#X connect 73 0 70 0;
#X connect 74 0 73 0;
#X connect 74 0 89 0;
#X connect 75 0 90 0;
#X connect 76 0 71 0;
#X connect 77 0 73 2;
#X connect 77 0 76 2;
#X connect 78 0 76 1;
#X connect 78 0 73 1;
#X connect 79 0 54 0;
#X connect 80 0 47 0;
#X connect 82 0 80 2;
#X connect 84 0 85 0;
#X connect 85 0 12 0;
#X connect 86 0 52 0;
#X connect 87 0 10 0;
#X connect 88 0 69 0;
#X connect 89 0 76 0;
#X connect 90 0 74 0;
#X connect 91 0 47 1;
#X connect 92 0 91 2;
#X connect 93 0 84 0;
#X connect 94 0 93 0;
#X connect 95 0 11 0;
#X connect 96 0 95 0;
#X connect 98 0 21 0;
#X connect 99 0 38 0;
#X connect 100 0 53 0;
#X connect 101 0 75 0;
#X connect 102 0 46 0;
#X restore 8 362 pd voice1_________________________________;
#X obj 304 -64 hsl 128 15 0 1 0 0 empty empty empty -2 -8 0 10 -262144
-1 -1 889 1;
#X obj 301 -91 r dc1a;
#X obj 304 32 hsl 128 15 0 1 0 0 empty empty empty -2 -8 0 10 -262144
-1 -1 6350 1;
#X obj 304 -15 hsl 128 15 0 1 0 0 empty empty empty -2 -8 0 10 -262144
-1 -1 4889 1;
#X obj 301 -43 r dc2a;
#X obj 301 4 r dc3a;
#X obj 304 80 hsl 128 15 0 1 0 0 empty empty empty -2 -8 0 10 -262144
-1 -1 1397 1;
#X obj 304 127 hsl 128 15 0 1 0 0 empty empty empty -2 -8 0 10 -262144
-1 -1 2794 1;
#X obj 301 52 r dc4a;
#X obj 301 99 r dc5a;
#X obj 305 174 hsl 128 15 0 1 0 0 empty empty empty -2 -8 0 10 -262144
-1 -1 0 1;
#X obj 305 268 hsl 128 15 0 1 0 0 empty empty empty -2 -8 0 10 -262144
-1 -1 1587 1;
#X obj 305 221 hsl 128 15 0 1 0 0 empty empty empty -2 -8 0 10 -262144
-1 -1 2197 1;
#X obj 305 315 hsl 128 15 0 1 0 0 empty empty empty -2 -8 0 10 -262144
-1 -1 8191 1;
#X obj 305 362 hsl 128 15 0 1 0 0 empty empty empty -2 -8 0 10 -262144
-1 -1 5700 1;
#X obj 302 146 r dc6a;
#X obj 302 193 r dc7a;
#X obj 302 240 r dc8a;
#X obj 302 287 r dc9a;
#X obj 302 334 r dc10a;
#X obj 736 -64 hsl 128 15 0 1 0 0 empty empty empty -2 -8 0 10 -262144
-1 -1 762 1;
#X obj 736 31 hsl 128 15 0 1 0 0 empty empty empty -2 -8 0 10 -262144
-1 -1 2375 1;
#X obj 736 -16 hsl 128 15 0 1 0 0 empty empty empty -2 -8 0 10 -262144
-1 -1 2375 1;
#X obj 736 79 hsl 128 15 0 1 0 0 empty empty empty -2 -8 0 10 -262144
-1 -1 9500 1;
#X obj 736 126 hsl 128 15 0 1 0 0 empty empty empty -2 -8 0 10 -262144
-1 -1 12370 1;
#X obj 737 173 hsl 128 15 0 1 0 0 empty empty empty -2 -8 0 10 -262144
-1 -1 5080 1;
#X obj 737 267 hsl 128 15 0 1 0 0 empty empty empty -2 -8 0 10 -262144
-1 -1 12357 1;
#X obj 737 220 hsl 128 15 0 1 0 0 empty empty empty -2 -8 0 10 -262144
-1 -1 584 1;
#X obj 737 314 hsl 128 15 0 1 0 0 empty empty empty -2 -8 0 10 -262144
-1 -1 5486 1;
#X obj 737 361 hsl 128 15 0 1 0 0 empty empty empty -2 -8 0 10 -262144
-1 -1 0 1;
#X obj 733 -92 r dc1b;
#X obj 733 -44 r dc2b;
#X obj 733 3 r dc3b;
#X obj 733 51 r dc4b;
#X obj 733 98 r dc5b;
#X obj 734 145 r dc6b;
#X obj 734 192 r dc7b;
#X obj 734 239 r dc8b;
#X obj 734 286 r dc9b;
#X obj 734 333 r dc10b;
#X obj 1168 -65 hsl 128 15 0 1 0 0 empty empty empty -2 -8 0 10 -262144
-1 -1 394 1;
#X obj 1168 30 hsl 128 15 0 1 0 0 empty empty empty -2 -8 0 10 -262144
-1 -1 7300 1;
#X obj 1168 -17 hsl 128 15 0 1 0 0 empty empty empty -2 -8 0 10 -262144
-1 -1 889 1;
#X obj 1168 78 hsl 128 15 0 1 0 0 empty empty empty -2 -8 0 10 -262144
-1 -1 0 1;
#X obj 1168 125 hsl 128 15 0 1 0 0 empty empty empty -2 -8 0 10 -262144
-1 -1 991 1;
#X obj 1169 172 hsl 128 15 0 1 0 0 empty empty empty -2 -8 0 10 -262144
-1 -1 1905 1;
#X obj 1169 266 hsl 128 15 0 1 0 0 empty empty empty -2 -8 0 10 -262144
-1 -1 495 1;
#X obj 1169 219 hsl 128 15 0 1 0 0 empty empty empty -2 -8 0 10 -262144
-1 -1 0 1;
#X obj 1169 313 hsl 128 15 0 1 0 0 empty empty empty -2 -8 0 10 -262144
-1 -1 12700 1;
#X obj 1169 360 hsl 128 15 0 1 0 0 empty empty empty -2 -8 0 10 -262144
-1 -1 0 1;
#X obj 1165 -93 r dc1c;
#X obj 1165 -45 r dc2c;
#X obj 1165 2 r dc3c;
#X obj 1165 50 r dc4c;
#X obj 1165 97 r dc5c;
#X obj 1166 144 r dc6c;
#X obj 1166 191 r dc7c;
#X obj 1166 238 r dc8c;
#X obj 1166 285 r dc9c;
#X obj 1166 332 r dc10c;
#X obj 689 336 tgl 15 0 empty empty empty 17 7 0 10 -262144 -1 -1 0
1;
#X obj 1121 335 tgl 15 0 empty empty empty 17 7 0 10 -262144 -1 -1
1 1;
#X obj 689 314 r dsp2;
#X obj 1121 314 r dsp3;
#X obj 709 446 clip~ -1 1;
#X obj 709 411 hip~ 1;
#N canvas 148 22 1436 797 voice2_________________________________ 0
;
#X floatatom 206 -40 5 0 0 0 - - -;
#X obj 206 -68 line;
#X obj 206 -96 pack f 200;
#X obj 40 -175 inlet;
#X obj 79 -175 inlet;
#X obj 206 -144 inlet;
#X obj 343 -173 inlet;
#X obj 393 -144 inlet;
#X obj 40 571 outlet~;
#X floatatom 79 -40 5 0 0 0 - - -;
#X obj 79 -99 + 0.001;
#X floatatom 741 -42 5 0 0 0 - - -;
#X floatatom 947 -11 5 0 0 0 - - -;
#X obj 1049 -130 line;
#X obj 1049 -159 pack f 200;
#X obj 741 -130 line;
#X obj 741 -159 pack f 200;
#X obj 846 -159 pack f 200;
#X obj 947 -130 line;
#X obj 947 -159 pack f 200;
#X floatatom 1050 -18 5 0 0 0 - - -;
#X obj 41 469 *~ 0.4;
#X obj 641 -187 inlet;
#X obj 741 -187 inlet;
#X obj 846 -187 inlet;
#X obj 947 -187 inlet;
#X obj 1049 -187 inlet;
#X obj 41 97 *~ 0.7;
#X obj 104 101 *~ 0.5;
#X obj 1165 -181 inlet;
#X obj 1165 -101 tgl 15 0 empty empty empty 17 7 0 10 -262144 -1 -1
0 1;
#X obj 1194 38 vline~;
#X obj 1165 -71 select 1;
#X msg 1165 7 1;
#X floatatom 1281 87 5 0 0 0 - - -;
#X obj 1281 110 select 0;
#X msg 1281 138 0;
#X obj 1211 117 bng 15 250 50 0 empty empty empty 17 7 0 10 -262144
-1 -1;
#X obj 1281 60 line;
#X msg 1194 6 0 500;
#X obj 1165 180 switch~;
#X floatatom 1165 150 5 0 0 0 - - -;
#X obj 1165 -27 t b b b;
#X obj 1222 -28 t b b b;
#X msg 1293 6 0 1500;
#X obj 40 498 *~;
#N canvas 0 22 687 515 crossfade 0;
#X obj 158 33 inlet~;
#X obj 202 33 inlet;
#X obj 161 255 *~;
#X text 203 14 crossfade;
#X obj 70 33 inlet~;
#X obj 73 255 *~;
#X obj 146 284 +~;
#X obj 146 313 outlet~;
#X obj 177 187 sin;
#X obj 84 185 cos;
#X text 68 15 1;
#X text 159 14 2;
#X obj 202 58 * 2;
#X obj 202 80 - 1;
#X obj 202 102 + 1;
#X obj 202 124 / 4;
#X obj 202 146 * 3.14159;
#X floatatom 202 168 5 0 0 0 - - -;
#X msg 176 208 \$1 60;
#X obj 176 230 line~;
#X msg 84 208 \$1 60;
#X obj 85 232 line~;
#X text 77 367 adapted from http://puredata.hurleur.com/sujet-5326-stereo-crossfader-adjustable-curve
(as used by 76synth);
#X connect 0 0 2 0;
#X connect 1 0 12 0;
#X connect 2 0 6 1;
#X connect 4 0 5 0;
#X connect 5 0 6 0;
#X connect 6 0 7 0;
#X connect 8 0 18 0;
#X connect 9 0 20 0;
#X connect 12 0 13 0;
#X connect 13 0 14 0;
#X connect 14 0 15 0;
#X connect 15 0 16 0;
#X connect 16 0 17 0;
#X connect 17 0 8 0;
#X connect 17 0 9 0;
#X connect 18 0 19 0;
#X connect 19 0 2 1;
#X connect 20 0 21 0;
#X connect 21 0 5 1;
#X restore 41 261 pd crossfade;
#X obj 41 163 +~;
#N canvas 394 175 839 516 schroederReverb 0;
#X obj 82 91 +~;
#X obj 82 18 inlet~;
#X obj 142 91 +~;
#X obj 327 213 +~;
#X obj 327 254 +~;
#X obj 327 293 *~ 0.4;
#X obj 359 213 -~;
#X obj 376 293 *~ 0.37;
#X obj 359 254 +~;
#X obj 82 247 outlet~;
#X obj 142 247 outlet~;
#X obj 390 213 +~;
#X obj 420 213 -~;
#X obj 390 254 -~;
#X obj 421 254 -~;
#X obj 431 294 *~ 0.333;
#X obj 492 294 *~ 0.3;
#X text 427 454 Schroeder reverb \, source: Andy Farnell's Designing
Sound \, page 234 \, Claude Heiland-Allen credited;
#X obj 87 341 delwrite~ drom2A 1000;
#X obj 222 341 delwrite~ drom2B 1000;
#X obj 357 341 delwrite~ drom2C 1000;
#X obj 492 341 delwrite~ drom2D 1000;
#X obj 127 18 delread~ drom2A 101;
#X obj 250 18 delread~ drom2B 143;
#X obj 373 18 delread~ drom2C 165;
#X obj 496 18 delread~ drom2D 177;
#X connect 0 0 3 0;
#X connect 0 0 9 0;
#X connect 0 0 6 0;
#X connect 1 0 0 0;
#X connect 1 0 2 0;
#X connect 2 0 10 0;
#X connect 2 0 6 1;
#X connect 2 0 3 1;
#X connect 3 0 4 0;
#X connect 3 0 13 0;
#X connect 4 0 5 0;
#X connect 5 0 18 0;
#X connect 6 0 8 0;
#X connect 6 0 14 0;
#X connect 7 0 19 0;
#X connect 8 0 7 0;
#X connect 11 0 13 1;
#X connect 11 0 4 1;
#X connect 12 0 14 1;
#X connect 12 0 8 1;
#X connect 13 0 15 0;
#X connect 14 0 16 0;
#X connect 15 0 20 0;
#X connect 16 0 21 0;
#X connect 22 0 0 1;
#X connect 23 0 2 1;
#X connect 24 0 11 0;
#X connect 24 0 12 0;
#X connect 25 0 11 1;
#X connect 25 0 12 1;
#X restore 97 528 pd schroederReverb;
#X obj 142 570 outlet~;
#N canvas 404 50 889 639 OmGen 0;
#X obj 250 596 outlet~;
#X obj 101 22 inlet;
#X obj 101 127 phasor~ 100;
#X obj 101 149 -~ 0.5;
#X obj 101 171 cos~;
#X obj 101 193 +~ 1;
#X obj 101 215 *~ 0.5;
#X obj 101 237 *~;
#X obj 206 137 sig~;
#X obj 206 159 lop~ 10;
#X obj 191 190 *~;
#X obj 191 212 cos~;
#X floatatom 101 76 5 0 0 1 frequency - -;
#X floatatom 206 117 5 0 0 1 ripple - -;
#X obj 101 299 *~;
#X floatatom 355 155 5 0 0 1 width - -;
#X obj 101 352 *~;
#X obj 101 374 +~ 1;
#X obj 37 447 /~;
#X obj 37 374 sig~ 1;
#X obj 40 504 hip~ 1;
#X obj 205 21 inlet;
#X obj 355 21 inlet;
#X connect 1 0 12 0;
#X connect 2 0 3 0;
#X connect 3 0 4 0;
#X connect 3 0 10 0;
#X connect 4 0 5 0;
#X connect 5 0 6 0;
#X connect 6 0 7 0;
#X connect 7 0 14 0;
#X connect 8 0 9 0;
#X connect 9 0 10 1;
#X connect 10 0 11 0;
#X connect 11 0 7 1;
#X connect 12 0 2 0;
#X connect 13 0 8 0;
#X connect 14 0 16 0;
#X connect 14 0 16 1;
#X connect 15 0 14 1;
#X connect 16 0 17 0;
#X connect 17 0 18 1;
#X connect 18 0 20 0;
#X connect 19 0 18 0;
#X connect 20 0 0 0;
#X connect 21 0 13 0;
#X connect 22 0 15 0;
#X restore 41 52 pd OmGen;
#X floatatom 22 -26 5 0 0 0 - - -;
#N canvas 404 50 889 639 OmGen 0;
#X obj 250 596 outlet~;
#X obj 101 22 inlet;
#X obj 101 127 phasor~ 100;
#X obj 101 149 -~ 0.5;
#X obj 101 171 cos~;
#X obj 101 193 +~ 1;
#X obj 101 215 *~ 0.5;
#X obj 101 237 *~;
#X obj 206 137 sig~;
#X obj 206 159 lop~ 10;
#X obj 191 190 *~;
#X obj 191 212 cos~;
#X floatatom 101 76 5 0 0 1 frequency - -;
#X floatatom 206 117 5 0 0 1 ripple - -;
#X obj 101 299 *~;
#X floatatom 355 155 5 0 0 1 width - -;
#X obj 101 352 *~;
#X obj 101 374 +~ 1;
#X obj 37 447 /~;
#X obj 37 374 sig~ 1;
#X obj 40 504 hip~ 1;
#X obj 205 21 inlet;
#X obj 355 21 inlet;
#X connect 1 0 12 0;
#X connect 2 0 3 0;
#X connect 3 0 4 0;
#X connect 3 0 10 0;
#X connect 4 0 5 0;
#X connect 5 0 6 0;
#X connect 6 0 7 0;
#X connect 7 0 14 0;
#X connect 8 0 9 0;
#X connect 9 0 10 1;
#X connect 10 0 11 0;
#X connect 11 0 7 1;
#X connect 12 0 2 0;
#X connect 13 0 8 0;
#X connect 14 0 16 0;
#X connect 14 0 16 1;
#X connect 15 0 14 1;
#X connect 16 0 17 0;
#X connect 17 0 18 1;
#X connect 18 0 20 0;
#X connect 19 0 18 0;
#X connect 20 0 0 0;
#X connect 21 0 13 0;
#X connect 22 0 15 0;
#X restore 104 53 pd OmGen;
#X text 738 85 a.k.a. depth;
#X floatatom 641 -41 5 0 0 0 - - -;
#X text 638 -15 a.k.a. speed;
#X obj 741 -71 + 5;
#X floatatom 846 -42 5 0 0 0 - - -;
#X obj 846 -130 line;
#X obj 846 -101 * 10;
#X obj 846 -71 + 2;
#X text 843 5 a.k.a. freq;
#X floatatom 393 -40 5 0 0 0 - - -;
#X obj 393 -68 + 0.001;
#X obj 354 101 *~ 0.7;
#X obj 417 101 *~ 0.5;
#X obj 354 167 +~;
#N canvas 404 50 889 639 OmGen 0;
#X obj 250 596 outlet~;
#X obj 101 22 inlet;
#X obj 101 127 phasor~ 100;
#X obj 101 149 -~ 0.5;
#X obj 101 171 cos~;
#X obj 101 193 +~ 1;
#X obj 101 215 *~ 0.5;
#X obj 101 237 *~;
#X obj 206 137 sig~;
#X obj 206 159 lop~ 10;
#X obj 191 190 *~;
#X obj 191 212 cos~;
#X floatatom 101 76 5 0 0 1 frequency - -;
#X floatatom 206 117 5 0 0 1 ripple - -;
#X obj 101 299 *~;
#X floatatom 355 155 5 0 0 1 width - -;
#X obj 101 352 *~;
#X obj 101 374 +~ 1;
#X obj 37 447 /~;
#X obj 37 374 sig~ 1;
#X obj 40 504 hip~ 1;
#X obj 205 21 inlet;
#X obj 355 21 inlet;
#X connect 1 0 12 0;
#X connect 2 0 3 0;
#X connect 3 0 4 0;
#X connect 3 0 10 0;
#X connect 4 0 5 0;
#X connect 5 0 6 0;
#X connect 6 0 7 0;
#X connect 7 0 14 0;
#X connect 8 0 9 0;
#X connect 9 0 10 1;
#X connect 10 0 11 0;
#X connect 11 0 7 1;
#X connect 12 0 2 0;
#X connect 13 0 8 0;
#X connect 14 0 16 0;
#X connect 14 0 16 1;
#X connect 15 0 14 1;
#X connect 16 0 17 0;
#X connect 17 0 18 1;
#X connect 18 0 20 0;
#X connect 19 0 18 0;
#X connect 20 0 0 0;
#X connect 21 0 13 0;
#X connect 22 0 15 0;
#X restore 354 56 pd OmGen;
#X floatatom 354 -40 5 0 0 0 - - -;
#N canvas 404 50 889 639 OmGen 0;
#X obj 250 596 outlet~;
#X obj 101 22 inlet;
#X obj 101 127 phasor~ 100;
#X obj 101 149 -~ 0.5;
#X obj 101 171 cos~;
#X obj 101 193 +~ 1;
#X obj 101 215 *~ 0.5;
#X obj 101 237 *~;
#X obj 206 137 sig~;
#X obj 206 159 lop~ 10;
#X obj 191 190 *~;
#X obj 191 212 cos~;
#X floatatom 101 76 5 0 0 1 frequency - -;
#X floatatom 206 117 5 0 0 1 ripple - -;
#X obj 101 299 *~;
#X floatatom 355 155 5 0 0 1 width - -;
#X obj 101 352 *~;
#X obj 101 374 +~ 1;
#X obj 37 447 /~;
#X obj 37 374 sig~ 1;
#X obj 72 525 hip~ 1;
#X obj 205 21 inlet;
#X obj 355 21 inlet;
#X connect 1 0 12 0;
#X connect 2 0 3 0;
#X connect 3 0 4 0;
#X connect 3 0 10 0;
#X connect 4 0 5 0;
#X connect 5 0 6 0;
#X connect 6 0 7 0;
#X connect 7 0 14 0;
#X connect 8 0 9 0;
#X connect 9 0 10 1;
#X connect 10 0 11 0;
#X connect 11 0 7 1;
#X connect 12 0 2 0;
#X connect 13 0 8 0;
#X connect 14 0 16 0;
#X connect 14 0 16 1;
#X connect 15 0 14 1;
#X connect 16 0 17 0;
#X connect 17 0 18 1;
#X connect 18 0 20 0;
#X connect 19 0 18 0;
#X connect 20 0 0 0;
#X connect 21 0 13 0;
#X connect 22 0 15 0;
#X restore 417 57 pd OmGen;
#X obj 104 8 * 2;
#X text 946 87 a.k.a resonance;
#N canvas 300 26 906 644 rescalePitch 0;
#X obj 27 120 ftom;
#X obj 126 18 inlet;
#X floatatom 27 62 5 0 0 0 - - -;
#X obj 108 414 % 12;
#X floatatom 108 436 5 0 0 1 pitch_class - -;
#X obj -58 220 / 12;
#X obj -58 242 - 1;
#X floatatom -58 264 5 0 0 1 register - -;
#X floatatom -25 220 5 0 0 1 midi_note - -;
#X obj 27 38 mtof;
#X floatatom 27 18 5 0 0 0 - - -;
#X obj -58 330 * 12;
#X floatatom 154 250 5 0 0 1 mapped_pitch - -;
#X obj -73 395 +;
#X floatatom -73 417 5 0 0 0 - - -;
#X obj -73 436 mtof;
#X floatatom -73 458 10 0 0 0 - - -;
#X obj -73 516 outlet;
#X obj 27 82 int;
#X floatatom 27 102 5 0 0 0 - - -;
#X obj -73 495 line;
#X obj -58 306 int;
#X text 330 187 based on Todd Winkler's Scale subpatch \, see p. 198
of Composing Interactive Music \, 2001 paperback 1st ed.;
#X msg -73 476 \$1 10;
#X obj 204 47 sel 0 1 2 3 4 5 6 7 8 9 10 11;
#X text 331 9 c minor scale;
#X msg 200 100 0;
#X msg 233 100 2;
#X msg 266 100 3;
#X msg 299 100 5;
#X msg 331 100 7;
#X msg 364 100 8;
#X msg 397 100 8;
#X obj 38 177 t f f;
#X connect 0 0 8 0;
#X connect 0 0 33 0;
#X connect 1 0 2 0;
#X connect 2 0 18 0;
#X connect 3 0 4 0;
#X connect 4 0 24 0;
#X connect 5 0 6 0;
#X connect 6 0 7 0;
#X connect 7 0 21 0;
#X connect 9 0 2 0;
#X connect 10 0 9 0;
#X connect 11 0 13 0;
#X connect 12 0 13 1;
#X connect 13 0 14 0;
#X connect 14 0 15 0;
#X connect 15 0 16 0;
#X connect 16 0 23 0;
#X connect 18 0 19 0;
#X connect 19 0 0 0;
#X connect 20 0 17 0;
#X connect 21 0 11 0;
#X connect 23 0 20 0;
#X connect 24 0 26 0;
#X connect 24 1 26 0;
#X connect 24 2 27 0;
#X connect 24 3 28 0;
#X connect 24 4 28 0;
#X connect 24 5 29 0;
#X connect 24 6 29 0;
#X connect 24 7 30 0;
#X connect 24 8 30 0;
#X connect 24 9 31 0;
#X connect 24 10 31 0;
#X connect 24 11 32 0;
#X connect 26 0 12 0;
#X connect 27 0 12 0;
#X connect 28 0 12 0;
#X connect 29 0 12 0;
#X connect 30 0 12 0;
#X connect 31 0 12 0;
#X connect 32 0 12 0;
#X connect 33 0 5 0;
#X connect 33 1 3 0;
#X restore 20 -68 pd rescalePitch;
#X obj 79 -127 * 0.55;
#X obj 393 -96 * 0.55;
#X obj 417 9 * 2;
#N canvas 442 125 906 644 rescalePitch2 0;
#X obj 27 120 ftom;
#X obj 126 18 inlet;
#X floatatom 27 62 5 0 0 0 - - -;
#X obj 155 392 % 12;
#X floatatom 155 414 5 0 0 1 pitch_class - -;
#X obj -61 240 / 12;
#X obj -61 262 - 1;
#X floatatom -61 284 5 0 0 1 register - -;
#X floatatom -28 240 5 0 0 1 midi_note - -;
#X obj 27 38 mtof;
#X floatatom 27 18 5 0 0 0 - - -;
#X obj -61 350 * 12;
#X obj -76 415 +;
#X floatatom -76 437 5 0 0 0 - - -;
#X obj -76 458 mtof;
#X floatatom -76 480 10 0 0 0 - - -;
#X obj -76 569 outlet;
#X obj 27 82 int;
#X floatatom 27 102 5 0 0 0 - - -;
#X obj -76 548 line;
#X obj -61 326 int;
#X msg -76 529 \$1 10;
#X floatatom 154 250 5 0 0 1 mapped_pitch - -;
#X obj 204 47 sel 0 1 2 3 4 5 6 7 8 9 10 11;
#X msg 200 100 0;
#X msg 233 100 2;
#X msg 266 100 3;
#X msg 299 100 5;
#X msg 331 100 7;
#X msg 364 100 8;
#X msg 397 100 8;
#X text 330 187 based on Todd Winkler's Scale subpatch \, see p. 198
of Composing Interactive Music \, 2001 paperback 1st ed.;
#X obj -76 499 + 0.6;
#X obj 38 177 t f f;
#X connect 0 0 8 0;
#X connect 0 0 33 0;
#X connect 1 0 2 0;
#X connect 2 0 17 0;
#X connect 3 0 4 0;
#X connect 4 0 23 0;
#X connect 5 0 6 0;
#X connect 6 0 7 0;
#X connect 7 0 20 0;
#X connect 9 0 2 0;
#X connect 10 0 9 0;
#X connect 11 0 12 0;
#X connect 12 0 13 0;
#X connect 13 0 14 0;
#X connect 14 0 15 0;
#X connect 15 0 32 0;
#X connect 17 0 18 0;
#X connect 18 0 0 0;
#X connect 19 0 16 0;
#X connect 20 0 11 0;
#X connect 21 0 19 0;
#X connect 22 0 12 1;
#X connect 23 0 24 0;
#X connect 23 1 24 0;
#X connect 23 2 25 0;
#X connect 23 3 26 0;
#X connect 23 4 26 0;
#X connect 23 5 27 0;
#X connect 23 6 27 0;
#X connect 23 7 28 0;
#X connect 23 8 28 0;
#X connect 23 9 29 0;
#X connect 23 10 29 0;
#X connect 23 11 30 0;
#X connect 24 0 22 0;
#X connect 25 0 22 0;
#X connect 26 0 22 0;
#X connect 27 0 22 0;
#X connect 28 0 22 0;
#X connect 29 0 22 0;
#X connect 30 0 22 0;
#X connect 32 0 21 0;
#X connect 33 0 5 0;
#X connect 33 1 3 0;
#X restore 293 -78 pd rescalePitch2;
#X obj 149 9 r OmGen2_width;
#X obj 243 9 r OmGen2_ripple;
#X obj 462 9 r OmGen2_width;
#X obj 555 9 r OmGen2_ripple;
#X obj 741 66 s OmGen2_width;
#X obj 846 -14 s OmGen2_ripple;
#X obj 947 59 s OmGen2_res;
#N canvas 94 354 703 423 filter 0;
#X floatatom 296 96 5 0 0 0 - - -;
#X floatatom 605 120 5 0 0 0 - - -;
#X obj 538 121 +~ 1;
#X floatatom 538 79 5 0 0 0 - - -;
#X floatatom 602 144 5 0 0 0 - - -;
#X obj 538 162 +~ 100;
#X obj 538 100 osc~ 0.25;
#X obj 538 141 *~ 2000;
#X obj 68 49 inlet~;
#X obj 196 319 outlet~;
#X obj 538 39 inlet;
#X obj 597 39 inlet;
#X obj 296 115 + 0.01;
#X obj 87 199 vcf~ 1;
#X connect 0 0 12 0;
#X connect 1 0 7 1;
#X connect 2 0 7 0;
#X connect 3 0 6 0;
#X connect 4 0 5 1;
#X connect 5 0 13 1;
#X connect 6 0 2 0;
#X connect 7 0 5 0;
#X connect 8 0 13 0;
#X connect 10 0 3 0;
#X connect 11 0 0 0;
#X connect 12 0 13 2;
#X connect 13 0 9 0;
#X restore 41 216 pd filter;
#X obj 160 173 r OmGen2_res;
#X obj 947 -62 * 3.5;
#N canvas 137 22 1294 809 speed2 0;
#X obj 5 131 +~;
#X obj 149 303 *~;
#X obj 367 120 osc~;
#X obj 367 147 *~;
#X obj 339 243 vd~ a1;
#X obj 470 321 osc~;
#X obj 469 348 *~;
#X obj 457 445 vd~ a2;
#X floatatom 289 -26 5 0 0 1 feedback - -;
#X floatatom 383 -22 5 0 0 1 rate - -;
#X floatatom 448 -24 5 0 0 1 depth - -;
#X obj 165 604 outlet~;
#X floatatom 319 8 10 0 0 0 - - -;
#X floatatom 383 8 10 0 0 0 - - -;
#X floatatom 448 8 10 0 0 0 - - -;
#X obj 983 28 inlet;
#X obj 983 59 pack f 200;
#X floatatom 983 116 5 0 0 0 - - -;
#X obj 983 89 line;
#X obj 1027 28 hsl 128 15 0 1 0 0 empty empty empty -2 -8 0 10 -262144
-1 -1 0 1;
#X obj 983 137 * 10;
#X obj 983 159 + 1;
#X obj 295 459 > 1;
#X obj 295 478 tgl 15 0 empty empty empty 17 7 0 10 -262144 -1 -1 1
1;
#X floatatom 983 181 5 0 0 0 - - -;
#X obj 982 200 int;
#X floatatom 982 220 5 0 0 0 - - -;
#X obj 784 307 sel 2 3 4 5 6 7 8 9 10 11;
#X obj 982 239 change;
#X obj 295 437 change;
#N canvas 0 22 687 515 crossfade 0;
#X obj 158 33 inlet~;
#X obj 202 33 inlet;
#X obj 161 255 *~;
#X text 203 14 crossfade;
#X obj 70 33 inlet~;
#X obj 73 255 *~;
#X obj 146 284 +~;
#X obj 146 313 outlet~;
#X obj 177 187 sin;
#X obj 84 185 cos;
#X text 68 15 1;
#X text 159 14 2;
#X obj 202 58 * 2;
#X obj 202 80 - 1;
#X obj 202 102 + 1;
#X obj 202 124 / 4;
#X obj 202 146 * 3.14159;
#X floatatom 202 168 5 0 0 0 - - -;
#X msg 176 208 \$1 60;
#X obj 176 230 line~;
#X msg 84 208 \$1 60;
#X obj 85 232 line~;
#X text 77 367 adapted from http://puredata.hurleur.com/sujet-5326-stereo-crossfader-adjustable-curve
(as used by 76synth);
#X connect 0 0 2 0;
#X connect 1 0 12 0;
#X connect 2 0 6 1;
#X connect 4 0 5 0;
#X connect 5 0 6 0;
#X connect 6 0 7 0;
#X connect 8 0 18 0;
#X connect 9 0 20 0;
#X connect 12 0 13 0;
#X connect 13 0 14 0;
#X connect 14 0 15 0;
#X connect 15 0 16 0;
#X connect 16 0 17 0;
#X connect 17 0 8 0;
#X connect 17 0 9 0;
#X connect 18 0 19 0;
#X connect 19 0 2 1;
#X connect 20 0 21 0;
#X connect 21 0 5 1;
#X restore 165 537 pd crossfade;
#X floatatom 234 506 5 0 0 0 - - -;
#X obj 319 35 pack f 200;
#X obj 385 35 pack f 200;
#X obj 456 35 pack f 200;
#X obj 31 82 *~ 0.3;
#X obj 5 -11 delread~ fb_drom 2;
#X obj 159 -21 inlet~;
#X obj 165 582 clip~ -1 1;
#X obj 165 560 hip~ 1;
#X obj 149 337 delwrite~ fb_drom 1000;
#X obj 18 193 delwrite~ a1 1000;
#X obj 18 171 delwrite~ a2 1000;
#X obj 369 200 +~;
#X obj 470 402 +~;
#X obj 367 169 *~;
#X obj 469 370 *~;
#X floatatom 532 -22 5 0 0 1 delay - -;
#X obj 113 489 *~ 0.7;
#X text 712 -3 chorus/flange effect;
#X obj 863 649 unpack f f f f;
#X floatatom 533 12 10 0 0 0 - - -;
#X obj 541 39 pack f 200;
#X obj 385 65 line~;
#X obj 456 65 line~;
#X obj 541 69 line~;
#X obj 319 65 line~;
#X obj 164 230 clip~ -1 1;
#X obj 164 261 *~ 0.4;
#X msg 959 338 0.8 1 0.25 10;
#X msg 959 360 0.8 2 0.25 10;
#X msg 959 382 0.8 2 0.5 10;
#X msg 960 404 0.8 3 0.7 10;
#X msg 960 426 0.8 4 0.7 10;
#X msg 960 449 0.8 4 0.8 10;
#X msg 961 471 0.8 5 0.9 10;
#X msg 961 494 0.8 6 1 10;
#X msg 961 516 0.8 7 1 10;
#X msg 961 539 0.9 9 1 10;
#X obj 344 316 +~;
#X obj 67 118 *~ 0.25;
#X obj 359 287 +~;
#X obj 414 240 +~ 0.25;
#X connect 0 0 41 0;
#X connect 0 0 42 0;
#X connect 1 0 40 0;
#X connect 2 0 3 0;
#X connect 3 0 45 0;
#X connect 4 0 71 0;
#X connect 5 0 6 0;
#X connect 6 0 46 0;
#X connect 7 0 71 1;
#X connect 8 0 12 0;
#X connect 9 0 13 0;
#X connect 10 0 14 0;
#X connect 12 0 32 0;
#X connect 13 0 33 0;
#X connect 14 0 34 0;
#X connect 15 0 16 0;
#X connect 16 0 18 0;
#X connect 17 0 20 0;
#X connect 18 0 17 0;
#X connect 19 0 16 0;
#X connect 20 0 21 0;
#X connect 21 0 24 0;
#X connect 22 0 23 0;
#X connect 23 0 31 0;
#X connect 24 0 25 0;
#X connect 25 0 26 0;
#X connect 25 0 29 0;
#X connect 26 0 28 0;
#X connect 27 0 59 0;
#X connect 27 1 60 0;
#X connect 27 2 61 0;
#X connect 27 3 62 0;
#X connect 27 4 63 0;
#X connect 27 5 64 0;
#X connect 27 6 65 0;
#X connect 27 7 66 0;
#X connect 27 8 67 0;
#X connect 27 9 68 0;
#X connect 28 0 27 0;
#X connect 29 0 22 0;
#X connect 30 0 39 0;
#X connect 31 0 30 2;
#X connect 32 0 56 0;
#X connect 33 0 53 0;
#X connect 34 0 54 0;
#X connect 35 0 0 1;
#X connect 35 0 70 0;
#X connect 36 0 0 0;
#X connect 37 0 35 0;
#X connect 37 0 48 0;
#X connect 38 0 11 0;
#X connect 39 0 38 0;
#X connect 43 0 4 0;
#X connect 44 0 7 0;
#X connect 45 0 43 0;
#X connect 46 0 44 0;
#X connect 47 0 51 0;
#X connect 48 0 30 0;
#X connect 50 0 8 0;
#X connect 50 1 9 0;
#X connect 50 2 10 0;
#X connect 50 3 47 0;
#X connect 51 0 52 0;
#X connect 52 0 55 0;
#X connect 53 0 2 0;
#X connect 53 0 72 0;
#X connect 54 0 3 1;
#X connect 54 0 6 1;
#X connect 54 0 45 1;
#X connect 54 0 46 1;
#X connect 55 0 43 1;
#X connect 55 0 44 1;
#X connect 56 0 57 0;
#X connect 57 0 58 0;
#X connect 58 0 1 1;
#X connect 59 0 50 0;
#X connect 60 0 50 0;
#X connect 61 0 50 0;
#X connect 62 0 50 0;
#X connect 63 0 50 0;
#X connect 64 0 50 0;
#X connect 65 0 50 0;
#X connect 66 0 50 0;
#X connect 67 0 50 0;
#X connect 68 0 50 0;
#X connect 69 0 30 1;
#X connect 70 0 69 0;
#X connect 71 0 1 0;
#X connect 71 0 69 1;
#X connect 72 0 5 0;
#X restore 42 325 pd speed2;
#N canvas 94 354 703 423 filter 0;
#X floatatom 296 96 5 0 0 0 - - -;
#X floatatom 605 120 5 0 0 0 - - -;
#X obj 538 121 +~ 1;
#X floatatom 538 79 5 0 0 0 - - -;
#X floatatom 602 144 5 0 0 0 - - -;
#X obj 538 162 +~ 100;
#X obj 538 100 osc~ 0.25;
#X obj 538 141 *~ 2000;
#X obj 68 49 inlet~;
#X obj 196 319 outlet~;
#X obj 538 39 inlet;
#X obj 597 39 inlet;
#X obj 296 115 + 0.01;
#X obj 87 199 vcf~ 1;
#X connect 0 0 12 0;
#X connect 1 0 7 1;
#X connect 2 0 7 0;
#X connect 3 0 6 0;
#X connect 4 0 5 1;
#X connect 5 0 13 1;
#X connect 6 0 2 0;
#X connect 7 0 5 0;
#X connect 8 0 13 0;
#X connect 10 0 3 0;
#X connect 11 0 0 0;
#X connect 12 0 13 2;
#X connect 13 0 9 0;
#X restore 354 211 pd filter;
#X obj 406 173 r OmGen2_res;
#X floatatom 947 -84 5 0 0 0 - - -;
#N canvas 0 22 450 300 !- 0;
#X obj 92 21 inlet;
#X obj 124 240 outlet;
#X floatatom 92 57 5 0 0 0 - - -;
#X obj 124 204 - 1;
#X obj 92 106 trigger b f;
#X obj 82 158 f 1;
#X connect 0 0 2 0;
#X connect 2 0 4 0;
#X connect 3 0 1 0;
#X connect 4 0 5 0;
#X connect 4 1 3 1;
#X connect 5 0 3 0;
#X restore 947 -107 pd !-;
#X obj 741 -101 * 95;
#X obj 947 -41 clip 1 3.5;
#X msg 1237 6 1 500;
#X msg 1341 6 1 500;
#X obj 1049 -108 * 0.6;
#X obj 20 -127 * 1400;
#X obj 343 -141 * 1400;
#X obj 20 -99 + 79;
#X obj 343 -113 + 79;
#X connect 0 0 46 2;
#X connect 1 0 0 0;
#X connect 2 0 1 0;
#X connect 3 0 97 0;
#X connect 4 0 73 0;
#X connect 5 0 2 0;
#X connect 6 0 98 0;
#X connect 7 0 74 0;
#X connect 9 0 84 1;
#X connect 10 0 9 0;
#X connect 11 0 81 0;
#X connect 12 0 83 0;
#X connect 13 0 96 0;
#X connect 14 0 13 0;
#X connect 15 0 92 0;
#X connect 16 0 15 0;
#X connect 17 0 58 0;
#X connect 18 0 91 0;
#X connect 19 0 18 0;
#X connect 20 0 21 1;
#X connect 21 0 45 0;
#X connect 22 0 54 0;
#X connect 23 0 16 0;
#X connect 24 0 17 0;
#X connect 25 0 19 0;
#X connect 26 0 14 0;
#X connect 27 0 47 0;
#X connect 28 0 47 1;
#X connect 29 0 30 0;
#X connect 30 0 32 0;
#X connect 31 0 45 1;
#X connect 32 0 42 0;
#X connect 32 1 43 0;
#X connect 33 0 41 0;
#X connect 34 0 35 0;
#X connect 35 0 36 0;
#X connect 35 0 37 0;
#X connect 36 0 41 0;
#X connect 38 0 34 0;
#X connect 39 0 31 0;
#X connect 39 0 38 0;
#X connect 41 0 40 0;
#X connect 42 0 33 0;
#X connect 42 1 94 0;
#X connect 42 2 44 0;
#X connect 43 0 39 0;
#X connect 43 1 95 0;
#X connect 44 0 38 0;
#X connect 45 0 48 0;
#X connect 46 0 87 0;
#X connect 47 0 84 0;
#X connect 48 0 8 0;
#X connect 48 1 49 0;
#X connect 50 0 27 0;
#X connect 51 0 50 0;
#X connect 51 0 70 0;
#X connect 52 0 28 0;
#X connect 54 0 87 1;
#X connect 56 0 11 0;
#X connect 57 0 82 0;
#X connect 58 0 59 0;
#X connect 59 0 60 0;
#X connect 60 0 57 0;
#X connect 62 0 88 1;
#X connect 63 0 62 0;
#X connect 64 0 66 0;
#X connect 65 0 66 1;
#X connect 66 0 88 0;
#X connect 67 0 64 0;
#X connect 68 0 67 0;
#X connect 68 0 75 0;
#X connect 69 0 65 0;
#X connect 70 0 52 0;
#X connect 72 0 51 0;
#X connect 73 0 10 0;
#X connect 74 0 63 0;
#X connect 75 0 69 0;
#X connect 76 0 68 0;
#X connect 77 0 50 2;
#X connect 77 0 52 2;
#X connect 78 0 52 1;
#X connect 78 0 50 1;
#X connect 79 0 67 2;
#X connect 79 0 69 2;
#X connect 80 0 69 1;
#X connect 80 0 67 1;
#X connect 84 0 46 0;
#X connect 85 0 84 2;
#X connect 86 0 93 0;
#X connect 87 0 21 0;
#X connect 88 0 46 1;
#X connect 89 0 88 2;
#X connect 90 0 86 0;
#X connect 91 0 90 0;
#X connect 92 0 56 0;
#X connect 93 0 12 0;
#X connect 94 0 31 0;
#X connect 94 0 38 0;
#X connect 95 0 38 0;
#X connect 96 0 20 0;
#X connect 97 0 99 0;
#X connect 98 0 100 0;
#X connect 99 0 72 0;
#X connect 100 0 76 0;
#X restore 440 362 pd voice2_________________________________;
#N canvas 110 22 1436 800 voice3_________________________________ 0
;
#X floatatom 206 -40 5 0 0 0 - - -;
#X obj 206 -68 line;
#X obj 206 -96 pack f 200;
#X obj 40 -175 inlet;
#X obj 79 -175 inlet;
#X obj 206 -144 inlet;
#X obj 343 -173 inlet;
#X obj 393 -144 inlet;
#X obj 40 571 outlet~;
#X floatatom 79 -40 5 0 0 0 - - -;
#X obj 79 -99 + 0.001;
#X floatatom 741 -42 5 0 0 0 - - -;
#X floatatom 947 -11 5 0 0 0 - - -;
#X obj 1049 -130 line;
#X obj 1049 -159 pack f 200;
#X obj 741 -130 line;
#X obj 741 -159 pack f 200;
#X obj 641 -159 pack f 200;
#X obj 846 -159 pack f 200;
#X obj 947 -130 line;
#X obj 947 -159 pack f 200;
#X floatatom 1050 -18 5 0 0 0 - - -;
#X obj 641 -187 inlet;
#X obj 741 -187 inlet;
#X obj 846 -187 inlet;
#X obj 947 -187 inlet;
#X obj 1049 -187 inlet;
#X obj 41 97 *~ 0.7;
#X obj 104 101 *~ 0.5;
#X obj 1165 -181 inlet;
#X obj 1165 -101 tgl 15 0 empty empty empty 17 7 0 10 -262144 -1 -1
1 1;
#X obj 1194 38 vline~;
#X obj 1165 -71 select 1;
#X msg 1165 7 1;
#X floatatom 1281 87 5 0 0 0 - - -;
#X obj 1281 110 select 0;
#X msg 1281 138 0;
#X obj 1211 117 bng 15 250 50 0 empty empty empty 17 7 0 10 -262144
-1 -1;
#X obj 1281 60 line;
#X msg 1194 6 0 500;
#X obj 1165 180 switch~;
#X floatatom 1165 150 5 0 0 0 - - -;
#X msg 1237 6 1 500;
#X msg 1331 7 1 500;
#X obj 1165 -27 t b b b;
#X obj 1222 -28 t b b b;
#X msg 1283 7 0 1500;
#X obj 45 413 *~;
#N canvas 0 22 687 515 crossfade 0;
#X obj 158 33 inlet~;
#X obj 202 33 inlet;
#X obj 161 255 *~;
#X text 203 14 crossfade;
#X obj 70 33 inlet~;
#X obj 73 255 *~;
#X obj 146 284 +~;
#X obj 146 313 outlet~;
#X obj 177 187 sin;
#X obj 84 185 cos;
#X text 68 15 1;
#X text 159 14 2;
#X obj 202 58 * 2;
#X obj 202 80 - 1;
#X obj 202 102 + 1;
#X obj 202 124 / 4;
#X obj 202 146 * 3.14159;
#X floatatom 202 168 5 0 0 0 - - -;
#X msg 176 208 \$1 60;
#X obj 176 230 line~;
#X msg 84 208 \$1 60;
#X obj 85 232 line~;
#X text 77 367 adapted from http://puredata.hurleur.com/sujet-5326-stereo-crossfader-adjustable-curve
(as used by 76synth);
#X connect 0 0 2 0;
#X connect 1 0 12 0;
#X connect 2 0 6 1;
#X connect 4 0 5 0;
#X connect 5 0 6 0;
#X connect 6 0 7 0;
#X connect 8 0 18 0;
#X connect 9 0 20 0;
#X connect 12 0 13 0;
#X connect 13 0 14 0;
#X connect 14 0 15 0;
#X connect 15 0 16 0;
#X connect 16 0 17 0;
#X connect 17 0 8 0;
#X connect 17 0 9 0;
#X connect 18 0 19 0;
#X connect 19 0 2 1;
#X connect 20 0 21 0;
#X connect 21 0 5 1;
#X restore 40 290 pd crossfade;
#X obj 41 163 +~;
#N canvas 394 175 839 516 schroederReverb 0;
#X obj 82 91 +~;
#X obj 82 18 inlet~;
#X obj 142 91 +~;
#X obj 327 213 +~;
#X obj 327 254 +~;
#X obj 327 293 *~ 0.4;
#X obj 359 213 -~;
#X obj 376 293 *~ 0.37;
#X obj 359 254 +~;
#X obj 82 247 outlet~;
#X obj 142 247 outlet~;
#X obj 390 213 +~;
#X obj 420 213 -~;
#X obj 390 254 -~;
#X obj 421 254 -~;
#X obj 431 294 *~ 0.333;
#X obj 492 294 *~ 0.3;
#X text 427 454 Schroeder reverb \, source: Andy Farnell's Designing
Sound \, page 234 \, Claude Heiland-Allen credited;
#X obj 127 18 delread~ drom3A 101;
#X obj 250 18 delread~ drom3B 143;
#X obj 373 18 delread~ drom3C 165;
#X obj 496 18 delread~ drom3D 177;
#X obj 492 341 delwrite~ drom3D 1000;
#X obj 357 341 delwrite~ drom3C 1000;
#X obj 222 341 delwrite~ drom3B 1000;
#X obj 87 341 delwrite~ drom3A 1000;
#X connect 0 0 3 0;
#X connect 0 0 9 0;
#X connect 0 0 6 0;
#X connect 1 0 0 0;
#X connect 1 0 2 0;
#X connect 2 0 10 0;
#X connect 2 0 6 1;
#X connect 2 0 3 1;
#X connect 3 0 4 0;
#X connect 3 0 13 0;
#X connect 4 0 5 0;
#X connect 5 0 25 0;
#X connect 6 0 8 0;
#X connect 6 0 14 0;
#X connect 7 0 24 0;
#X connect 8 0 7 0;
#X connect 11 0 13 1;
#X connect 11 0 4 1;
#X connect 12 0 14 1;
#X connect 12 0 8 1;
#X connect 13 0 15 0;
#X connect 14 0 16 0;
#X connect 15 0 23 0;
#X connect 16 0 22 0;
#X connect 18 0 0 1;
#X connect 19 0 2 1;
#X connect 20 0 11 0;
#X connect 20 0 12 0;
#X connect 21 0 11 1;
#X connect 21 0 12 1;
#X restore 45 508 pd schroederReverb;
#X obj 142 570 outlet~;
#N canvas 404 50 889 639 OmGen 0;
#X obj 250 596 outlet~;
#X obj 101 22 inlet;
#X obj 101 127 phasor~ 100;
#X obj 101 149 -~ 0.5;
#X obj 101 171 cos~;
#X obj 101 193 +~ 1;
#X obj 101 215 *~ 0.5;
#X obj 101 237 *~;
#X obj 206 137 sig~;
#X obj 206 159 lop~ 10;
#X obj 191 190 *~;
#X obj 191 212 cos~;
#X floatatom 101 76 5 0 0 1 frequency - -;
#X floatatom 206 117 5 0 0 1 ripple - -;
#X obj 101 299 *~;
#X floatatom 355 155 5 0 0 1 width - -;
#X obj 101 352 *~;
#X obj 101 374 +~ 1;
#X obj 37 447 /~;
#X obj 37 374 sig~ 1;
#X obj 40 504 hip~ 1;
#X obj 205 21 inlet;
#X obj 355 21 inlet;
#X connect 1 0 12 0;
#X connect 2 0 3 0;
#X connect 3 0 4 0;
#X connect 3 0 10 0;
#X connect 4 0 5 0;
#X connect 5 0 6 0;
#X connect 6 0 7 0;
#X connect 7 0 14 0;
#X connect 8 0 9 0;
#X connect 9 0 10 1;
#X connect 10 0 11 0;
#X connect 11 0 7 1;
#X connect 12 0 2 0;
#X connect 13 0 8 0;
#X connect 14 0 16 0;
#X connect 14 0 16 1;
#X connect 15 0 14 1;
#X connect 16 0 17 0;
#X connect 17 0 18 1;
#X connect 18 0 20 0;
#X connect 19 0 18 0;
#X connect 20 0 0 0;
#X connect 21 0 13 0;
#X connect 22 0 15 0;
#X restore 41 52 pd OmGen;
#X floatatom 22 -26 5 0 0 0 - - -;
#N canvas 404 50 889 639 OmGen 0;
#X obj 250 596 outlet~;
#X obj 101 22 inlet;
#X obj 101 127 phasor~ 100;
#X obj 101 149 -~ 0.5;
#X obj 101 171 cos~;
#X obj 101 193 +~ 1;
#X obj 101 215 *~ 0.5;
#X obj 101 237 *~;
#X obj 206 137 sig~;
#X obj 206 159 lop~ 10;
#X obj 191 190 *~;
#X obj 191 212 cos~;
#X floatatom 101 76 5 0 0 1 frequency - -;
#X floatatom 206 117 5 0 0 1 ripple - -;
#X obj 101 299 *~;
#X floatatom 355 155 5 0 0 1 width - -;
#X obj 101 352 *~;
#X obj 101 374 +~ 1;
#X obj 37 447 /~;
#X obj 37 374 sig~ 1;
#X obj 40 504 hip~ 1;
#X obj 205 21 inlet;
#X obj 355 21 inlet;
#X connect 1 0 12 0;
#X connect 2 0 3 0;
#X connect 3 0 4 0;
#X connect 3 0 10 0;
#X connect 4 0 5 0;
#X connect 5 0 6 0;
#X connect 6 0 7 0;
#X connect 7 0 14 0;
#X connect 8 0 9 0;
#X connect 9 0 10 1;
#X connect 10 0 11 0;
#X connect 11 0 7 1;
#X connect 12 0 2 0;
#X connect 13 0 8 0;
#X connect 14 0 16 0;
#X connect 14 0 16 1;
#X connect 15 0 14 1;
#X connect 16 0 17 0;
#X connect 17 0 18 1;
#X connect 18 0 20 0;
#X connect 19 0 18 0;
#X connect 20 0 0 0;
#X connect 21 0 13 0;
#X connect 22 0 15 0;
#X restore 104 53 pd OmGen;
#X text 738 85 a.k.a. depth;
#X floatatom 641 -41 5 0 0 0 - - -;
#X obj 641 -129 line;
#X text 638 -15 a.k.a. speed;
#X obj 741 -71 + 5;
#X floatatom 846 -42 5 0 0 0 - - -;
#X obj 846 -130 line;
#X obj 846 -101 * 10;
#X obj 846 -71 + 2;
#X text 843 5 a.k.a. freq;
#X floatatom 393 -40 5 0 0 0 - - -;
#X obj 393 -68 + 0.001;
#X obj 354 101 *~ 0.7;
#X obj 417 101 *~ 0.5;
#X obj 354 167 +~;
#N canvas 404 50 889 639 OmGen 0;
#X obj 250 596 outlet~;
#X obj 101 22 inlet;
#X obj 101 127 phasor~ 100;
#X obj 101 149 -~ 0.5;
#X obj 101 171 cos~;
#X obj 101 193 +~ 1;
#X obj 101 215 *~ 0.5;
#X obj 101 237 *~;
#X obj 206 137 sig~;
#X obj 206 159 lop~ 10;
#X obj 191 190 *~;
#X obj 191 212 cos~;
#X floatatom 101 76 5 0 0 1 frequency - -;
#X floatatom 206 117 5 0 0 1 ripple - -;
#X obj 101 299 *~;
#X floatatom 355 155 5 0 0 1 width - -;
#X obj 101 352 *~;
#X obj 101 374 +~ 1;
#X obj 37 447 /~;
#X obj 37 374 sig~ 1;
#X obj 40 504 hip~ 1;
#X obj 205 21 inlet;
#X obj 355 21 inlet;
#X connect 1 0 12 0;
#X connect 2 0 3 0;
#X connect 3 0 4 0;
#X connect 3 0 10 0;
#X connect 4 0 5 0;
#X connect 5 0 6 0;
#X connect 6 0 7 0;
#X connect 7 0 14 0;
#X connect 8 0 9 0;
#X connect 9 0 10 1;
#X connect 10 0 11 0;
#X connect 11 0 7 1;
#X connect 12 0 2 0;
#X connect 13 0 8 0;
#X connect 14 0 16 0;
#X connect 14 0 16 1;
#X connect 15 0 14 1;
#X connect 16 0 17 0;
#X connect 17 0 18 1;
#X connect 18 0 20 0;
#X connect 19 0 18 0;
#X connect 20 0 0 0;
#X connect 21 0 13 0;
#X connect 22 0 15 0;
#X restore 354 56 pd OmGen;
#X floatatom 354 -40 5 0 0 0 - - -;
#N canvas 404 50 889 639 OmGen 0;
#X obj 250 596 outlet~;
#X obj 101 22 inlet;
#X obj 101 127 phasor~ 100;
#X obj 101 149 -~ 0.5;
#X obj 101 171 cos~;
#X obj 101 193 +~ 1;
#X obj 101 215 *~ 0.5;
#X obj 101 237 *~;
#X obj 206 137 sig~;
#X obj 206 159 lop~ 10;
#X obj 191 190 *~;
#X obj 191 212 cos~;
#X floatatom 101 76 5 0 0 1 frequency - -;
#X floatatom 206 117 5 0 0 1 ripple - -;
#X obj 101 299 *~;
#X floatatom 355 155 5 0 0 1 width - -;
#X obj 101 352 *~;
#X obj 101 374 +~ 1;
#X obj 37 447 /~;
#X obj 37 374 sig~ 1;
#X obj 72 525 hip~ 1;
#X obj 205 21 inlet;
#X obj 355 21 inlet;
#X connect 1 0 12 0;
#X connect 2 0 3 0;
#X connect 3 0 4 0;
#X connect 3 0 10 0;
#X connect 4 0 5 0;
#X connect 5 0 6 0;
#X connect 6 0 7 0;
#X connect 7 0 14 0;
#X connect 8 0 9 0;
#X connect 9 0 10 1;
#X connect 10 0 11 0;
#X connect 11 0 7 1;
#X connect 12 0 2 0;
#X connect 13 0 8 0;
#X connect 14 0 16 0;
#X connect 14 0 16 1;
#X connect 15 0 14 1;
#X connect 16 0 17 0;
#X connect 17 0 18 1;
#X connect 18 0 20 0;
#X connect 19 0 18 0;
#X connect 20 0 0 0;
#X connect 21 0 13 0;
#X connect 22 0 15 0;
#X restore 417 57 pd OmGen;
#X obj 104 8 * 2;
#X text 946 41 a.k.a resonance;
#X obj 947 -65 * 3.5;
#X obj 947 -41 clip 1 3.5;
#N canvas 306 22 906 644 rescalePitch 0;
#X obj 27 120 ftom;
#X obj 126 18 inlet;
#X floatatom 27 62 5 0 0 0 - - -;
#X obj -143 223 % 12;
#X floatatom -143 245 5 0 0 1 pitch_class - -;
#X obj -34 223 / 12;
#X obj -34 245 - 1;
#X floatatom -34 267 5 0 0 1 register - -;
#X floatatom 27 146 5 0 0 1 midi_note - -;
#X obj 27 38 mtof;
#X floatatom 27 18 5 0 0 0 - - -;
#X obj -34 333 * 12;
#X obj -49 398 +;
#X floatatom -49 420 5 0 0 0 - - -;
#X obj -49 439 mtof;
#X floatatom -49 461 10 0 0 0 - - -;
#X obj -49 519 outlet;
#X obj 27 82 int;
#X floatatom 27 102 5 0 0 0 - - -;
#X obj -49 498 line;
#X obj -34 309 int;
#X msg -49 479 \$1 10;
#X floatatom 119 408 5 0 0 1 mapped_pitch - -;
#X obj 297 85 sel 0 1 2 3 4 5 6 7 8 9 10 11;
#X msg 193 181 0;
#X text 323 268 based on Todd Winkler's Scale subpatch \, see p. 198
of Composing Interactive Music \, 2001 paperback 1st ed.;
#X msg 226 181 1;
#X msg 259 181 2;
#X msg 292 181 3;
#X msg 324 181 4;
#X msg 357 181 5;
#X msg 390 181 6;
#X msg 422 181 7;
#X msg 455 181 8;
#X msg 488 181 9;
#X msg 521 181 10;
#X msg 553 181 11;
#X text 467 41 chromatic scale;
#X obj -123 168 t f f;
#X connect 0 0 8 0;
#X connect 0 0 38 0;
#X connect 1 0 2 0;
#X connect 2 0 17 0;
#X connect 3 0 4 0;
#X connect 4 0 23 0;
#X connect 5 0 6 0;
#X connect 6 0 7 0;
#X connect 7 0 20 0;
#X connect 9 0 2 0;
#X connect 10 0 9 0;
#X connect 11 0 12 0;
#X connect 12 0 13 0;
#X connect 13 0 14 0;
#X connect 14 0 15 0;
#X connect 15 0 21 0;
#X connect 17 0 18 0;
#X connect 18 0 0 0;
#X connect 19 0 16 0;
#X connect 20 0 11 0;
#X connect 21 0 19 0;
#X connect 22 0 12 1;
#X connect 23 0 24 0;
#X connect 23 1 26 0;
#X connect 23 2 27 0;
#X connect 23 3 28 0;
#X connect 23 4 29 0;
#X connect 23 5 30 0;
#X connect 23 6 31 0;
#X connect 23 7 32 0;
#X connect 23 8 33 0;
#X connect 23 9 34 0;
#X connect 23 10 35 0;
#X connect 23 11 36 0;
#X connect 24 0 22 0;
#X connect 26 0 22 0;
#X connect 27 0 22 0;
#X connect 28 0 22 0;
#X connect 29 0 22 0;
#X connect 30 0 22 0;
#X connect 31 0 22 0;
#X connect 32 0 22 0;
#X connect 33 0 22 0;
#X connect 34 0 22 0;
#X connect 35 0 22 0;
#X connect 36 0 22 0;
#X connect 38 0 5 0;
#X connect 38 1 3 0;
#X restore 20 -68 pd rescalePitch;
#X obj 79 -127 * 0.55;
#X obj 393 -96 * 0.55;
#X obj 417 9 * 2;
#N canvas 442 125 906 644 rescalePitch2 0;
#X obj 27 120 ftom;
#X obj 126 18 inlet;
#X floatatom 27 62 5 0 0 0 - - -;
#X obj -115 146 % 12;
#X floatatom -115 168 5 0 0 1 pitch_class - -;
#X obj -26 242 / 12;
#X obj -26 264 - 1;
#X floatatom -26 286 5 0 0 1 register - -;
#X floatatom 7 242 5 0 0 1 midi_note - -;
#X obj 27 38 mtof;
#X floatatom 27 18 5 0 0 0 - - -;
#X obj -26 352 * 12;
#X obj -41 417 +;
#X floatatom -41 439 5 0 0 0 - - -;
#X obj -41 460 mtof;
#X floatatom -41 482 10 0 0 0 - - -;
#X obj -41 571 outlet;
#X obj 27 82 int;
#X floatatom 27 102 5 0 0 0 - - -;
#X obj -41 550 line;
#X obj -26 328 int;
#X msg -41 531 \$1 10;
#X floatatom 147 331 5 0 0 1 mapped_pitch - -;
#X obj 297 85 sel 0 1 2 3 4 5 6 7 8 9 10 11;
#X msg 193 181 0;
#X text 323 268 based on Todd Winkler's Scale subpatch \, see p. 198
of Composing Interactive Music \, 2001 paperback 1st ed.;
#X msg 226 181 1;
#X msg 259 181 2;
#X msg 292 181 3;
#X msg 324 181 4;
#X msg 357 181 5;
#X msg 390 181 6;
#X msg 422 181 7;
#X msg 455 181 8;
#X msg 488 181 9;
#X msg 521 181 10;
#X msg 553 181 11;
#X text 467 41 chromatic scale;
#X obj -41 501 + 0.8;
#X obj 44 162 t f f;
#X connect 0 0 8 0;
#X connect 0 0 39 0;
#X connect 1 0 2 0;
#X connect 2 0 17 0;
#X connect 3 0 4 0;
#X connect 4 0 23 0;
#X connect 5 0 6 0;
#X connect 6 0 7 0;
#X connect 7 0 20 0;
#X connect 9 0 2 0;
#X connect 10 0 9 0;
#X connect 11 0 12 0;
#X connect 12 0 13 0;
#X connect 13 0 14 0;
#X connect 14 0 15 0;
#X connect 15 0 38 0;
#X connect 17 0 18 0;
#X connect 18 0 0 0;
#X connect 19 0 16 0;
#X connect 20 0 11 0;
#X connect 21 0 19 0;
#X connect 22 0 12 1;
#X connect 23 0 24 0;
#X connect 23 1 26 0;
#X connect 23 2 27 0;
#X connect 23 3 28 0;
#X connect 23 4 29 0;
#X connect 23 5 30 0;
#X connect 23 6 31 0;
#X connect 23 7 32 0;
#X connect 23 8 33 0;
#X connect 23 9 34 0;
#X connect 23 10 35 0;
#X connect 23 11 36 0;
#X connect 24 0 22 0;
#X connect 26 0 22 0;
#X connect 27 0 22 0;
#X connect 28 0 22 0;
#X connect 29 0 22 0;
#X connect 30 0 22 0;
#X connect 31 0 22 0;
#X connect 32 0 22 0;
#X connect 33 0 22 0;
#X connect 34 0 22 0;
#X connect 35 0 22 0;
#X connect 36 0 22 0;
#X connect 38 0 21 0;
#X connect 39 0 5 0;
#X connect 39 1 3 0;
#X restore 293 -78 pd rescalePitch2;
#X obj 149 9 r OmGen3_width;
#X obj 243 9 r OmGen3_ripple;
#X obj 462 9 r OmGen3_width;
#X obj 555 9 r OmGen3_ripple;
#X obj 741 66 s OmGen3_width;
#X obj 846 -14 s OmGen3_ripple;
#X obj 947 13 s OmGen3_res;
#N canvas 94 354 703 423 filter 0;
#X floatatom 296 96 5 0 0 0 - - -;
#X floatatom 605 120 5 0 0 0 - - -;
#X obj 538 121 +~ 1;
#X floatatom 538 79 5 0 0 0 - - -;
#X floatatom 602 144 5 0 0 0 - - -;
#X obj 538 162 +~ 100;
#X obj 538 100 osc~ 0.25;
#X obj 538 141 *~ 2000;
#X obj 68 49 inlet~;
#X obj 196 319 outlet~;
#X obj 538 39 inlet;
#X obj 597 39 inlet;
#X text 338 95 Q (1-4);
#X obj 296 115 + 0.01;
#X obj 87 199 vcf~ 1;
#X connect 0 0 13 0;
#X connect 1 0 7 1;
#X connect 2 0 7 0;
#X connect 3 0 6 0;
#X connect 4 0 5 1;
#X connect 5 0 14 1;
#X connect 6 0 2 0;
#X connect 7 0 5 0;
#X connect 8 0 14 0;
#X connect 10 0 3 0;
#X connect 11 0 0 0;
#X connect 13 0 14 2;
#X connect 14 0 9 0;
#X restore 41 216 pd filter;
#X obj 93 178 r OmGen3_res;
#N canvas 72 66 1233 799 speed3b 0;
#X obj 202 160 inlet~;
#X obj 93 517 outlet~;
#X floatatom 703 328 10 0 0 0 - - -;
#X obj 703 376 line~;
#X obj 703 352 pack 0 100;
#X floatatom 93 286 10 0 0 0 - - -;
#X floatatom 783 327 0 0 0 0 - - -;
#X obj 783 399 line~;
#X obj 783 375 pack 0 100;
#X obj 783 351 * 0.01;
#X obj 93 310 / 100;
#X obj 93 358 +~ 1;
#X obj 93 334 osc~ 0;
#X obj 93 406 +~ 1.46;
#X text 162 286 <-- cycle frequency (hundredths);
#X text 137 382 <-- cycle depth (msec);
#X text 292 488 <-- feedback (hundredths);
#X obj 261 514 clip~ -1 1;
#X obj 913 48 inlet;
#X obj 93 382 *~ 500;
#X obj 261 490 *~ 1;
#X floatatom 913 76 5 0 0 0 - - -;
#X obj 913 97 * 10;
#X obj 913 119 + 1;
#X obj 912 209 > 1;
#X obj 912 228 tgl 15 0 empty empty empty 17 7 0 10 -262144 -1 -1 1
1;
#X floatatom 913 141 5 0 0 0 - - -;
#X obj 912 160 int;
#X obj 912 187 change;
#N canvas 0 22 687 515 crossfade 0;
#X obj 158 33 inlet~;
#X obj 202 33 inlet;
#X obj 161 255 *~;
#X text 203 14 crossfade;
#X obj 70 33 inlet~;
#X obj 73 255 *~;
#X obj 146 284 +~;
#X obj 146 313 outlet~;
#X obj 177 187 sin;
#X obj 84 185 cos;
#X text 68 15 1;
#X text 159 14 2;
#X obj 202 58 * 2;
#X obj 202 80 - 1;
#X obj 202 102 + 1;
#X obj 202 124 / 4;
#X obj 202 146 * 3.14159;
#X floatatom 202 168 5 0 0 0 - - -;
#X msg 176 208 \$1 60;
#X obj 176 230 line~;
#X msg 84 208 \$1 60;
#X obj 85 232 line~;
#X text 77 367 adapted from http://puredata.hurleur.com/sujet-5326-stereo-crossfader-adjustable-curve
(as used by 76synth);
#X connect 0 0 2 0;
#X connect 1 0 12 0;
#X connect 2 0 6 1;
#X connect 4 0 5 0;
#X connect 5 0 6 0;
#X connect 6 0 7 0;
#X connect 8 0 18 0;
#X connect 9 0 20 0;
#X connect 12 0 13 0;
#X connect 13 0 14 0;
#X connect 14 0 15 0;
#X connect 15 0 16 0;
#X connect 16 0 17 0;
#X connect 17 0 8 0;
#X connect 17 0 9 0;
#X connect 18 0 19 0;
#X connect 19 0 2 1;
#X connect 20 0 21 0;
#X connect 21 0 5 1;
#X restore 59 479 pd crossfade;
#X floatatom 128 453 5 0 0 0 - - -;
#X obj 909 340 line;
#X obj 912 258 sel 1;
#X msg 911 313 1 1000;
#X msg 968 319 0 1000;
#X obj 93 430 vd~ dromdel-b;
#X obj 261 538 delwrite~ dromdel-b 1000;
#X obj 612 131 * 4.75;
#X connect 0 0 29 0;
#X connect 0 0 20 0;
#X connect 2 0 4 0;
#X connect 4 0 3 0;
#X connect 5 0 10 0;
#X connect 6 0 9 0;
#X connect 8 0 7 0;
#X connect 9 0 8 0;
#X connect 10 0 12 0;
#X connect 11 0 19 0;
#X connect 12 0 11 0;
#X connect 13 0 35 0;
#X connect 17 0 36 0;
#X connect 18 0 21 0;
#X connect 18 0 37 0;
#X connect 19 0 13 0;
#X connect 20 0 17 0;
#X connect 21 0 22 0;
#X connect 22 0 23 0;
#X connect 23 0 26 0;
#X connect 24 0 25 0;
#X connect 25 0 32 0;
#X connect 26 0 27 0;
#X connect 27 0 28 0;
#X connect 28 0 24 0;
#X connect 29 0 1 0;
#X connect 30 0 29 2;
#X connect 31 0 30 0;
#X connect 32 0 33 0;
#X connect 32 1 34 0;
#X connect 33 0 31 0;
#X connect 34 0 31 0;
#X connect 35 0 29 1;
#X connect 37 0 5 0;
#X restore 186 256 pd speed3b;
#N canvas 72 66 1233 799 speed3a 0;
#X obj 202 160 inlet~;
#X obj 93 517 outlet~;
#X floatatom 703 328 10 0 0 0 - - -;
#X obj 703 376 line~;
#X obj 703 352 pack 0 100;
#X floatatom 93 286 10 0 0 0 - - -;
#X floatatom 783 327 0 0 0 0 - - -;
#X obj 783 399 line~;
#X obj 783 375 pack 0 100;
#X obj 783 351 * 0.01;
#X obj 93 310 / 100;
#X obj 93 358 +~ 1;
#X obj 93 334 osc~ 0;
#X obj 93 406 +~ 1.46;
#X text 162 286 <-- cycle frequency (hundredths);
#X text 137 382 <-- cycle depth (msec);
#X text 292 488 <-- feedback (hundredths);
#X obj 261 514 clip~ -1 1;
#X obj 913 48 inlet;
#X obj 612 131 * 5;
#X obj 93 382 *~ 500;
#X obj 261 490 *~ 1;
#X floatatom 913 76 5 0 0 0 - - -;
#X obj 913 97 * 10;
#X obj 913 119 + 1;
#X obj 912 209 > 1;
#X obj 912 228 tgl 15 0 empty empty empty 17 7 0 10 -262144 -1 -1 1
1;
#X floatatom 913 141 5 0 0 0 - - -;
#X obj 912 160 int;
#X obj 912 187 change;
#N canvas 0 22 687 515 crossfade 0;
#X obj 158 33 inlet~;
#X obj 202 33 inlet;
#X obj 161 255 *~;
#X text 203 14 crossfade;
#X obj 70 33 inlet~;
#X obj 73 255 *~;
#X obj 146 284 +~;
#X obj 146 313 outlet~;
#X obj 177 187 sin;
#X obj 84 185 cos;
#X text 68 15 1;
#X text 159 14 2;
#X obj 202 58 * 2;
#X obj 202 80 - 1;
#X obj 202 102 + 1;
#X obj 202 124 / 4;
#X obj 202 146 * 3.14159;
#X floatatom 202 168 5 0 0 0 - - -;
#X msg 176 208 \$1 60;
#X obj 176 230 line~;
#X msg 84 208 \$1 60;
#X obj 85 232 line~;
#X text 77 367 adapted from http://puredata.hurleur.com/sujet-5326-stereo-crossfader-adjustable-curve
(as used by 76synth);
#X connect 0 0 2 0;
#X connect 1 0 12 0;
#X connect 2 0 6 1;
#X connect 4 0 5 0;
#X connect 5 0 6 0;
#X connect 6 0 7 0;
#X connect 8 0 18 0;
#X connect 9 0 20 0;
#X connect 12 0 13 0;
#X connect 13 0 14 0;
#X connect 14 0 15 0;
#X connect 15 0 16 0;
#X connect 16 0 17 0;
#X connect 17 0 8 0;
#X connect 17 0 9 0;
#X connect 18 0 19 0;
#X connect 19 0 2 1;
#X connect 20 0 21 0;
#X connect 21 0 5 1;
#X restore 59 479 pd crossfade;
#X floatatom 128 453 5 0 0 0 - - -;
#X obj 909 340 line;
#X obj 912 258 sel 1;
#X msg 911 313 1 1000;
#X msg 968 319 0 1000;
#X obj 93 430 vd~ dromdel-a;
#X obj 261 538 delwrite~ dromdel-a 1000;
#X connect 0 0 30 0;
#X connect 0 0 21 0;
#X connect 2 0 4 0;
#X connect 4 0 3 0;
#X connect 5 0 10 0;
#X connect 6 0 9 0;
#X connect 8 0 7 0;
#X connect 9 0 8 0;
#X connect 10 0 12 0;
#X connect 11 0 20 0;
#X connect 12 0 11 0;
#X connect 13 0 36 0;
#X connect 17 0 37 0;
#X connect 18 0 19 0;
#X connect 18 0 22 0;
#X connect 19 0 5 0;
#X connect 20 0 13 0;
#X connect 21 0 17 0;
#X connect 22 0 23 0;
#X connect 23 0 24 0;
#X connect 24 0 27 0;
#X connect 25 0 26 0;
#X connect 26 0 33 0;
#X connect 27 0 28 0;
#X connect 28 0 29 0;
#X connect 29 0 25 0;
#X connect 30 0 1 0;
#X connect 31 0 30 2;
#X connect 32 0 31 0;
#X connect 33 0 34 0;
#X connect 33 1 35 0;
#X connect 34 0 32 0;
#X connect 35 0 32 0;
#X connect 36 0 30 1;
#X restore 39 259 pd speed3a;
#N canvas 94 354 703 423 filter 0;
#X floatatom 296 96 5 0 0 0 - - -;
#X floatatom 605 120 5 0 0 0 - - -;
#X obj 538 121 +~ 1;
#X floatatom 538 79 5 0 0 0 - - -;
#X floatatom 602 144 5 0 0 0 - - -;
#X obj 538 162 +~ 100;
#X obj 538 100 osc~ 0.25;
#X obj 538 141 *~ 2000;
#X obj 68 49 inlet~;
#X obj 196 319 outlet~;
#X obj 538 39 inlet;
#X obj 597 39 inlet;
#X text 338 95 Q (1-4);
#X obj 296 115 + 0.01;
#X obj 87 199 vcf~ 1;
#X connect 0 0 13 0;
#X connect 1 0 7 1;
#X connect 2 0 7 0;
#X connect 3 0 6 0;
#X connect 4 0 5 1;
#X connect 5 0 14 1;
#X connect 6 0 2 0;
#X connect 7 0 5 0;
#X connect 8 0 14 0;
#X connect 10 0 3 0;
#X connect 11 0 0 0;
#X connect 13 0 14 2;
#X connect 14 0 9 0;
#X restore 355 215 pd filter;
#X obj 407 177 r OmGen3_res;
#X floatatom 947 -87 5 0 0 0 - - -;
#N canvas 0 22 450 300 !- 0;
#X obj 92 21 inlet;
#X obj 124 240 outlet;
#X floatatom 92 57 5 0 0 0 - - -;
#X obj 124 204 - 1;
#X obj 92 106 trigger b f;
#X obj 82 158 f 1;
#X connect 0 0 2 0;
#X connect 2 0 4 0;
#X connect 3 0 1 0;
#X connect 4 0 5 0;
#X connect 4 1 3 1;
#X connect 5 0 3 0;
#X restore 947 -107 pd !-;
#X obj 741 -101 * 95;
#X obj 1049 -108 * 0.6;
#X obj 20 -127 * 1600;
#X obj 343 -141 * 1600;
#X obj 20 -99 + 78;
#X obj 343 -113 + 78;
#X obj 46 384 *~ 0.3;
#X connect 0 0 48 2;
#X connect 1 0 0 0;
#X connect 2 0 1 0;
#X connect 3 0 99 0;
#X connect 4 0 78 0;
#X connect 5 0 2 0;
#X connect 6 0 100 0;
#X connect 7 0 79 0;
#X connect 9 0 89 1;
#X connect 10 0 9 0;
#X connect 11 0 86 0;
#X connect 12 0 88 0;
#X connect 13 0 98 0;
#X connect 14 0 13 0;
#X connect 15 0 97 0;
#X connect 16 0 15 0;
#X connect 17 0 57 0;
#X connect 18 0 61 0;
#X connect 19 0 96 0;
#X connect 20 0 19 0;
#X connect 21 0 103 1;
#X connect 22 0 17 0;
#X connect 23 0 16 0;
#X connect 24 0 18 0;
#X connect 25 0 20 0;
#X connect 26 0 14 0;
#X connect 27 0 49 0;
#X connect 28 0 49 1;
#X connect 29 0 30 0;
#X connect 30 0 32 0;
#X connect 31 0 47 1;
#X connect 32 0 44 0;
#X connect 32 1 45 0;
#X connect 33 0 41 0;
#X connect 34 0 35 0;
#X connect 35 0 36 0;
#X connect 35 0 37 0;
#X connect 36 0 41 0;
#X connect 38 0 34 0;
#X connect 39 0 31 0;
#X connect 39 0 38 0;
#X connect 41 0 40 0;
#X connect 42 0 31 0;
#X connect 42 0 38 0;
#X connect 43 0 38 0;
#X connect 44 0 33 0;
#X connect 44 1 42 0;
#X connect 44 2 46 0;
#X connect 45 0 39 0;
#X connect 45 1 43 0;
#X connect 46 0 38 0;
#X connect 47 0 50 0;
#X connect 48 0 103 0;
#X connect 49 0 89 0;
#X connect 50 0 8 0;
#X connect 50 1 51 0;
#X connect 52 0 27 0;
#X connect 53 0 52 0;
#X connect 53 0 73 0;
#X connect 54 0 28 0;
#X connect 56 0 92 1;
#X connect 56 0 91 1;
#X connect 57 0 56 0;
#X connect 59 0 11 0;
#X connect 60 0 87 0;
#X connect 61 0 62 0;
#X connect 62 0 63 0;
#X connect 63 0 60 0;
#X connect 65 0 93 1;
#X connect 66 0 65 0;
#X connect 67 0 69 0;
#X connect 68 0 69 1;
#X connect 69 0 93 0;
#X connect 70 0 67 0;
#X connect 71 0 70 0;
#X connect 71 0 80 0;
#X connect 72 0 68 0;
#X connect 73 0 54 0;
#X connect 75 0 76 0;
#X connect 76 0 12 0;
#X connect 77 0 53 0;
#X connect 78 0 10 0;
#X connect 79 0 66 0;
#X connect 80 0 72 0;
#X connect 81 0 71 0;
#X connect 82 0 52 2;
#X connect 82 0 54 2;
#X connect 83 0 54 1;
#X connect 83 0 52 1;
#X connect 84 0 70 2;
#X connect 84 0 72 2;
#X connect 85 0 72 1;
#X connect 85 0 70 1;
#X connect 89 0 92 0;
#X connect 90 0 89 2;
#X connect 91 0 48 1;
#X connect 92 0 48 0;
#X connect 93 0 91 0;
#X connect 94 0 93 2;
#X connect 95 0 75 0;
#X connect 96 0 95 0;
#X connect 97 0 59 0;
#X connect 98 0 21 0;
#X connect 99 0 101 0;
#X connect 100 0 102 0;
#X connect 101 0 77 0;
#X connect 102 0 81 0;
#X connect 103 0 47 0;
#X restore 872 361 pd voice3_________________________________;
#X text 299 -117 speed = odd pitch behaviors (arpeggios) - presets
;
#X text 731 -114 speed = chorus/flange effect - presets;
#X text 1162 -115 speed = pitch drift / cycle freq;
#N canvas 865 22 377 659 suggestedSettings_dc_A 1;
#X msg 20 -198 \; dc1a 0.07 \; dc2a 0.385 \; dc3a 0.5 \; dc4a 0.11
\; dc5a 0.22 \; dc6a 0 \; dc7a 0.173 \; dc8a 0.125 \; dc9a 0.645 \;
dc10a 0.75 \;;
#X msg 105 -198 \; dc1a 0.786 \; dc2a 0.38 \; dc3a 0.5 \; dc4a 0.456
\; dc5a 0.322 \; dc6a 0 \; dc7a 0.125 \; dc8a 0.495 \; dc9a 0.826 \;
dc10a 0.75 \;;
#X msg 190 -198 \; dc1a 0.352 \; dc2a 0.072 \; dc3a 0.5 \; dc4a 0.511
\; dc5a 0.054 \; dc6a 0 \; dc7a 0.393 \; dc8a 0.133 \; dc9a 0.157 \;
dc10a 0.75 \;;
#X msg 274 -198 \; dc1a 1 \; dc2a 0.544 \; dc3a 0.637 \; dc4a 0.48
\; dc5a 0.069 \; dc6a 0 \; dc7a 0.929 \; dc8a 1 \; dc9a 0.763 \; dc10a
0.75 \;;
#X msg 20 -41 \; dc1a 0 \; dc2a 0.125 \; dc3a 0.5 \; dc4a 0.133 \;
dc5a 0 \; dc6a 0.1 \; dc7a 0.094 \; dc8a 0.94 \; dc9a 0.6 \; dc10a
0.75 \;;
#X msg 105 -41 \; dc1a 0 \; dc2a 0.125 \; dc3a 0.5 \; dc4a 0.133 \;
dc5a 0 \; dc6a 0.2 \; dc7a 0.094 \; dc8a 0.94 \; dc9a 0.6 \; dc10a
0.75 \;;
#X msg 190 -41 \; dc1a 0 \; dc2a 0.125 \; dc3a 0.5 \; dc4a 0.133 \;
dc5a 0 \; dc6a 0.3 \; dc7a 0.094 \; dc8a 0.94 \; dc9a 0.6 \; dc10a
0.75 \;;
#X msg 274 -42 \; dc1a 0 \; dc2a 0.125 \; dc3a 0.5 \; dc4a 0.133 \;
dc5a 0 \; dc6a 0.4 \; dc7a 0.094 \; dc8a 0.94 \; dc9a 0.6 \; dc10a
0.75 \;;
#X msg 20 116 \; dc1a 0 \; dc2a 0.51 \; dc3a 0.5 \; dc4a 0 \; dc5a
0.227 \; dc6a 0.5 \; dc7a 0.4 \; dc8a 0.6 \; dc9a 0.16 \; dc10a 0.75
\;;
#X msg 105 116 \; dc1a 0 \; dc2a 0.51 \; dc3a 0.5 \; dc4a 0 \; dc5a
0.227 \; dc6a 0.6 \; dc7a 0.4 \; dc8a 0.6 \; dc9a 0.16 \; dc10a 0.75
\;;
#X msg 190 116 \; dc1a 0 \; dc2a 0.51 \; dc3a 0.5 \; dc4a 0 \; dc5a
0.227 \; dc6a 0.7 \; dc7a 0.4 \; dc8a 0.6 \; dc9a 0.16 \; dc10a 0.75
\;;
#X msg 274 116 \; dc1a 0 \; dc2a 0.51 \; dc3a 0.5 \; dc4a 0 \; dc5a
0.227 \; dc6a 0.8 \; dc7a 0.4 \; dc8a 0.6 \; dc9a 0.16 \; dc10a 0.75
\;;
#X msg 20 272 \; dc1a 0 \; dc2a 0.785 \; dc3a 0.5 \; dc4a 0 \; dc5a
0.518 \; dc6a 0.9 \; dc7a 0.039 \; dc8a 0.346 \; dc9a 0.679 \; dc10a
0.75 \;;
#X msg 105 272 \; dc1a 0 \; dc2a 0.785 \; dc3a 0.5 \; dc4a 0 \; dc5a
0.518 \; dc6a 0.1 \; dc7a 0.039 \; dc8a 0.346 \; dc9a 0.679 \; dc10a
0.75 \;;
#X msg 190 272 \; dc1a 0 \; dc2a 0.785 \; dc3a 0.5 \; dc4a 0 \; dc5a
0.518 \; dc6a 0.11 \; dc7a 0.039 \; dc8a 0.346 \; dc9a 0.679 \; dc10a
0.75 \;;
#X msg 274 272 \; dc1a 0 \; dc2a 0.785 \; dc3a 0.5 \; dc4a 0 \; dc5a
0.518 \; dc6a 12 \; dc7a 0.039 \; dc8a 0.346 \; dc9a 0.679 \; dc10a
0.75 \;;
#X restore 770 -241 pd suggestedSettings_dc_A;
#N canvas 336 22 377 646 suggestedSettings_dc_B 1;
#X msg 20 95 \; dc1b 0.204 \; dc2b 0.094 \; dc3b 0.472 \; dc4b 0.133
\; dc5b 0.275 \; dc6b 0.1 \; dc7b 0.425 \; dc8b 0.085 \; dc9b 0.874
\; dc10b 0.75 \;;
#X msg 105 95 \; dc1b 0.085 \; dc2b 0.495 \; dc3b 0.503 \; dc4b 0.093
\; dc5b 0.125 \; dc6b 0.2 \; dc7b 0.094 \; dc8b 0.132 \; dc9b 1 \;
dc10b 0.75 \;;
#X msg 190 95 \; dc1b 0.423 \; dc2b 0.495 \; dc3b 0.502 \; dc4b 0.699
\; dc5b 0.534 \; dc6b 0.3 \; dc7b 0.897 \; dc8b 0.399 \; dc9b 0.307
\; dc10b 0.75 \;;
#X msg 274 95 \; dc1b 0.06 \; dc2b 0.187 \; dc3b 0.187 \; dc4b 0.748
\; dc5b 0.974 \; dc6b 0.4 \; dc7b 0.046 \; dc8b 0.973 \; dc9b 0.432
\; dc10b 0.75 \;;
#X msg 20 252 \; dc1b 1 \; dc2b 0.108 \; dc3b 0.856 \; dc4b 0.141 \;
dc5b 0.092 \; dc6b 0.5 \; dc7b 0.825 \; dc8b 0.571 \; dc9b 0.715 \;
dc10b 0.75 \;;
#X msg 105 251 \; dc1b 0.141 \; dc2b 0.43 \; dc3b 0.438 \; dc4b 0 \;
dc5b 0.595 \; dc6b 0.6 \; dc7b 0.053 \; dc8b 0.035 \; dc9b 0.864 \;
dc10b 0.75 \;;
#X msg 190 251 \; dc1b 0.66 \; dc2b 0.178 \; dc3b 0.564 \; dc4b 0.086
\; dc5b 0.595 \; dc6b 0.7 \; dc7b 0.927 \; dc8b 0.042 \; dc9b 1 \;
dc10b 0.75 \;;
#X msg 274 251 \; dc1b 0.055 \; dc2b 0.015 \; dc3b 0.501 \; dc4b 0
\; dc5b 0.039 \; dc6b 0.8 \; dc7b 0.171 \; dc8b 0.167 \; dc9b 1 \;
dc10b 0.75 \;;
#X msg 20 407 \; dc1b 0.929 \; dc2b 1 \; dc3b 0.501 \; dc4b 0.748 \;
dc5b 0.866 \; dc6b 0.9 \; dc7b 0 \; dc8b 1 \; dc9b 0.299 \; dc10b 0.75
\;;
#X msg 105 407 \; dc1b 0.015 \; dc2b 1 \; dc3b 0.149 \; dc4b 0.551
\; dc5b 0.653 \; dc6b 1 \; dc7b 0 \; dc8b 0 \; dc9b 0 \; dc10b 0.75
\;;
#X restore 770 -219 pd suggestedSettings_dc_B;
#N canvas 250 22 412 513 suggestedSettings_dc_C 1;
#X msg 105 251 \; dc1c 1 \; dc2c 0.108 \; dc3c 0.856 \; dc4c 0.141
\; dc5c 0.092 \; dc6c 0.5 \; dc7c 0.825 \; dc8c 0.571 \; dc9c 0.715
\; dc10c 0.75 \;;
#X msg 189 250 \; dc1c 0.055 \; dc2c 0.015 \; dc3c 0.501 \; dc4c 0
\; dc5c 0.039 \; dc6c 0.8 \; dc7c 0.171 \; dc8c 0.167 \; dc9c 1 \;
dc10c 0.75 \;;
#X msg 275 251 \; dc1c 0.929 \; dc2c 1 \; dc3c 0.501 \; dc4c 0.748
\; dc5c 0.866 \; dc6c 0.9 \; dc7c 0 \; dc8c 1 \; dc9c 0.299 \; dc10c
0.75 \;;
#X msg 105 95 \; dc1c 0.08 \; dc2c 0.2 \; dc3c 0.1 \; dc4c 0.7 \; dc5c
0.1 \; dc6c 0.1 \; dc7c 0.6 \; dc8c 0.05 \; dc9c 0.6 \; dc10c 0.75
\;;
#X msg 20 95 \; dc1c 0 \; dc2c 0.1 \; dc3c 0.5 \; dc4c 0 \; dc5c 0.2
\; dc6c 0.1 \; dc7c 0.9 \; dc8c 0.4 \; dc9c 0.4 \; dc10c 0.75 \;;
#X msg 190 95 \; dc1c 0 \; dc2c 0.3 \; dc3c 0.5 \; dc4c 0.1 \; dc5c
0.4 \; dc6c 0.15 \; dc7c 0.2 \; dc8c 0.2 \; dc9c 0.1 \; dc10c 0.75
\;;
#X msg 274 95 \; dc1c 0.031 \; dc2c 0.07 \; dc3c 0.501 \; dc4c 0 \;
dc5c 0.078 \; dc6c 0.15 \; dc7c 0 \; dc8c 0.039 \; dc9c 1 \; dc10c
0.75 \;;
#X msg 20 251 \; dc1c 0.07 \; dc2c 0.2 \; dc3c 0.3 \; dc4c 0.14 \;
dc5c 0.6 \; dc6c 0.2 \; dc7c 0.6 \; dc8c 0.05 \; dc9c 0.6 \; dc10c
0.75 \;;
#X restore 770 -197 pd suggestedSettings_dc_C;
#X floatatom 867 -49 5 0 0 0 - - -;
#X floatatom 867 -1 5 0 0 0 - - -;
#X floatatom 868 46 5 0 0 0 - - -;
#X floatatom 867 94 5 0 0 0 - - -;
#X floatatom 867 141 5 0 0 0 - - -;
#X floatatom 868 188 5 0 0 0 - - -;
#X floatatom 867 235 5 0 0 0 - - -;
#X floatatom 867 282 5 0 0 0 - - -;
#X floatatom 868 329 5 0 0 0 - - -;
#X floatatom 435 -49 5 0 0 0 - - -;
#X floatatom 435 0 5 0 0 0 - - -;
#X floatatom 436 47 5 0 0 0 - - -;
#X floatatom 435 95 5 0 0 0 - - -;
#X floatatom 435 142 5 0 0 0 - - -;
#X floatatom 436 189 5 0 0 0 - - -;
#X floatatom 435 236 5 0 0 0 - - -;
#X floatatom 435 283 5 0 0 0 - - -;
#X floatatom 436 330 5 0 0 0 - - -;
#X floatatom 1299 -50 5 0 0 0 - - -;
#X floatatom 1299 -2 5 0 0 0 - - -;
#X floatatom 1300 45 5 0 0 0 - - -;
#X floatatom 1299 93 5 0 0 0 - - -;
#X floatatom 1299 140 5 0 0 0 - - -;
#X floatatom 1300 187 5 0 0 0 - - -;
#X floatatom 1299 234 5 0 0 0 - - -;
#X floatatom 1299 281 5 0 0 0 - - -;
#X floatatom 1300 328 5 0 0 0 - - -;
#X text 211 480 patch: Shawn Greenlee for Fluxama's Dr-Om (August 10
\, 2012);
#X connect 1 0 24 10;
#X connect 2 0 0 0;
#X connect 3 0 2 0;
#X connect 4 0 23 0;
#X connect 5 0 4 0;
#X connect 6 0 4 0;
#X connect 7 0 4 0;
#X connect 8 0 4 0;
#X connect 9 0 18 0;
#X connect 10 0 9 0;
#X connect 11 0 9 0;
#X connect 12 0 19 0;
#X connect 13 0 12 0;
#X connect 14 0 12 0;
#X connect 15 0 20 0;
#X connect 16 0 15 0;
#X connect 17 0 15 0;
#X connect 21 0 1 0;
#X connect 22 0 4 0;
#X connect 23 0 11 0;
#X connect 23 0 16 0;
#X connect 23 0 13 0;
#X connect 23 1 14 0;
#X connect 23 1 16 0;
#X connect 23 1 10 0;
#X connect 23 2 17 0;
#X connect 23 2 13 0;
#X connect 23 2 10 0;
#X connect 23 3 16 0;
#X connect 23 3 13 0;
#X connect 23 3 10 0;
#X connect 24 0 3 0;
#X connect 24 1 90 0;
#X connect 25 0 24 0;
#X connect 25 0 108 0;
#X connect 26 0 25 0;
#X connect 27 0 24 2;
#X connect 27 0 110 0;
#X connect 28 0 24 1;
#X connect 28 0 109 0;
#X connect 29 0 28 0;
#X connect 30 0 27 0;
#X connect 31 0 24 3;
#X connect 31 0 111 0;
#X connect 32 0 24 4;
#X connect 32 0 112 0;
#X connect 33 0 31 0;
#X connect 34 0 32 0;
#X connect 35 0 24 5;
#X connect 35 0 113 0;
#X connect 36 0 24 7;
#X connect 36 0 115 0;
#X connect 37 0 24 6;
#X connect 37 0 114 0;
#X connect 38 0 24 8;
#X connect 38 0 116 0;
#X connect 39 0 24 9;
#X connect 40 0 35 0;
#X connect 41 0 37 0;
#X connect 42 0 36 0;
#X connect 43 0 38 0;
#X connect 44 0 39 0;
#X connect 45 0 91 0;
#X connect 45 0 99 0;
#X connect 46 0 91 2;
#X connect 46 0 101 0;
#X connect 47 0 91 1;
#X connect 47 0 100 0;
#X connect 48 0 91 3;
#X connect 48 0 102 0;
#X connect 49 0 91 4;
#X connect 49 0 103 0;
#X connect 50 0 91 5;
#X connect 50 0 104 0;
#X connect 51 0 91 7;
#X connect 51 0 106 0;
#X connect 52 0 91 6;
#X connect 52 0 105 0;
#X connect 53 0 91 8;
#X connect 53 0 107 0;
#X connect 54 0 91 9;
#X connect 55 0 45 0;
#X connect 56 0 47 0;
#X connect 57 0 46 0;
#X connect 58 0 48 0;
#X connect 59 0 49 0;
#X connect 60 0 50 0;
#X connect 61 0 52 0;
#X connect 62 0 51 0;
#X connect 63 0 53 0;
#X connect 64 0 54 0;
#X connect 65 0 92 0;
#X connect 65 0 117 0;
#X connect 66 0 92 2;
#X connect 66 0 119 0;
#X connect 67 0 92 1;
#X connect 67 0 118 0;
#X connect 68 0 92 3;
#X connect 68 0 120 0;
#X connect 69 0 92 4;
#X connect 69 0 121 0;
#X connect 70 0 92 5;
#X connect 70 0 122 0;
#X connect 71 0 92 7;
#X connect 71 0 124 0;
#X connect 72 0 92 6;
#X connect 73 0 92 8;
#X connect 73 0 125 0;
#X connect 74 0 92 9;
#X connect 75 0 65 0;
#X connect 76 0 67 0;
#X connect 77 0 66 0;
#X connect 78 0 68 0;
#X connect 79 0 69 0;
#X connect 80 0 70 0;
#X connect 81 0 72 0;
#X connect 82 0 71 0;
#X connect 83 0 73 0;
#X connect 84 0 74 0;
#X connect 85 0 91 10;
#X connect 86 0 92 10;
#X connect 87 0 85 0;
#X connect 88 0 86 0;
#X connect 89 0 0 1;
#X connect 90 0 89 0;
#X connect 91 0 3 0;
#X connect 91 1 90 0;
#X connect 92 0 3 0;
#X connect 92 1 90 0;
