#N canvas 44 24 1395 816 10;
#X obj 636 500 dac~;
#X obj 257 336 tgl 15 0 empty empty empty 17 7 0 10 -262144 -1 -1 1
1;
#X obj 636 446 clip~ -1 1;
#X obj 636 411 hip~ 1;
#X floatatom 268 -227 5 0 0 0 - - -;
#X msg 268 -266 1;
#X msg 298 -266 2;
#X msg 328 -266 3;
#X obj 189 -267 r kit_number;
#X floatatom 50 -76 5 0 0 0 - - -;
#X msg 79 -113 0;
#X msg 50 -113 1;
#X floatatom 111 -76 5 0 0 0 - - -;
#X msg 140 -113 0;
#X msg 111 -113 1;
#X floatatom 172 -76 5 0 0 0 - - -;
#X msg 201 -113 0;
#X msg 172 -113 1;
#X obj 50 -49 s dsp1;
#X obj 111 -49 s dsp2;
#X obj 172 -49 s dsp3;
#X obj 257 315 r dsp1;
#X msg 359 -266 0;
#X obj 199 -181 select 1 2 3 0;
#N canvas 122 22 1335 800 voice1_________________________________ 0
;
#N canvas 0 22 450 300 !- 0;
#X obj 92 21 inlet;
#X obj 124 240 outlet;
#X floatatom 92 57 5 0 0 0 - - -;
#X obj 124 204 - 1;
#X obj 92 106 trigger b f;
#X obj 82 158 f 1;
#X connect 0 0 2 0;
#X connect 2 0 4 0;
#X connect 3 0 1 0;
#X connect 4 0 5 0;
#X connect 4 1 3 1;
#X connect 5 0 3 0;
#X restore 267 27 pd !-;
#X floatatom 267 -6 5 0 0 0 - - -;
#X floatatom 267 55 5 0 0 0 - - -;
#X obj 20 215 +~;
#X floatatom 267 -60 5 0 0 0 - - -;
#N canvas 0 22 450 300 !- 0;
#X obj 92 21 inlet;
#X obj 124 240 outlet;
#X floatatom 92 57 5 0 0 0 - - -;
#X obj 124 204 - 1;
#X obj 92 106 trigger b f;
#X obj 82 158 f 1;
#X connect 0 0 2 0;
#X connect 2 0 4 0;
#X connect 3 0 1 0;
#X connect 4 0 5 0;
#X connect 4 1 3 1;
#X connect 5 0 3 0;
#X restore 267 -35 pd !-;
#X obj 267 -88 line;
#X obj 267 -116 pack f 200;
#X obj 20 -144 inlet;
#X obj 120 -144 inlet;
#X obj 267 -144 inlet;
#X obj 366 -144 inlet;
#X obj 466 -144 inlet;
#X obj 20 578 outlet~;
#X obj 20 -100 * 500;
#X floatatom 20 -44 5 0 0 0 - - -;
#X floatatom 120 -43 5 0 0 0 - - -;
#X obj 20 157 *~;
#X obj 367 -96 * 500;
#X floatatom 367 -40 5 0 0 0 - - -;
#X floatatom 467 -39 5 0 0 0 - - -;
#X obj 367 161 *~;
#X obj 120 -70 + 0.001;
#X obj 467 -66 + 0.001;
#X obj 642 83 +~;
#X text 1005 -40 <-- Q (selectivity);
#X text 685 -14 <-- sweep speed;
#X text 793 -45 <-- sweep depth;
#X text 902 18 <-- base center frequency;
#X obj 641 3 phasor~;
#X obj 642 54 *~;
#X floatatom 641 -25 5 0 0 0 - - -;
#X floatatom 741 -42 5 0 0 0 - - -;
#X floatatom 844 19 5 0 0 0 - - -;
#X floatatom 947 -37 5 0 0 0 - - -;
#X obj 1049 -130 line;
#X obj 1049 -159 pack f 200;
#X obj 741 -130 line;
#X obj 741 -159 pack f 200;
#X obj 641 -130 line;
#X obj 641 -159 pack f 200;
#X obj 845 -130 line;
#X obj 846 -159 pack f 200;
#X obj 947 -130 line;
#X obj 947 -159 pack f 200;
#X floatatom 1050 -18 5 0 0 0 - - -;
#X obj 84 474 *~ 0.4;
#X obj 641 -187 inlet;
#X obj 741 -187 inlet;
#X obj 846 -187 inlet;
#X obj 947 -187 inlet;
#X obj 1049 -187 inlet;
#X obj 741 -101 * 50;
#X obj 641 -101 * -20;
#X obj 641 -73 + 0;
#X obj 845 -71 + 0;
#N canvas 617 22 744 726 sqTrem 0;
#X floatatom 58 49 5 0 0 0 - - -;
#X obj 489 177 osc~;
#X obj 489 149 line~;
#X obj 489 121 pack f 200;
#X floatatom 489 96 10 0 0 0 - - -;
#X obj 489 205 *~ 0.5;
#X obj 489 58 inlet;
#X obj 58 14 inlet;
#X obj 60 529 outlet~;
#X obj 58 200 phasor~;
#X obj 136 141 * -1;
#X obj 136 200 phasor~;
#X obj 257 77 r phasesynch;
#X obj 257 110 bng 15 250 50 0 empty empty empty 17 7 0 10 -262144
-1 -1;
#X msg 257 139 0;
#X msg 310 139 0.5;
#X obj 58 278 +~;
#X obj 58 306 -~ 1;
#X obj 60 469 *~;
#X connect 0 0 9 0;
#X connect 0 0 10 0;
#X connect 1 0 5 0;
#X connect 2 0 1 0;
#X connect 3 0 2 0;
#X connect 4 0 3 0;
#X connect 5 0 18 1;
#X connect 6 0 4 0;
#X connect 7 0 0 0;
#X connect 9 0 16 0;
#X connect 10 0 11 0;
#X connect 11 0 16 1;
#X connect 12 0 13 0;
#X connect 13 0 14 0;
#X connect 13 0 15 0;
#X connect 14 0 9 1;
#X connect 15 0 11 1;
#X connect 16 0 17 0;
#X connect 17 0 18 0;
#X connect 18 0 8 0;
#X restore 20 56 pd sqTrem;
#X obj 20 -72 + 80;
#N canvas 617 22 744 726 sqTrem 0;
#X floatatom 58 49 5 0 0 0 - - -;
#X obj 489 177 osc~;
#X obj 489 149 line~;
#X obj 489 121 pack f 200;
#X floatatom 489 96 10 0 0 0 - - -;
#X obj 489 205 *~ 0.5;
#X obj 489 58 inlet;
#X obj 58 14 inlet;
#X obj 60 529 outlet~;
#X obj 58 200 phasor~;
#X obj 136 141 * -1;
#X obj 136 200 phasor~;
#X obj 257 77 r phasesynch;
#X obj 257 110 bng 15 250 50 0 empty empty empty 17 7 0 10 -262144
-1 -1;
#X msg 257 139 0;
#X msg 310 139 0.5;
#X obj 58 278 +~;
#X obj 58 306 -~ 1;
#X obj 60 469 *~;
#X connect 0 0 9 0;
#X connect 0 0 10 0;
#X connect 1 0 5 0;
#X connect 2 0 1 0;
#X connect 3 0 2 0;
#X connect 4 0 3 0;
#X connect 5 0 18 1;
#X connect 6 0 4 0;
#X connect 7 0 0 0;
#X connect 9 0 16 0;
#X connect 10 0 11 0;
#X connect 11 0 16 1;
#X connect 12 0 13 0;
#X connect 13 0 14 0;
#X connect 13 0 15 0;
#X connect 14 0 9 1;
#X connect 15 0 11 1;
#X connect 16 0 17 0;
#X connect 17 0 18 0;
#X connect 18 0 8 0;
#X restore 376 32 pd sqTrem;
#X obj 367 -68 + 80;
#X obj 57 306 vcf~;
#N canvas 0 22 450 300 !- 0;
#X obj 92 21 inlet;
#X obj 124 240 outlet;
#X floatatom 92 57 5 0 0 0 - - -;
#X obj 124 204 - 1;
#X obj 92 106 trigger b f;
#X obj 82 158 f 1;
#X connect 0 0 2 0;
#X connect 2 0 4 0;
#X connect 3 0 1 0;
#X connect 4 0 5 0;
#X connect 4 1 3 1;
#X connect 5 0 3 0;
#X restore 947 -101 pd !-;
#X obj 741 -71 + 20;
#X obj 947 -73 + 0.1;
#X obj 73 270 tabread4~ mtof;
#X obj 845 -101 * 40;
#N canvas 617 22 744 726 sqTrem 0;
#X floatatom 58 49 5 0 0 0 - - -;
#X obj 489 177 osc~;
#X obj 489 149 line~;
#X obj 489 121 pack f 200;
#X floatatom 489 96 10 0 0 0 - - -;
#X obj 489 205 *~ 0.5;
#X obj 489 58 inlet;
#X obj 58 14 inlet;
#X obj 60 529 outlet~;
#X obj 58 200 phasor~;
#X obj 136 141 * -1;
#X obj 136 200 phasor~;
#X obj 257 77 r phasesynch;
#X obj 257 110 bng 15 250 50 0 empty empty empty 17 7 0 10 -262144
-1 -1;
#X msg 257 139 0;
#X msg 310 139 0.5;
#X obj 58 278 +~;
#X obj 58 306 -~ 1;
#X obj 60 469 *~;
#X connect 0 0 9 0;
#X connect 0 0 10 0;
#X connect 1 0 5 0;
#X connect 2 0 1 0;
#X connect 3 0 2 0;
#X connect 4 0 3 0;
#X connect 5 0 18 1;
#X connect 6 0 4 0;
#X connect 7 0 0 0;
#X connect 9 0 16 0;
#X connect 10 0 11 0;
#X connect 11 0 16 1;
#X connect 12 0 13 0;
#X connect 13 0 14 0;
#X connect 13 0 15 0;
#X connect 14 0 9 1;
#X connect 15 0 11 1;
#X connect 16 0 17 0;
#X connect 17 0 18 0;
#X connect 18 0 8 0;
#X restore 113 55 pd sqTrem;
#X obj 52 3 * 1.3;
#N canvas 617 22 744 726 sqTrem 0;
#X floatatom 58 49 5 0 0 0 - - -;
#X obj 489 177 osc~;
#X obj 489 149 line~;
#X obj 489 121 pack f 200;
#X floatatom 489 96 10 0 0 0 - - -;
#X obj 489 205 *~ 0.5;
#X obj 489 58 inlet;
#X obj 58 14 inlet;
#X obj 60 529 outlet~;
#X obj 58 200 phasor~;
#X obj 136 141 * -1;
#X obj 136 200 phasor~;
#X obj 257 77 r phasesynch;
#X obj 257 110 bng 15 250 50 0 empty empty empty 17 7 0 10 -262144
-1 -1;
#X msg 257 139 0;
#X msg 310 139 0.5;
#X obj 58 278 +~;
#X obj 58 306 -~ 1;
#X obj 60 469 *~;
#X connect 0 0 9 0;
#X connect 0 0 10 0;
#X connect 1 0 5 0;
#X connect 2 0 1 0;
#X connect 3 0 2 0;
#X connect 4 0 3 0;
#X connect 5 0 18 1;
#X connect 6 0 4 0;
#X connect 7 0 0 0;
#X connect 9 0 16 0;
#X connect 10 0 11 0;
#X connect 11 0 16 1;
#X connect 12 0 13 0;
#X connect 13 0 14 0;
#X connect 13 0 15 0;
#X connect 14 0 9 1;
#X connect 15 0 11 1;
#X connect 16 0 17 0;
#X connect 17 0 18 0;
#X connect 18 0 8 0;
#X restore 463 31 pd sqTrem;
#X obj 20 101 *~ 0.7;
#X obj 87 101 *~ 0.5;
#X obj 362 82 *~ 0.7;
#X obj 429 82 *~ 0.5;
#X obj 428 -9 * 1.2;
#X obj 467 -95 * 1;
#X obj 120 -99 * 2;
#X obj 1197 -181 inlet;
#X obj 1174 -101 tgl 15 0 empty empty empty 17 7 0 10 -262144 -1 -1
1 1;
#X obj 1194 38 vline~;
#X obj 1165 -71 select 1;
#X msg 1165 7 1;
#X floatatom 1281 87 5 0 0 0 - - -;
#X obj 1281 110 select 0;
#X msg 1281 138 0;
#X obj 1211 117 bng 15 250 50 0 empty empty empty 17 7 0 10 -262144
-1 -1;
#X obj 1281 60 line;
#X msg 1194 6 0 500;
#X obj 1165 180 switch~;
#X floatatom 1165 150 5 0 0 0 - - -;
#X msg 1237 6 1 500;
#X msg 1331 7 1 500;
#X obj 1165 -27 t b b b;
#X obj 1222 -28 t b b b;
#X msg 1283 7 0 1500;
#X obj 83 503 *~;
#X connect 0 0 2 0;
#X connect 1 0 0 0;
#X connect 1 0 17 1;
#X connect 2 0 21 1;
#X connect 3 0 60 0;
#X connect 4 0 5 0;
#X connect 5 0 1 0;
#X connect 6 0 4 0;
#X connect 7 0 6 0;
#X connect 8 0 14 0;
#X connect 9 0 75 0;
#X connect 10 0 7 0;
#X connect 11 0 18 0;
#X connect 12 0 74 0;
#X connect 14 0 57 0;
#X connect 15 0 56 0;
#X connect 15 0 67 0;
#X connect 16 0 56 1;
#X connect 16 0 66 1;
#X connect 17 0 3 0;
#X connect 18 0 59 0;
#X connect 19 0 58 0;
#X connect 19 0 73 0;
#X connect 20 0 68 1;
#X connect 20 0 58 1;
#X connect 21 0 3 1;
#X connect 22 0 16 0;
#X connect 23 0 20 0;
#X connect 24 0 64 0;
#X connect 29 0 30 0;
#X connect 30 0 24 0;
#X connect 31 0 29 0;
#X connect 32 0 30 1;
#X connect 33 0 24 1;
#X connect 34 0 60 2;
#X connect 35 0 45 0;
#X connect 36 0 35 0;
#X connect 37 0 52 0;
#X connect 38 0 37 0;
#X connect 39 0 53 0;
#X connect 40 0 39 0;
#X connect 41 0 65 0;
#X connect 42 0 41 0;
#X connect 43 0 61 0;
#X connect 44 0 43 0;
#X connect 45 0 46 1;
#X connect 46 0 94 0;
#X connect 47 0 40 0;
#X connect 48 0 38 0;
#X connect 49 0 42 0;
#X connect 50 0 44 0;
#X connect 51 0 36 0;
#X connect 52 0 62 0;
#X connect 53 0 54 0;
#X connect 54 0 31 0;
#X connect 55 0 33 0;
#X connect 56 0 69 0;
#X connect 57 0 15 0;
#X connect 58 0 71 0;
#X connect 59 0 19 0;
#X connect 60 0 46 0;
#X connect 61 0 63 0;
#X connect 62 0 32 0;
#X connect 63 0 34 0;
#X connect 64 0 60 1;
#X connect 65 0 55 0;
#X connect 66 0 70 0;
#X connect 67 0 66 0;
#X connect 68 0 72 0;
#X connect 69 0 17 0;
#X connect 70 0 17 0;
#X connect 71 0 21 0;
#X connect 72 0 21 0;
#X connect 73 0 68 0;
#X connect 74 0 23 0;
#X connect 75 0 22 0;
#X connect 76 0 77 0;
#X connect 77 0 79 0;
#X connect 78 0 94 1;
#X connect 79 0 91 0;
#X connect 79 1 92 0;
#X connect 80 0 88 0;
#X connect 81 0 82 0;
#X connect 82 0 83 0;
#X connect 82 0 84 0;
#X connect 83 0 88 0;
#X connect 85 0 81 0;
#X connect 86 0 78 0;
#X connect 86 0 85 0;
#X connect 88 0 87 0;
#X connect 89 0 78 0;
#X connect 89 0 85 0;
#X connect 90 0 85 0;
#X connect 91 0 80 0;
#X connect 91 1 89 0;
#X connect 91 2 93 0;
#X connect 92 0 86 0;
#X connect 92 1 90 0;
#X connect 93 0 85 0;
#X connect 94 0 13 0;
#X restore 8 362 pd voice1_________________________________;
#N canvas 0 22 612 404 conversion-tables 0;
#N canvas 0 22 450 300 (subpatch) 0;
#X array mtof 130 float 1;
#A 0 8.1758 8.66196 9.17702 9.72272 10.3009 10.9134 11.5623 12.2499
12.9783 13.75 14.5676 15.4339 16.3516 17.3239 18.354 19.4454 20.6017
21.8268 23.1247 24.4997 25.9565 27.5 29.1352 30.8677 32.7032 34.6478
36.7081 38.8909 41.2034 43.6535 46.2493 48.9994 51.9131 55 58.2705
61.7354 65.4064 69.2957 73.4162 77.7817 82.4069 87.3071 92.4986 97.9989
103.826 110 116.541 123.471 130.813 138.591 146.832 155.563 164.814
174.614 184.997 195.998 207.652 220 233.082 246.942 261.626 277.183
293.665 311.127 329.628 349.228 369.994 391.995 415.305 440 466.164
493.883 523.251 554.365 587.33 622.254 659.255 698.456 739.989 783.991
830.609 880 932.328 987.767 1046.5 1108.73 1174.66 1244.51 1318.51
1396.91 1479.98 1567.98 1661.22 1760 1864.66 1975.53 2093 2217.46 2349.32
2489.02 2637.02 2793.83 2959.96 3135.96 3322.44 3520 3729.31 3951.07
4186.01 4434.92 4698.64 4978.03 5274.04 5587.65 5919.91 6271.93 6644.88
7040 7458.62 7902.13 8372.02 8869.84 9397.27 9956.06 10548.1 11175.3
11839.8 12543.9 13289.8 14080;
#X coords 0 12000 130 0 200 100 1;
#X restore 309 225 graph;
#X text 319 333 ------ 130 samples ------;
#X text 518 318 0;
#X text 520 218 12000;
#X restore 476 -225 pd conversion-tables;
#X obj 606 -145 s phasesynch;
#X obj 606 -187 bng 15 250 50 0 empty empty empty 17 7 0 10 -262144
-1 -1;
#X obj 606 -225 loadbang;
#X obj 304 -63 hsl 128 15 0 1 0 0 empty empty empty -2 -8 0 10 -262144
-1 -1 4400 1;
#X obj 301 -91 r dc1a;
#X obj 304 32 hsl 128 15 0 1 0 0 empty empty empty -2 -8 0 10 -262144
-1 -1 6100 1;
#X obj 304 -15 hsl 128 15 0 1 0 0 empty empty empty -2 -8 0 10 -262144
-1 -1 1600 1;
#X obj 301 -43 r dc2a;
#X obj 301 4 r dc3a;
#X obj 304 80 hsl 128 15 0 1 0 0 empty empty empty -2 -8 0 10 -262144
-1 -1 8300 1;
#X obj 304 127 hsl 128 15 0 1 0 0 empty empty empty -2 -8 0 10 -262144
-1 -1 1300 1;
#X obj 301 52 r dc4a;
#X obj 301 99 r dc5a;
#X obj 305 174 hsl 128 15 0 1 0 0 empty empty empty -2 -8 0 10 -262144
-1 -1 1100 1;
#X obj 305 268 hsl 128 15 0 1 0 0 empty empty empty -2 -8 0 10 -262144
-1 -1 1500 1;
#X obj 305 221 hsl 128 15 0 1 0 0 empty empty empty -2 -8 0 10 -262144
-1 -1 10900 1;
#X obj 305 315 hsl 128 15 0 1 0 0 empty empty empty -2 -8 0 10 -262144
-1 -1 10200 1;
#X obj 305 362 hsl 128 15 0 1 0 0 empty empty empty -2 -8 0 10 -262144
-1 -1 12700 1;
#X obj 302 146 r dc6a;
#X obj 302 193 r dc7a;
#X obj 302 240 r dc8a;
#X obj 302 287 r dc9a;
#X obj 302 334 r dc10a;
#X obj 736 -64 hsl 128 15 0 1 0 0 empty empty empty -2 -8 0 10 -262144
-1 -1 6700 1;
#X obj 736 31 hsl 128 15 0 1 0 0 empty empty empty -2 -8 0 10 -262144
-1 -1 8900 1;
#X obj 736 -16 hsl 128 15 0 1 0 0 empty empty empty -2 -8 0 10 -262144
-1 -1 2500 1;
#X obj 736 79 hsl 128 15 0 1 0 0 empty empty empty -2 -8 0 10 -262144
-1 -1 3500 1;
#X obj 736 126 hsl 128 15 0 1 0 0 empty empty empty -2 -8 0 10 -262144
-1 -1 6800 1;
#X obj 737 173 hsl 128 15 0 1 0 0 empty empty empty -2 -8 0 10 -262144
-1 -1 5100 1;
#X obj 737 267 hsl 128 15 0 1 0 0 empty empty empty -2 -8 0 10 -262144
-1 -1 5000 1;
#X obj 737 220 hsl 128 15 0 1 0 0 empty empty empty -2 -8 0 10 -262144
-1 -1 6100 1;
#X obj 737 314 hsl 128 15 0 1 0 0 empty empty empty -2 -8 0 10 -262144
-1 -1 5000 1;
#X obj 737 361 hsl 128 15 0 1 0 0 empty empty empty -2 -8 0 10 -262144
-1 -1 12700 1;
#X obj 733 -92 r dc1b;
#X obj 733 -44 r dc2b;
#X obj 733 3 r dc3b;
#X obj 733 51 r dc4b;
#X obj 733 98 r dc5b;
#X obj 734 145 r dc6b;
#X obj 734 192 r dc7b;
#X obj 734 239 r dc8b;
#X obj 734 286 r dc9b;
#X obj 734 333 r dc10b;
#X obj 1168 -65 hsl 128 15 0 1 0 0 empty empty empty -2 -8 0 10 -262144
-1 -1 3700 1;
#X obj 1168 30 hsl 128 15 0 1 0 0 empty empty empty -2 -8 0 10 -262144
-1 -1 7500 1;
#X obj 1168 -17 hsl 128 15 0 1 0 0 empty empty empty -2 -8 0 10 -262144
-1 -1 10700 1;
#X obj 1168 78 hsl 128 15 0 1 0 0 empty empty empty -2 -8 0 10 -262144
-1 -1 6100 1;
#X obj 1168 125 hsl 128 15 0 1 0 0 empty empty empty -2 -8 0 10 -262144
-1 -1 1300 1;
#X obj 1169 172 hsl 128 15 0 1 0 0 empty empty empty -2 -8 0 10 -262144
-1 -1 0 1;
#X obj 1169 266 hsl 128 15 0 1 0 0 empty empty empty -2 -8 0 10 -262144
-1 -1 1500 1;
#X obj 1169 219 hsl 128 15 0 1 0 0 empty empty empty -2 -8 0 10 -262144
-1 -1 12700 1;
#X obj 1169 313 hsl 128 15 0 1 0 0 empty empty empty -2 -8 0 10 -262144
-1 -1 9500 1;
#X obj 1169 360 hsl 128 15 0 1 0 0 empty empty empty -2 -8 0 10 -262144
-1 -1 12700 1;
#X obj 1165 -93 r dc1c;
#X obj 1165 -45 r dc2c;
#X obj 1165 2 r dc3c;
#X obj 1165 50 r dc4c;
#X obj 1165 97 r dc5c;
#X obj 1166 144 r dc6c;
#X obj 1166 191 r dc7c;
#X obj 1166 238 r dc8c;
#X obj 1166 285 r dc9c;
#X obj 1166 332 r dc10c;
#X obj 689 336 tgl 15 0 empty empty empty 17 7 0 10 -262144 -1 -1 0
1;
#X obj 1121 335 tgl 15 0 empty empty empty 17 7 0 10 -262144 -1 -1
0 1;
#X obj 689 314 r dsp2;
#X obj 1121 314 r dsp3;
#N canvas 122 22 1335 800 voice2_________________________________ 0
;
#N canvas 0 22 450 300 !- 0;
#X obj 92 21 inlet;
#X obj 124 240 outlet;
#X floatatom 92 57 5 0 0 0 - - -;
#X obj 124 204 - 1;
#X obj 92 106 trigger b f;
#X obj 82 158 f 1;
#X connect 0 0 2 0;
#X connect 2 0 4 0;
#X connect 3 0 1 0;
#X connect 4 0 5 0;
#X connect 4 1 3 1;
#X connect 5 0 3 0;
#X restore 267 27 pd !-;
#X floatatom 267 -6 5 0 0 0 - - -;
#X floatatom 267 55 5 0 0 0 - - -;
#X obj 20 215 +~;
#X floatatom 267 -60 5 0 0 0 - - -;
#N canvas 0 22 450 300 !- 0;
#X obj 92 21 inlet;
#X obj 124 240 outlet;
#X floatatom 92 57 5 0 0 0 - - -;
#X obj 124 204 - 1;
#X obj 92 106 trigger b f;
#X obj 82 158 f 1;
#X connect 0 0 2 0;
#X connect 2 0 4 0;
#X connect 3 0 1 0;
#X connect 4 0 5 0;
#X connect 4 1 3 1;
#X connect 5 0 3 0;
#X restore 267 -35 pd !-;
#X obj 267 -88 line;
#X obj 267 -116 pack f 200;
#X obj 20 -144 inlet;
#X obj 120 -144 inlet;
#X obj 267 -144 inlet;
#X obj 366 -144 inlet;
#X obj 466 -144 inlet;
#X obj 20 578 outlet~;
#X obj 20 -100 * 500;
#X floatatom 20 -44 5 0 0 0 - - -;
#X floatatom 120 -43 5 0 0 0 - - -;
#X obj 20 157 *~;
#X obj 367 -96 * 500;
#X floatatom 367 -40 5 0 0 0 - - -;
#X floatatom 467 -39 5 0 0 0 - - -;
#X obj 367 161 *~;
#X obj 120 -70 + 0.001;
#X obj 467 -66 + 0.001;
#X obj 642 83 +~;
#X text 1005 -40 <-- Q (selectivity);
#X text 685 -14 <-- sweep speed;
#X text 793 -45 <-- sweep depth;
#X text 902 18 <-- base center frequency;
#X obj 641 3 phasor~;
#X obj 642 54 *~;
#X floatatom 641 -25 5 0 0 0 - - -;
#X floatatom 741 -42 5 0 0 0 - - -;
#X floatatom 844 19 5 0 0 0 - - -;
#X floatatom 947 -37 5 0 0 0 - - -;
#X obj 1049 -130 line;
#X obj 1049 -159 pack f 200;
#X obj 741 -130 line;
#X obj 741 -159 pack f 200;
#X obj 641 -130 line;
#X obj 641 -159 pack f 200;
#X obj 845 -130 line;
#X obj 846 -159 pack f 200;
#X obj 947 -130 line;
#X obj 947 -159 pack f 200;
#X floatatom 1050 -18 5 0 0 0 - - -;
#X obj 84 474 *~ 0.4;
#X obj 641 -187 inlet;
#X obj 741 -187 inlet;
#X obj 846 -187 inlet;
#X obj 947 -187 inlet;
#X obj 1049 -187 inlet;
#X obj 741 -101 * 50;
#X obj 641 -101 * -20;
#X obj 641 -73 + 0;
#X obj 845 -71 + 0;
#N canvas 617 22 744 726 sqTrem 0;
#X floatatom 58 49 5 0 0 0 - - -;
#X obj 489 177 osc~;
#X obj 489 149 line~;
#X obj 489 121 pack f 200;
#X floatatom 489 96 10 0 0 0 - - -;
#X obj 489 205 *~ 0.5;
#X obj 489 58 inlet;
#X obj 58 14 inlet;
#X obj 60 529 outlet~;
#X obj 58 200 phasor~;
#X obj 136 141 * -1;
#X obj 136 200 phasor~;
#X obj 257 77 r phasesynch;
#X obj 257 110 bng 15 250 50 0 empty empty empty 17 7 0 10 -262144
-1 -1;
#X msg 257 139 0;
#X msg 310 139 0.5;
#X obj 58 278 +~;
#X obj 58 306 -~ 1;
#X obj 60 469 *~;
#X connect 0 0 9 0;
#X connect 0 0 10 0;
#X connect 1 0 5 0;
#X connect 2 0 1 0;
#X connect 3 0 2 0;
#X connect 4 0 3 0;
#X connect 5 0 18 1;
#X connect 6 0 4 0;
#X connect 7 0 0 0;
#X connect 9 0 16 0;
#X connect 10 0 11 0;
#X connect 11 0 16 1;
#X connect 12 0 13 0;
#X connect 13 0 14 0;
#X connect 13 0 15 0;
#X connect 14 0 9 1;
#X connect 15 0 11 1;
#X connect 16 0 17 0;
#X connect 17 0 18 0;
#X connect 18 0 8 0;
#X restore 20 56 pd sqTrem;
#X obj 20 -72 + 80;
#N canvas 617 22 744 726 sqTrem 0;
#X floatatom 58 49 5 0 0 0 - - -;
#X obj 489 177 osc~;
#X obj 489 149 line~;
#X obj 489 121 pack f 200;
#X floatatom 489 96 10 0 0 0 - - -;
#X obj 489 205 *~ 0.5;
#X obj 489 58 inlet;
#X obj 58 14 inlet;
#X obj 60 529 outlet~;
#X obj 58 200 phasor~;
#X obj 136 141 * -1;
#X obj 136 200 phasor~;
#X obj 257 77 r phasesynch;
#X obj 257 110 bng 15 250 50 0 empty empty empty 17 7 0 10 -262144
-1 -1;
#X msg 257 139 0;
#X msg 310 139 0.5;
#X obj 58 278 +~;
#X obj 58 306 -~ 1;
#X obj 60 469 *~;
#X connect 0 0 9 0;
#X connect 0 0 10 0;
#X connect 1 0 5 0;
#X connect 2 0 1 0;
#X connect 3 0 2 0;
#X connect 4 0 3 0;
#X connect 5 0 18 1;
#X connect 6 0 4 0;
#X connect 7 0 0 0;
#X connect 9 0 16 0;
#X connect 10 0 11 0;
#X connect 11 0 16 1;
#X connect 12 0 13 0;
#X connect 13 0 14 0;
#X connect 13 0 15 0;
#X connect 14 0 9 1;
#X connect 15 0 11 1;
#X connect 16 0 17 0;
#X connect 17 0 18 0;
#X connect 18 0 8 0;
#X restore 376 32 pd sqTrem;
#X obj 367 -68 + 80;
#X obj 57 306 vcf~;
#N canvas 0 22 450 300 !- 0;
#X obj 92 21 inlet;
#X obj 124 240 outlet;
#X floatatom 92 57 5 0 0 0 - - -;
#X obj 124 204 - 1;
#X obj 92 106 trigger b f;
#X obj 82 158 f 1;
#X connect 0 0 2 0;
#X connect 2 0 4 0;
#X connect 3 0 1 0;
#X connect 4 0 5 0;
#X connect 4 1 3 1;
#X connect 5 0 3 0;
#X restore 947 -101 pd !-;
#X obj 741 -71 + 20;
#X obj 947 -73 + 0.1;
#X obj 73 270 tabread4~ mtof;
#X obj 845 -101 * 40;
#N canvas 617 22 744 726 sqTrem 0;
#X floatatom 58 49 5 0 0 0 - - -;
#X obj 489 177 osc~;
#X obj 489 149 line~;
#X obj 489 121 pack f 200;
#X floatatom 489 96 10 0 0 0 - - -;
#X obj 489 205 *~ 0.5;
#X obj 489 58 inlet;
#X obj 58 14 inlet;
#X obj 60 529 outlet~;
#X obj 58 200 phasor~;
#X obj 136 141 * -1;
#X obj 136 200 phasor~;
#X obj 257 77 r phasesynch;
#X obj 257 110 bng 15 250 50 0 empty empty empty 17 7 0 10 -262144
-1 -1;
#X msg 257 139 0;
#X msg 310 139 0.5;
#X obj 58 278 +~;
#X obj 58 306 -~ 1;
#X obj 60 469 *~;
#X connect 0 0 9 0;
#X connect 0 0 10 0;
#X connect 1 0 5 0;
#X connect 2 0 1 0;
#X connect 3 0 2 0;
#X connect 4 0 3 0;
#X connect 5 0 18 1;
#X connect 6 0 4 0;
#X connect 7 0 0 0;
#X connect 9 0 16 0;
#X connect 10 0 11 0;
#X connect 11 0 16 1;
#X connect 12 0 13 0;
#X connect 13 0 14 0;
#X connect 13 0 15 0;
#X connect 14 0 9 1;
#X connect 15 0 11 1;
#X connect 16 0 17 0;
#X connect 17 0 18 0;
#X connect 18 0 8 0;
#X restore 113 55 pd sqTrem;
#X obj 52 3 * 1.3;
#N canvas 617 22 744 726 sqTrem 0;
#X floatatom 58 49 5 0 0 0 - - -;
#X obj 489 177 osc~;
#X obj 489 149 line~;
#X obj 489 121 pack f 200;
#X floatatom 489 96 10 0 0 0 - - -;
#X obj 489 205 *~ 0.5;
#X obj 489 58 inlet;
#X obj 58 14 inlet;
#X obj 60 529 outlet~;
#X obj 58 200 phasor~;
#X obj 136 141 * -1;
#X obj 136 200 phasor~;
#X obj 257 77 r phasesynch;
#X obj 257 110 bng 15 250 50 0 empty empty empty 17 7 0 10 -262144
-1 -1;
#X msg 257 139 0;
#X msg 310 139 0.5;
#X obj 58 278 +~;
#X obj 58 306 -~ 1;
#X obj 60 469 *~;
#X connect 0 0 9 0;
#X connect 0 0 10 0;
#X connect 1 0 5 0;
#X connect 2 0 1 0;
#X connect 3 0 2 0;
#X connect 4 0 3 0;
#X connect 5 0 18 1;
#X connect 6 0 4 0;
#X connect 7 0 0 0;
#X connect 9 0 16 0;
#X connect 10 0 11 0;
#X connect 11 0 16 1;
#X connect 12 0 13 0;
#X connect 13 0 14 0;
#X connect 13 0 15 0;
#X connect 14 0 9 1;
#X connect 15 0 11 1;
#X connect 16 0 17 0;
#X connect 17 0 18 0;
#X connect 18 0 8 0;
#X restore 463 31 pd sqTrem;
#X obj 20 101 *~ 0.7;
#X obj 87 101 *~ 0.5;
#X obj 362 82 *~ 0.7;
#X obj 429 82 *~ 0.5;
#X obj 428 -9 * 1.2;
#X obj 467 -95 * 1;
#X obj 120 -99 * 2;
#X obj 1197 -181 inlet;
#X obj 1174 -101 tgl 15 0 empty empty empty 17 7 0 10 -262144 -1 -1
0 1;
#X obj 1194 38 vline~;
#X obj 1165 -71 select 1;
#X msg 1165 7 1;
#X floatatom 1281 87 5 0 0 0 - - -;
#X obj 1281 110 select 0;
#X msg 1281 138 0;
#X obj 1211 117 bng 15 250 50 0 empty empty empty 17 7 0 10 -262144
-1 -1;
#X obj 1281 60 line;
#X msg 1194 6 0 500;
#X obj 1165 180 switch~;
#X floatatom 1165 150 5 0 0 0 - - -;
#X msg 1237 6 1 500;
#X msg 1331 7 1 500;
#X obj 1165 -27 t b b b;
#X obj 1222 -28 t b b b;
#X msg 1283 7 0 1500;
#X obj 83 503 *~;
#X connect 0 0 2 0;
#X connect 1 0 0 0;
#X connect 1 0 17 1;
#X connect 2 0 21 1;
#X connect 3 0 60 0;
#X connect 4 0 5 0;
#X connect 5 0 1 0;
#X connect 6 0 4 0;
#X connect 7 0 6 0;
#X connect 8 0 14 0;
#X connect 9 0 75 0;
#X connect 10 0 7 0;
#X connect 11 0 18 0;
#X connect 12 0 74 0;
#X connect 14 0 57 0;
#X connect 15 0 56 0;
#X connect 15 0 67 0;
#X connect 16 0 56 1;
#X connect 16 0 66 1;
#X connect 17 0 3 0;
#X connect 18 0 59 0;
#X connect 19 0 58 0;
#X connect 19 0 73 0;
#X connect 20 0 68 1;
#X connect 20 0 58 1;
#X connect 21 0 3 1;
#X connect 22 0 16 0;
#X connect 23 0 20 0;
#X connect 24 0 64 0;
#X connect 29 0 30 0;
#X connect 30 0 24 0;
#X connect 31 0 29 0;
#X connect 32 0 30 1;
#X connect 33 0 24 1;
#X connect 34 0 60 2;
#X connect 35 0 45 0;
#X connect 36 0 35 0;
#X connect 37 0 52 0;
#X connect 38 0 37 0;
#X connect 39 0 53 0;
#X connect 40 0 39 0;
#X connect 41 0 65 0;
#X connect 42 0 41 0;
#X connect 43 0 61 0;
#X connect 44 0 43 0;
#X connect 45 0 46 1;
#X connect 46 0 94 0;
#X connect 47 0 40 0;
#X connect 48 0 38 0;
#X connect 49 0 42 0;
#X connect 50 0 44 0;
#X connect 51 0 36 0;
#X connect 52 0 62 0;
#X connect 53 0 54 0;
#X connect 54 0 31 0;
#X connect 55 0 33 0;
#X connect 56 0 69 0;
#X connect 57 0 15 0;
#X connect 58 0 71 0;
#X connect 59 0 19 0;
#X connect 60 0 46 0;
#X connect 61 0 63 0;
#X connect 62 0 32 0;
#X connect 63 0 34 0;
#X connect 64 0 60 1;
#X connect 65 0 55 0;
#X connect 66 0 70 0;
#X connect 67 0 66 0;
#X connect 68 0 72 0;
#X connect 69 0 17 0;
#X connect 70 0 17 0;
#X connect 71 0 21 0;
#X connect 72 0 21 0;
#X connect 73 0 68 0;
#X connect 74 0 23 0;
#X connect 75 0 22 0;
#X connect 76 0 77 0;
#X connect 77 0 79 0;
#X connect 78 0 94 1;
#X connect 79 0 91 0;
#X connect 79 1 92 0;
#X connect 80 0 88 0;
#X connect 81 0 82 0;
#X connect 82 0 83 0;
#X connect 82 0 84 0;
#X connect 83 0 88 0;
#X connect 85 0 81 0;
#X connect 86 0 78 0;
#X connect 86 0 85 0;
#X connect 88 0 87 0;
#X connect 89 0 78 0;
#X connect 89 0 85 0;
#X connect 90 0 85 0;
#X connect 91 0 80 0;
#X connect 91 1 89 0;
#X connect 91 2 93 0;
#X connect 92 0 86 0;
#X connect 92 1 90 0;
#X connect 93 0 85 0;
#X connect 94 0 13 0;
#X restore 440 362 pd voice2_________________________________;
#N canvas 122 22 1335 800 voice3_________________________________ 0
;
#N canvas 0 22 450 300 !- 0;
#X obj 92 21 inlet;
#X obj 124 240 outlet;
#X floatatom 92 57 5 0 0 0 - - -;
#X obj 124 204 - 1;
#X obj 92 106 trigger b f;
#X obj 82 158 f 1;
#X connect 0 0 2 0;
#X connect 2 0 4 0;
#X connect 3 0 1 0;
#X connect 4 0 5 0;
#X connect 4 1 3 1;
#X connect 5 0 3 0;
#X restore 267 27 pd !-;
#X floatatom 267 -6 5 0 0 0 - - -;
#X floatatom 267 55 5 0 0 0 - - -;
#X obj 20 215 +~;
#X floatatom 267 -60 5 0 0 0 - - -;
#N canvas 0 22 450 300 !- 0;
#X obj 92 21 inlet;
#X obj 124 240 outlet;
#X floatatom 92 57 5 0 0 0 - - -;
#X obj 124 204 - 1;
#X obj 92 106 trigger b f;
#X obj 82 158 f 1;
#X connect 0 0 2 0;
#X connect 2 0 4 0;
#X connect 3 0 1 0;
#X connect 4 0 5 0;
#X connect 4 1 3 1;
#X connect 5 0 3 0;
#X restore 267 -35 pd !-;
#X obj 267 -88 line;
#X obj 267 -116 pack f 200;
#X obj 20 -144 inlet;
#X obj 120 -144 inlet;
#X obj 267 -144 inlet;
#X obj 366 -144 inlet;
#X obj 466 -144 inlet;
#X obj 20 578 outlet~;
#X obj 20 -100 * 500;
#X floatatom 20 -44 5 0 0 0 - - -;
#X floatatom 120 -43 5 0 0 0 - - -;
#X obj 20 157 *~;
#X obj 367 -96 * 500;
#X floatatom 367 -40 5 0 0 0 - - -;
#X floatatom 467 -39 5 0 0 0 - - -;
#X obj 367 161 *~;
#X obj 120 -70 + 0.001;
#X obj 467 -66 + 0.001;
#X obj 642 83 +~;
#X text 1005 -40 <-- Q (selectivity);
#X text 685 -14 <-- sweep speed;
#X text 793 -45 <-- sweep depth;
#X text 902 18 <-- base center frequency;
#X obj 641 3 phasor~;
#X obj 642 54 *~;
#X floatatom 641 -25 5 0 0 0 - - -;
#X floatatom 741 -42 5 0 0 0 - - -;
#X floatatom 844 19 5 0 0 0 - - -;
#X floatatom 947 -37 5 0 0 0 - - -;
#X obj 1049 -130 line;
#X obj 1049 -159 pack f 200;
#X obj 741 -130 line;
#X obj 741 -159 pack f 200;
#X obj 641 -130 line;
#X obj 641 -159 pack f 200;
#X obj 845 -130 line;
#X obj 846 -159 pack f 200;
#X obj 947 -130 line;
#X obj 947 -159 pack f 200;
#X floatatom 1050 -18 5 0 0 0 - - -;
#X obj 84 474 *~ 0.4;
#X obj 641 -187 inlet;
#X obj 741 -187 inlet;
#X obj 846 -187 inlet;
#X obj 947 -187 inlet;
#X obj 1049 -187 inlet;
#X obj 741 -101 * 50;
#X obj 641 -101 * -20;
#X obj 641 -73 + 0;
#X obj 845 -71 + 0;
#N canvas 617 22 744 726 sqTrem 0;
#X floatatom 58 49 5 0 0 0 - - -;
#X obj 489 177 osc~;
#X obj 489 149 line~;
#X obj 489 121 pack f 200;
#X floatatom 489 96 10 0 0 0 - - -;
#X obj 489 205 *~ 0.5;
#X obj 489 58 inlet;
#X obj 58 14 inlet;
#X obj 60 529 outlet~;
#X obj 58 200 phasor~;
#X obj 136 141 * -1;
#X obj 136 200 phasor~;
#X obj 257 77 r phasesynch;
#X obj 257 110 bng 15 250 50 0 empty empty empty 17 7 0 10 -262144
-1 -1;
#X msg 257 139 0;
#X msg 310 139 0.5;
#X obj 58 278 +~;
#X obj 58 306 -~ 1;
#X obj 60 469 *~;
#X connect 0 0 9 0;
#X connect 0 0 10 0;
#X connect 1 0 5 0;
#X connect 2 0 1 0;
#X connect 3 0 2 0;
#X connect 4 0 3 0;
#X connect 5 0 18 1;
#X connect 6 0 4 0;
#X connect 7 0 0 0;
#X connect 9 0 16 0;
#X connect 10 0 11 0;
#X connect 11 0 16 1;
#X connect 12 0 13 0;
#X connect 13 0 14 0;
#X connect 13 0 15 0;
#X connect 14 0 9 1;
#X connect 15 0 11 1;
#X connect 16 0 17 0;
#X connect 17 0 18 0;
#X connect 18 0 8 0;
#X restore 20 56 pd sqTrem;
#X obj 20 -72 + 80;
#N canvas 617 22 744 726 sqTrem 0;
#X floatatom 58 49 5 0 0 0 - - -;
#X obj 489 177 osc~;
#X obj 489 149 line~;
#X obj 489 121 pack f 200;
#X floatatom 489 96 10 0 0 0 - - -;
#X obj 489 205 *~ 0.5;
#X obj 489 58 inlet;
#X obj 58 14 inlet;
#X obj 60 529 outlet~;
#X obj 58 200 phasor~;
#X obj 136 141 * -1;
#X obj 136 200 phasor~;
#X obj 257 77 r phasesynch;
#X obj 257 110 bng 15 250 50 0 empty empty empty 17 7 0 10 -262144
-1 -1;
#X msg 257 139 0;
#X msg 310 139 0.5;
#X obj 58 278 +~;
#X obj 58 306 -~ 1;
#X obj 60 469 *~;
#X connect 0 0 9 0;
#X connect 0 0 10 0;
#X connect 1 0 5 0;
#X connect 2 0 1 0;
#X connect 3 0 2 0;
#X connect 4 0 3 0;
#X connect 5 0 18 1;
#X connect 6 0 4 0;
#X connect 7 0 0 0;
#X connect 9 0 16 0;
#X connect 10 0 11 0;
#X connect 11 0 16 1;
#X connect 12 0 13 0;
#X connect 13 0 14 0;
#X connect 13 0 15 0;
#X connect 14 0 9 1;
#X connect 15 0 11 1;
#X connect 16 0 17 0;
#X connect 17 0 18 0;
#X connect 18 0 8 0;
#X restore 376 32 pd sqTrem;
#X obj 367 -68 + 80;
#X obj 57 306 vcf~;
#N canvas 0 22 450 300 !- 0;
#X obj 92 21 inlet;
#X obj 124 240 outlet;
#X floatatom 92 57 5 0 0 0 - - -;
#X obj 124 204 - 1;
#X obj 92 106 trigger b f;
#X obj 82 158 f 1;
#X connect 0 0 2 0;
#X connect 2 0 4 0;
#X connect 3 0 1 0;
#X connect 4 0 5 0;
#X connect 4 1 3 1;
#X connect 5 0 3 0;
#X restore 947 -101 pd !-;
#X obj 741 -71 + 20;
#X obj 947 -73 + 0.1;
#X obj 73 270 tabread4~ mtof;
#X obj 845 -101 * 40;
#N canvas 617 22 744 726 sqTrem 0;
#X floatatom 58 49 5 0 0 0 - - -;
#X obj 489 177 osc~;
#X obj 489 149 line~;
#X obj 489 121 pack f 200;
#X floatatom 489 96 10 0 0 0 - - -;
#X obj 489 205 *~ 0.5;
#X obj 489 58 inlet;
#X obj 58 14 inlet;
#X obj 60 529 outlet~;
#X obj 58 200 phasor~;
#X obj 136 141 * -1;
#X obj 136 200 phasor~;
#X obj 257 77 r phasesynch;
#X obj 257 110 bng 15 250 50 0 empty empty empty 17 7 0 10 -262144
-1 -1;
#X msg 257 139 0;
#X msg 310 139 0.5;
#X obj 58 278 +~;
#X obj 58 306 -~ 1;
#X obj 60 469 *~;
#X connect 0 0 9 0;
#X connect 0 0 10 0;
#X connect 1 0 5 0;
#X connect 2 0 1 0;
#X connect 3 0 2 0;
#X connect 4 0 3 0;
#X connect 5 0 18 1;
#X connect 6 0 4 0;
#X connect 7 0 0 0;
#X connect 9 0 16 0;
#X connect 10 0 11 0;
#X connect 11 0 16 1;
#X connect 12 0 13 0;
#X connect 13 0 14 0;
#X connect 13 0 15 0;
#X connect 14 0 9 1;
#X connect 15 0 11 1;
#X connect 16 0 17 0;
#X connect 17 0 18 0;
#X connect 18 0 8 0;
#X restore 113 55 pd sqTrem;
#X obj 52 3 * 1.3;
#N canvas 617 22 744 726 sqTrem 0;
#X floatatom 58 49 5 0 0 0 - - -;
#X obj 489 177 osc~;
#X obj 489 149 line~;
#X obj 489 121 pack f 200;
#X floatatom 489 96 10 0 0 0 - - -;
#X obj 489 205 *~ 0.5;
#X obj 489 58 inlet;
#X obj 58 14 inlet;
#X obj 60 529 outlet~;
#X obj 58 200 phasor~;
#X obj 136 141 * -1;
#X obj 136 200 phasor~;
#X obj 257 77 r phasesynch;
#X obj 257 110 bng 15 250 50 0 empty empty empty 17 7 0 10 -262144
-1 -1;
#X msg 257 139 0;
#X msg 310 139 0.5;
#X obj 58 278 +~;
#X obj 58 306 -~ 1;
#X obj 60 469 *~;
#X connect 0 0 9 0;
#X connect 0 0 10 0;
#X connect 1 0 5 0;
#X connect 2 0 1 0;
#X connect 3 0 2 0;
#X connect 4 0 3 0;
#X connect 5 0 18 1;
#X connect 6 0 4 0;
#X connect 7 0 0 0;
#X connect 9 0 16 0;
#X connect 10 0 11 0;
#X connect 11 0 16 1;
#X connect 12 0 13 0;
#X connect 13 0 14 0;
#X connect 13 0 15 0;
#X connect 14 0 9 1;
#X connect 15 0 11 1;
#X connect 16 0 17 0;
#X connect 17 0 18 0;
#X connect 18 0 8 0;
#X restore 463 31 pd sqTrem;
#X obj 20 101 *~ 0.7;
#X obj 87 101 *~ 0.5;
#X obj 362 82 *~ 0.7;
#X obj 429 82 *~ 0.5;
#X obj 428 -9 * 1.2;
#X obj 467 -95 * 1;
#X obj 120 -99 * 2;
#X obj 1197 -181 inlet;
#X obj 1174 -101 tgl 15 0 empty empty empty 17 7 0 10 -262144 -1 -1
0 1;
#X obj 1194 38 vline~;
#X obj 1165 -71 select 1;
#X msg 1165 7 1;
#X floatatom 1281 87 5 0 0 0 - - -;
#X obj 1281 110 select 0;
#X msg 1281 138 0;
#X obj 1211 117 bng 15 250 50 0 empty empty empty 17 7 0 10 -262144
-1 -1;
#X obj 1281 60 line;
#X msg 1194 6 0 500;
#X obj 1165 180 switch~;
#X floatatom 1165 150 5 0 0 0 - - -;
#X msg 1237 6 1 500;
#X msg 1331 7 1 500;
#X obj 1165 -27 t b b b;
#X obj 1222 -28 t b b b;
#X msg 1283 7 0 1500;
#X obj 83 503 *~;
#X connect 0 0 2 0;
#X connect 1 0 0 0;
#X connect 1 0 17 1;
#X connect 2 0 21 1;
#X connect 3 0 60 0;
#X connect 4 0 5 0;
#X connect 5 0 1 0;
#X connect 6 0 4 0;
#X connect 7 0 6 0;
#X connect 8 0 14 0;
#X connect 9 0 75 0;
#X connect 10 0 7 0;
#X connect 11 0 18 0;
#X connect 12 0 74 0;
#X connect 14 0 57 0;
#X connect 15 0 56 0;
#X connect 15 0 67 0;
#X connect 16 0 56 1;
#X connect 16 0 66 1;
#X connect 17 0 3 0;
#X connect 18 0 59 0;
#X connect 19 0 58 0;
#X connect 19 0 73 0;
#X connect 20 0 68 1;
#X connect 20 0 58 1;
#X connect 21 0 3 1;
#X connect 22 0 16 0;
#X connect 23 0 20 0;
#X connect 24 0 64 0;
#X connect 29 0 30 0;
#X connect 30 0 24 0;
#X connect 31 0 29 0;
#X connect 32 0 30 1;
#X connect 33 0 24 1;
#X connect 34 0 60 2;
#X connect 35 0 45 0;
#X connect 36 0 35 0;
#X connect 37 0 52 0;
#X connect 38 0 37 0;
#X connect 39 0 53 0;
#X connect 40 0 39 0;
#X connect 41 0 65 0;
#X connect 42 0 41 0;
#X connect 43 0 61 0;
#X connect 44 0 43 0;
#X connect 45 0 46 1;
#X connect 46 0 94 0;
#X connect 47 0 40 0;
#X connect 48 0 38 0;
#X connect 49 0 42 0;
#X connect 50 0 44 0;
#X connect 51 0 36 0;
#X connect 52 0 62 0;
#X connect 53 0 54 0;
#X connect 54 0 31 0;
#X connect 55 0 33 0;
#X connect 56 0 69 0;
#X connect 57 0 15 0;
#X connect 58 0 71 0;
#X connect 59 0 19 0;
#X connect 60 0 46 0;
#X connect 61 0 63 0;
#X connect 62 0 32 0;
#X connect 63 0 34 0;
#X connect 64 0 60 1;
#X connect 65 0 55 0;
#X connect 66 0 70 0;
#X connect 67 0 66 0;
#X connect 68 0 72 0;
#X connect 69 0 17 0;
#X connect 70 0 17 0;
#X connect 71 0 21 0;
#X connect 72 0 21 0;
#X connect 73 0 68 0;
#X connect 74 0 23 0;
#X connect 75 0 22 0;
#X connect 76 0 77 0;
#X connect 77 0 79 0;
#X connect 78 0 94 1;
#X connect 79 0 91 0;
#X connect 79 1 92 0;
#X connect 80 0 88 0;
#X connect 81 0 82 0;
#X connect 82 0 83 0;
#X connect 82 0 84 0;
#X connect 83 0 88 0;
#X connect 85 0 81 0;
#X connect 86 0 78 0;
#X connect 86 0 85 0;
#X connect 88 0 87 0;
#X connect 89 0 78 0;
#X connect 89 0 85 0;
#X connect 90 0 85 0;
#X connect 91 0 80 0;
#X connect 91 1 89 0;
#X connect 91 2 93 0;
#X connect 92 0 86 0;
#X connect 92 1 90 0;
#X connect 93 0 85 0;
#X connect 94 0 13 0;
#X restore 872 361 pd voice3_________________________________;
#X connect 1 0 24 10;
#X connect 2 0 0 0;
#X connect 2 0 0 1;
#X connect 3 0 2 0;
#X connect 4 0 23 0;
#X connect 5 0 4 0;
#X connect 6 0 4 0;
#X connect 7 0 4 0;
#X connect 8 0 4 0;
#X connect 9 0 18 0;
#X connect 10 0 9 0;
#X connect 11 0 9 0;
#X connect 12 0 19 0;
#X connect 13 0 12 0;
#X connect 14 0 12 0;
#X connect 15 0 20 0;
#X connect 16 0 15 0;
#X connect 17 0 15 0;
#X connect 21 0 1 0;
#X connect 22 0 4 0;
#X connect 23 0 11 0;
#X connect 23 0 16 0;
#X connect 23 0 13 0;
#X connect 23 1 14 0;
#X connect 23 1 16 0;
#X connect 23 1 10 0;
#X connect 23 2 17 0;
#X connect 23 2 13 0;
#X connect 23 2 10 0;
#X connect 23 3 16 0;
#X connect 23 3 13 0;
#X connect 23 3 10 0;
#X connect 24 0 3 0;
#X connect 27 0 26 0;
#X connect 28 0 27 0;
#X connect 29 0 24 0;
#X connect 30 0 29 0;
#X connect 31 0 24 2;
#X connect 32 0 24 1;
#X connect 33 0 32 0;
#X connect 34 0 31 0;
#X connect 35 0 24 3;
#X connect 36 0 24 4;
#X connect 37 0 35 0;
#X connect 38 0 36 0;
#X connect 39 0 24 5;
#X connect 40 0 24 7;
#X connect 41 0 24 6;
#X connect 42 0 24 8;
#X connect 43 0 24 9;
#X connect 44 0 39 0;
#X connect 45 0 41 0;
#X connect 46 0 40 0;
#X connect 47 0 42 0;
#X connect 48 0 43 0;
#X connect 49 0 93 0;
#X connect 50 0 93 2;
#X connect 51 0 93 1;
#X connect 52 0 93 3;
#X connect 53 0 93 4;
#X connect 54 0 93 5;
#X connect 55 0 93 7;
#X connect 56 0 93 6;
#X connect 57 0 93 8;
#X connect 58 0 93 9;
#X connect 59 0 49 0;
#X connect 60 0 51 0;
#X connect 61 0 50 0;
#X connect 62 0 52 0;
#X connect 63 0 53 0;
#X connect 64 0 54 0;
#X connect 65 0 56 0;
#X connect 66 0 55 0;
#X connect 67 0 57 0;
#X connect 68 0 58 0;
#X connect 69 0 94 0;
#X connect 70 0 94 2;
#X connect 71 0 94 1;
#X connect 72 0 94 3;
#X connect 73 0 94 4;
#X connect 74 0 94 5;
#X connect 75 0 94 7;
#X connect 76 0 94 6;
#X connect 77 0 94 8;
#X connect 78 0 94 9;
#X connect 79 0 69 0;
#X connect 80 0 71 0;
#X connect 81 0 70 0;
#X connect 82 0 72 0;
#X connect 83 0 73 0;
#X connect 84 0 74 0;
#X connect 85 0 76 0;
#X connect 86 0 75 0;
#X connect 87 0 77 0;
#X connect 88 0 78 0;
#X connect 89 0 93 10;
#X connect 90 0 94 10;
#X connect 91 0 89 0;
#X connect 92 0 90 0;
#X connect 93 0 3 0;
#X connect 94 0 3 0;
