#N canvas 456 40 1191 856 16;
#N canvas 0 22 450 300 !- 0;
#X obj 92 21 inlet;
#X obj 124 240 outlet;
#X floatatom 92 57 5 0 0 0 - - -;
#X obj 124 204 - 1;
#X obj 92 106 trigger b f;
#X obj 82 158 f 1;
#X connect 0 0 2 0;
#X connect 2 0 4 0;
#X connect 3 0 1 0;
#X connect 4 0 5 0;
#X connect 4 1 3 1;
#X connect 5 0 3 0;
#X restore 268 114 pd !-;
#X floatatom 268 89 5 0 0 0 - - -;
#X floatatom 268 142 5 0 0 0 - - -;
#X obj 252 289 +~;
#X obj 18 -68 r dc1;
#X obj 268 -77 r dc3;
#X obj 157 617 dac~;
#X floatatom 268 36 5 0 0 0 - - -;
#X obj 271 -44 hsl 128 15 0 1 0 0 empty empty empty -2 -8 0 10 -262144
-1 -1 6350 1;
#X obj 166 -135 hsl 128 15 0 1 0 0 empty empty empty -2 -8 0 10 -262144
-1 -1 0 1;
#X floatatom 17 36 5 0 0 0 - - -;
#X obj 21 -40 hsl 128 15 0 1 0 0 empty empty empty -2 -8 0 10 -262144
-1 -1 0 1;
#X obj 17 61 * 500;
#X obj 58 556 clip~ -1 1;
#X obj 58 520 hip~ 1;
#X obj 558 -163 r dc5;
#X obj 633 341 +~;
#X obj 252 393 vcf~;
#X obj 268 344 tabread4~ mtof;
#X text 692 547 <-- Q (selectivity);
#X text 680 236 <-- sweep speed;
#X text 894 236 <-- sweep depth;
#X text 901 436 <-- base center frequency;
#X obj 633 265 phasor~;
#X obj 633 291 *~;
#N canvas 0 22 612 404 conversion-tables 0;
#N canvas 0 22 450 300 (subpatch) 0;
#X array mtof 130 float 1;
#A 0 8.1758 8.66196 9.17702 9.72272 10.3009 10.9134 11.5623 12.2499
12.9783 13.75 14.5676 15.4339 16.3516 17.3239 18.354 19.4454 20.6017
21.8268 23.1247 24.4997 25.9565 27.5 29.1352 30.8677 32.7032 34.6478
36.7081 38.8909 41.2034 43.6535 46.2493 48.9994 51.9131 55 58.2705
61.7354 65.4064 69.2957 73.4162 77.7817 82.4069 87.3071 92.4986 97.9989
103.826 110 116.541 123.471 130.813 138.591 146.832 155.563 164.814
174.614 184.997 195.998 207.652 220 233.082 246.942 261.626 277.183
293.665 311.127 329.628 349.228 369.994 391.995 415.305 440 466.164
493.883 523.251 554.365 587.33 622.254 659.255 698.456 739.989 783.991
830.609 880 932.328 987.767 1046.5 1108.73 1174.66 1244.51 1318.51
1396.91 1479.98 1567.98 1661.22 1760 1864.66 1975.53 2093 2217.46 2349.32
2489.02 2637.02 2793.83 2959.96 3135.96 3322.44 3520 3729.31 3951.07
4186.01 4434.92 4698.64 4978.03 5274.04 5587.65 5919.91 6271.93 6644.88
7040 7458.62 7902.13 8372.02 8869.84 9397.27 9956.06 10548.1 11175.3
11839.8 12543.9 13289.8 14080;
#X coords 0 12000 130 0 200 100 1;
#X restore 309 225 graph;
#X text 319 333 ------ 130 samples ------;
#X text 518 318 0;
#X text 520 218 12000;
#X restore 934 -72 pd conversion-tables;
#X obj 636 97 hsl 128 15 0 1 0 0 empty empty empty -2 -8 0 10 -262144
-1 -1 0 1;
#X obj 163 -163 r dc2;
#X obj 404 -71 r dc4;
#X obj 633 65 r dc6;
#X floatatom 633 237 5 0 0 0 - - -;
#X obj 848 97 hsl 128 15 0 1 0 0 empty empty empty -2 -8 0 10 -262144
-1 -1 0 1;
#X obj 845 177 * 100;
#X floatatom 845 237 5 0 0 0 - - -;
#X obj 844 305 hsl 128 15 0 1 0 0 empty empty empty -2 -8 0 10 -262144
-1 -1 0 1;
#X obj 841 383 * 100;
#X floatatom 841 438 5 0 0 0 - - -;
#X obj 637 418 hsl 128 15 0 1 0 0 empty empty empty -2 -8 0 10 -262144
-1 -1 0 1;
#X floatatom 634 550 5 0 0 0 - - -;
#X obj 634 495 * 30;
#X obj 845 65 r dc7;
#X obj 841 273 r dc8;
#X obj 634 386 r dc9;
#X obj 737 -135 hsl 128 15 0 1 0 0 empty empty empty -2 -8 0 10 -262144
-1 -1 0 1;
#N canvas 0 22 450 300 !- 0;
#X obj 92 21 inlet;
#X obj 124 240 outlet;
#X floatatom 92 57 5 0 0 0 - - -;
#X obj 124 204 - 1;
#X obj 92 106 trigger b f;
#X obj 82 158 f 1;
#X connect 0 0 2 0;
#X connect 2 0 4 0;
#X connect 3 0 1 0;
#X connect 4 0 5 0;
#X connect 4 1 3 1;
#X connect 5 0 3 0;
#X restore 268 61 pd !-;
#X obj 734 -167 r dc10;
#X obj 634 522 + 0.25;
#X obj 845 208 + 0.25;
#X obj 841 410 + 0.25;
#X obj 17 90 + 80;
#X obj 633 177 * 30;
#X obj 633 206 - 15;
#X obj 18 8 line;
#X obj 18 -20 pack f 200;
#X obj 163 -85 line;
#X obj 163 -113 pack f 200;
#X obj 268 8 line;
#X obj 268 -21 pack f 200;
#X obj 734 -85 line;
#X obj 734 -113 pack f 200;
#X obj 845 147 line;
#X obj 845 119 pack f 200;
#X obj 633 147 line;
#X obj 633 119 pack f 200;
#X obj 841 355 line;
#X obj 841 327 pack f 200;
#X obj 634 469 line;
#X obj 634 441 pack f 200;
#X floatatom 163 -59 5 0 0 0 - - -;
#X floatatom 734 -8 5 0 0 0 - - -;
#X floatatom 17 123 5 0 0 0 - - -;
#X obj 15 354 -~ 0.5;
#X floatatom 66 273 5 0 0 0 - - -;
#X obj 15 400 clip~ 0 1e-06;
#X obj 15 446 *~ 1e+06;
#X obj 66 300 * -1;
#X obj 66 327 + 1;
#X obj 17 152 phasor~ 0;
#X obj 66 205 / 100;
#X obj 66 240 clip 0.1 0.99;
#X obj 185 88 abs~;
#X obj 185 60 osc~;
#X obj 185 4 * 10;
#X obj 167 148 *~;
#X obj 552 -108 hsl 128 15 0 1 0 0 empty empty empty -2 -8 0 10 -262144
-1 -1 0 1;
#X floatatom 403 63 5 0 0 0 - - -;
#X obj 407 -13 hsl 128 15 0 1 0 0 empty empty empty -2 -8 0 10 -262144
-1 -1 0 1;
#X obj 403 88 * 500;
#X obj 403 117 + 80;
#X obj 404 35 line;
#X obj 404 7 pack f 200;
#X obj 549 -58 line;
#X obj 549 -86 pack f 200;
#X floatatom 549 -32 5 0 0 0 - - -;
#X floatatom 403 150 5 0 0 0 - - -;
#X obj 401 381 -~ 0.5;
#X floatatom 452 300 5 0 0 0 - - -;
#X obj 401 427 clip~ 0 1e-06;
#X obj 401 473 *~ 1e+06;
#X obj 452 327 * -1;
#X obj 452 354 + 1;
#X obj 403 179 phasor~ 0;
#X obj 452 232 / 100;
#X obj 452 267 clip 0.1 0.99;
#X obj 571 115 abs~;
#X obj 571 87 osc~;
#X obj 571 31 * 10;
#X obj 553 175 *~;
#X obj 185 32 / 200;
#X obj 164 555 clip~ -1 1;
#X obj 164 519 hip~ 1;
#X floatatom 323 516 0 0 120 0 - - -;
#X text 364 516 level \, dB;
#X floatatom 358 538 0 0 100 0 - - -;
#X text 441 538 liveness \, 0-100;
#X floatatom 393 562 4 0 5000 0 - - -;
#X floatatom 428 585 0 0 100 0 - - -;
#X text 441 560 crossover frequency \, Hz.;
#X text 464 587 HF damping \, percent;
#X obj 734 -52 * 95;
#X floatatom 133 105 5 0 0 0 - - -;
#N canvas 358 60 772 415 sq1 0;
#X obj 41 41 inlet~;
#X obj 273 77 sig~;
#X obj 273 49 inlet;
#X obj 273 105 lop~ 1;
#X obj 46 293 *~;
#X obj 70 222 sqrt~;
#X obj 84 350 outlet~;
#X connect 0 0 4 0;
#X connect 1 0 3 0;
#X connect 2 0 1 0;
#X connect 3 0 5 0;
#X connect 4 0 6 0;
#X connect 5 0 4 1;
#X restore 228 225 pd sq1;
#N canvas 358 60 772 415 sq2 0;
#X obj 41 41 inlet~;
#X obj 273 77 sig~;
#X obj 273 49 inlet;
#X obj 273 105 lop~ 1;
#X obj 46 293 *~;
#X obj 70 222 sqrt~;
#X obj 84 350 outlet~;
#X connect 0 0 4 0;
#X connect 1 0 3 0;
#X connect 2 0 1 0;
#X connect 3 0 5 0;
#X connect 4 0 6 0;
#X connect 5 0 4 1;
#X restore 317 226 pd sq2;
#X obj 123 70 * 100;
#X obj 488 99 * 100;
#X floatatom 494 135 5 0 0 0 - - -;
#X obj 571 59 / 300;
#X obj 355 -147 loadbang;
#X msg 360 -104 0.5;
#N canvas 0 22 450 300 !- 0;
#X obj 92 21 inlet;
#X obj 124 240 outlet;
#X floatatom 92 57 5 0 0 0 - - -;
#X obj 124 204 - 1;
#X obj 92 106 trigger b f;
#X obj 82 158 f 1;
#X connect 0 0 2 0;
#X connect 2 0 4 0;
#X connect 3 0 1 0;
#X connect 4 0 5 0;
#X connect 4 1 3 1;
#X connect 5 0 3 0;
#X restore 98 22 pd !-;
#N canvas 0 22 450 300 !- 0;
#X obj 92 21 inlet;
#X obj 124 240 outlet;
#X floatatom 92 57 5 0 0 0 - - -;
#X obj 124 204 - 1;
#X obj 92 106 trigger b f;
#X obj 82 158 f 1;
#X connect 0 0 2 0;
#X connect 2 0 4 0;
#X connect 3 0 1 0;
#X connect 4 0 5 0;
#X connect 4 1 3 1;
#X connect 5 0 3 0;
#X restore 495 61 pd !-;
#X obj 180 448 *~ 0.4;
#X obj 254 449 *~ 0.4;
#X obj 253 611;
#X connect 0 0 2 0;
#X connect 1 0 0 0;
#X connect 1 0 121 1;
#X connect 2 0 122 1;
#X connect 3 0 17 0;
#X connect 4 0 11 0;
#X connect 5 0 8 0;
#X connect 7 0 44 0;
#X connect 8 0 57 0;
#X connect 9 0 55 0;
#X connect 10 0 12 0;
#X connect 11 0 53 0;
#X connect 12 0 49 0;
#X connect 13 0 6 0;
#X connect 14 0 13 0;
#X connect 15 0 84 0;
#X connect 16 0 18 0;
#X connect 17 0 131 0;
#X connect 17 0 132 0;
#X connect 18 0 17 1;
#X connect 23 0 24 0;
#X connect 24 0 16 0;
#X connect 26 0 63 0;
#X connect 27 0 9 0;
#X connect 28 0 86 0;
#X connect 29 0 26 0;
#X connect 30 0 23 0;
#X connect 31 0 61 0;
#X connect 32 0 47 0;
#X connect 33 0 24 1;
#X connect 34 0 65 0;
#X connect 35 0 48 0;
#X connect 36 0 16 1;
#X connect 37 0 67 0;
#X connect 38 0 17 2;
#X connect 39 0 46 0;
#X connect 40 0 31 0;
#X connect 41 0 34 0;
#X connect 42 0 37 0;
#X connect 43 0 59 0;
#X connect 44 0 1 0;
#X connect 45 0 43 0;
#X connect 46 0 38 0;
#X connect 47 0 33 0;
#X connect 48 0 36 0;
#X connect 49 0 70 0;
#X connect 50 0 51 0;
#X connect 51 0 30 0;
#X connect 52 0 10 0;
#X connect 53 0 52 0;
#X connect 54 0 68 0;
#X connect 55 0 54 0;
#X connect 56 0 7 0;
#X connect 57 0 56 0;
#X connect 58 0 119 0;
#X connect 59 0 58 0;
#X connect 60 0 32 0;
#X connect 61 0 60 0;
#X connect 62 0 50 0;
#X connect 63 0 62 0;
#X connect 64 0 35 0;
#X connect 65 0 64 0;
#X connect 66 0 39 0;
#X connect 67 0 66 0;
#X connect 68 0 82 0;
#X connect 68 0 129 0;
#X connect 69 0 113 0;
#X connect 70 0 77 0;
#X connect 71 0 73 0;
#X connect 72 0 75 0;
#X connect 73 0 74 0;
#X connect 74 0 83 0;
#X connect 75 0 76 0;
#X connect 76 0 71 1;
#X connect 77 0 71 0;
#X connect 78 0 79 0;
#X connect 79 0 72 0;
#X connect 80 0 83 1;
#X connect 81 0 80 0;
#X connect 82 0 108 0;
#X connect 83 0 121 0;
#X connect 84 0 92 0;
#X connect 85 0 87 0;
#X connect 86 0 90 0;
#X connect 87 0 88 0;
#X connect 88 0 94 0;
#X connect 89 0 85 0;
#X connect 90 0 89 0;
#X connect 91 0 93 0;
#X connect 92 0 91 0;
#X connect 93 0 106 0;
#X connect 93 0 130 0;
#X connect 94 0 101 0;
#X connect 95 0 97 0;
#X connect 96 0 99 0;
#X connect 97 0 98 0;
#X connect 98 0 107 0;
#X connect 99 0 100 0;
#X connect 100 0 95 1;
#X connect 101 0 95 0;
#X connect 102 0 103 0;
#X connect 103 0 96 0;
#X connect 104 0 107 1;
#X connect 105 0 104 0;
#X connect 106 0 126 0;
#X connect 107 0 122 0;
#X connect 108 0 81 0;
#X connect 109 0 6 1;
#X connect 110 0 109 0;
#X connect 111 0 133 2;
#X connect 113 0 133 3;
#X connect 115 0 133 4;
#X connect 116 0 133 5;
#X connect 119 0 69 0;
#X connect 120 0 78 0;
#X connect 121 0 3 0;
#X connect 122 0 3 1;
#X connect 123 0 120 0;
#X connect 124 0 102 0;
#X connect 126 0 105 0;
#X connect 126 0 125 0;
#X connect 127 0 128 0;
#X connect 128 0 8 0;
#X connect 129 0 123 0;
#X connect 130 0 124 0;
#X connect 131 0 14 0;
#X connect 131 0 110 0;
