#N canvas 133 22 1159 812 16;
#X obj 164 221 *~;
#X obj 200 221 *~;
#N canvas 0 22 450 300 !- 0;
#X obj 92 21 inlet;
#X obj 124 240 outlet;
#X floatatom 92 57 5 0 0 0 - - -;
#X obj 124 204 - 1;
#X obj 92 106 trigger b f;
#X obj 82 158 f 1;
#X connect 0 0 2 0;
#X connect 2 0 4 0;
#X connect 3 0 1 0;
#X connect 4 0 5 0;
#X connect 4 1 3 1;
#X connect 5 0 3 0;
#X restore 268 114 pd !-;
#X floatatom 268 89 5 0 0 0 - - -;
#X floatatom 268 142 5 0 0 0 - - -;
#X obj 252 289 +~;
#X obj 252 546 dac~;
#X floatatom 268 36 5 0 0 0 - - -;
#X obj 271 -44 hsl 128 15 0 1 0 0 empty empty empty -2 -8 0 10 -262144
-1 -1 0 1;
#X obj 166 -135 hsl 128 15 0 1 0 0 empty empty empty -2 -8 0 10 -262144
-1 -1 0 1;
#X obj 17 119 phasor~;
#X obj 40 158 expr~ $v1 > $v2;
#X obj 163 50 abs~;
#X obj 163 -6 / 100;
#X obj 163 22 osc~;
#X obj 163 -35 * 10;
#X floatatom 17 36 5 0 0 0 - - -;
#X obj 21 -40 hsl 128 15 0 1 0 0 empty empty empty -2 -8 0 10 -262144
-1 -1 0 1;
#X obj 17 61 * 500;
#X obj 267 505 clip~ -1 1;
#X obj 252 465 hip~ 1;
#X obj 561 -135 hsl 128 15 0 1 0 0 empty empty empty -2 -8 0 10 -262144
-1 -1 0 1;
#X obj 404 114 phasor~;
#X obj 424 152 expr~ $v1 > $v2;
#X obj 558 50 abs~;
#X obj 558 -6 / 100;
#X obj 558 22 osc~;
#X obj 558 -34 * 10;
#X floatatom 404 33 5 0 0 0 - - -;
#X obj 407 -43 hsl 128 15 0 1 0 0 empty empty empty -2 -8 0 10 -262144
-1 -1 0 1;
#X obj 404 58 * 500;
#N canvas 0 110 565 454 hann-window 0;
#N canvas 0 22 450 300 (subpatch) 0;
#X array \$0-hann 4096 float 0;
#X coords 0 1 4095 0 300 100 1;
#X restore 82 311 graph;
#X obj 378 165 osc~;
#X obj 378 190 *~ -0.5;
#X obj 378 214 +~ 0.5;
#X obj 331 247 tabwrite~ \$0-hann;
#X obj 37 88 r window-size;
#X obj 38 173 /;
#X obj 127 142 samplerate~;
#X obj 38 251 s window-sec;
#X obj 177 204 swap;
#X obj 177 228 /;
#X obj 177 252 s window-hz;
#X obj 49 201 * 1000;
#X obj 49 228 s window-msec;
#X obj 38 115 t f b f;
#X msg 173 92 resize \$1;
#X obj 173 116 s \$0-hann;
#X obj 330 105 r window-hz;
#X msg 382 130 0;
#X obj 330 131 t f b;
#X text 15 8 calculate Hann window table (variable window size) and
constants window-hz (fundamental frequency of analysis) \, window-sec
and window-msec (analysis window size in seconds and msec).;
#X connect 1 0 2 0;
#X connect 2 0 3 0;
#X connect 3 0 4 0;
#X connect 5 0 14 0;
#X connect 6 0 8 0;
#X connect 6 0 12 0;
#X connect 7 0 6 1;
#X connect 7 0 9 1;
#X connect 9 0 10 0;
#X connect 9 1 10 1;
#X connect 10 0 11 0;
#X connect 12 0 13 0;
#X connect 14 0 6 0;
#X connect 14 0 9 0;
#X connect 14 1 7 0;
#X connect 14 2 15 0;
#X connect 15 0 16 0;
#X connect 17 0 19 0;
#X connect 18 0 1 1;
#X connect 19 0 1 0;
#X connect 19 1 4 0;
#X connect 19 1 18 0;
#X restore 934 -44 pd hann-window;
#N canvas 52 71 774 520 tables 0;
#N canvas 0 22 450 300 (subpatch) 0;
#X array \$0-last-real 2048 float 0;
#X coords 0 500 2048 -500 200 150 1;
#X restore 103 15 graph;
#N canvas 0 22 450 300 (subpatch) 0;
#X array \$0-last-imag 2048 float 0;
#X coords 0 500 2048 500 200 150 1;
#X restore 497 6 graph;
#N canvas 0 22 450 300 (subpatch) 0;
#X array \$0-amp-real 2048 float 0;
#X coords 0 500 2048 -500 200 150 1;
#X restore 105 185 graph;
#N canvas 0 22 450 300 (subpatch) 0;
#X array \$0-amp-imag 2048 float 0;
#X coords 0 500 2048 -500 200 150 1;
#X restore 501 178 graph;
#N canvas 0 22 450 300 (subpatch) 0;
#X array \$0-inc-real 2048 float 0;
#X coords 0 1 2048 -1 200 150 1;
#X restore 105 357 graph;
#N canvas 0 22 450 300 (subpatch) 0;
#X array \$0-inc-imag 2048 float 0;
#X coords 0 1 2048 -1 200 150 1;
#X restore 503 342 graph;
#X restore 934 -16 pd tables;
#X obj 633 341 +~;
#X obj 252 393 vcf~;
#X obj 268 344 tabread4~ mtof;
#X text 692 547 <-- Q (selectivity);
#X text 680 236 <-- sweep speed;
#X text 894 236 <-- sweep depth;
#X text 901 436 <-- base center frequency;
#X obj 633 265 phasor~;
#X obj 633 291 *~;
#N canvas 0 22 612 404 conversion-tables 0;
#N canvas 0 22 450 300 (subpatch) 0;
#X array mtof 130 float 1;
#A 0 8.1758 8.66196 9.17702 9.72272 10.3009 10.9134 11.5623 12.2499
12.9783 13.75 14.5676 15.4339 16.3516 17.3239 18.354 19.4454 20.6017
21.8268 23.1247 24.4997 25.9565 27.5 29.1352 30.8677 32.7032 34.6478
36.7081 38.8909 41.2034 43.6535 46.2493 48.9994 51.9131 55 58.2705
61.7354 65.4064 69.2957 73.4162 77.7817 82.4069 87.3071 92.4986 97.9989
103.826 110 116.541 123.471 130.813 138.591 146.832 155.563 164.814
174.614 184.997 195.998 207.652 220 233.082 246.942 261.626 277.183
293.665 311.127 329.628 349.228 369.994 391.995 415.305 440 466.164
493.883 523.251 554.365 587.33 622.254 659.255 698.456 739.989 783.991
830.609 880 932.328 987.767 1046.5 1108.73 1174.66 1244.51 1318.51
1396.91 1479.98 1567.98 1661.22 1760 1864.66 1975.53 2093 2217.46 2349.32
2489.02 2637.02 2793.83 2959.96 3135.96 3322.44 3520 3729.31 3951.07
4186.01 4434.92 4698.64 4978.03 5274.04 5587.65 5919.91 6271.93 6644.88
7040 7458.62 7902.13 8372.02 8869.84 9397.27 9956.06 10548.1 11175.3
11839.8 12543.9 13289.8 14080;
#X coords 0 12000 130 0 200 100 1;
#X restore 309 225 graph;
#X text 319 333 ------ 130 samples ------;
#X text 518 318 0;
#X text 520 218 12000;
#X restore 934 -72 pd conversion-tables;
#X text 969 -118 patch: Shawn Greenlee;
#X text 968 -170 Fluxama;
#X text 969 -153 droneSalamander;
#X text 969 -135 v1a \, 01/09/2012;
#X obj 636 97 hsl 128 15 0 1 0 0 empty empty empty -2 -8 0 10 -262144
-1 -1 0 1;
#X floatatom 633 237 5 0 0 0 - - -;
#X obj 848 97 hsl 128 15 0 1 0 0 empty empty empty -2 -8 0 10 -262144
-1 -1 0 1;
#X obj 845 177 * 100;
#X floatatom 845 237 5 0 0 0 - - -;
#X obj 844 305 hsl 128 15 0 1 0 0 empty empty empty -2 -8 0 10 -262144
-1 -1 0 1;
#X obj 841 383 * 100;
#X floatatom 841 438 5 0 0 0 - - -;
#X obj 637 418 hsl 128 15 0 1 0 0 empty empty empty -2 -8 0 10 -262144
-1 -1 0 1;
#X floatatom 634 550 5 0 0 0 - - -;
#X obj 634 495 * 30;
#X obj 737 -135 hsl 128 15 0 1 0 0 empty empty empty -2 -8 0 10 -262144
-1 -1 0 1;
#N canvas 0 22 450 300 !- 0;
#X obj 92 21 inlet;
#X obj 124 240 outlet;
#X floatatom 92 57 5 0 0 0 - - -;
#X obj 124 204 - 1;
#X obj 92 106 trigger b f;
#X obj 82 158 f 1;
#X connect 0 0 2 0;
#X connect 2 0 4 0;
#X connect 3 0 1 0;
#X connect 4 0 5 0;
#X connect 4 1 3 1;
#X connect 5 0 3 0;
#X restore 268 61 pd !-;
#X obj 634 522 + 0.25;
#X obj 845 208 + 0.25;
#X obj 841 410 + 0.25;
#X obj 17 90 + 80;
#X obj 404 86 + 80;
#X obj 633 177 * 30;
#X obj 633 206 - 15;
#X obj 18 8 line;
#X obj 18 -20 pack f 200;
#X obj 163 -85 line;
#X obj 163 -113 pack f 200;
#X obj 404 5 line;
#X obj 268 8 line;
#X obj 268 -21 pack f 200;
#X obj 558 -86 line;
#X obj 404 -23 pack f 200;
#X obj 558 -114 pack f 200;
#X obj 734 -85 line;
#X obj 734 -113 pack f 200;
#X obj 845 147 line;
#X obj 845 119 pack f 200;
#X obj 633 147 line;
#X obj 633 119 pack f 200;
#X obj 841 355 line;
#X obj 841 327 pack f 200;
#X obj 634 469 line;
#X obj 634 441 pack f 200;
#X floatatom 163 -59 5 0 0 0 - - -;
#X floatatom 557 -59 5 0 0 0 - - -;
#X obj 252 429 *~ 1;
#X obj 18 -68 r dc1a;
#X obj 163 -163 r dc2a;
#X obj 268 -77 r dc3a;
#X obj 404 -71 r dc4a;
#X obj 558 -163 r dc5a;
#X obj 633 65 r dc6a;
#X obj 734 -167 r dc10a;
#X obj 845 65 r dc7a;
#X obj 841 273 r dc8a;
#X obj 634 386 r dc9a;
#X connect 0 0 5 0;
#X connect 1 0 5 1;
#X connect 2 0 4 0;
#X connect 3 0 2 0;
#X connect 3 0 0 1;
#X connect 4 0 1 1;
#X connect 5 0 34 0;
#X connect 7 0 59 0;
#X connect 8 0 73 0;
#X connect 9 0 70 0;
#X connect 10 0 11 0;
#X connect 11 0 0 0;
#X connect 12 0 11 1;
#X connect 13 0 14 0;
#X connect 14 0 12 0;
#X connect 15 0 13 0;
#X connect 16 0 18 0;
#X connect 17 0 68 0;
#X connect 18 0 63 0;
#X connect 19 0 6 0;
#X connect 19 0 6 1;
#X connect 20 0 19 0;
#X connect 21 0 76 0;
#X connect 22 0 23 0;
#X connect 23 0 1 0;
#X connect 24 0 23 1;
#X connect 25 0 26 0;
#X connect 26 0 24 0;
#X connect 27 0 25 0;
#X connect 28 0 30 0;
#X connect 29 0 75 0;
#X connect 30 0 64 0;
#X connect 33 0 35 0;
#X connect 34 0 89 0;
#X connect 35 0 34 1;
#X connect 40 0 41 0;
#X connect 41 0 33 0;
#X connect 47 0 82 0;
#X connect 48 0 40 0;
#X connect 49 0 80 0;
#X connect 50 0 61 0;
#X connect 51 0 41 1;
#X connect 52 0 84 0;
#X connect 53 0 62 0;
#X connect 54 0 33 1;
#X connect 55 0 86 0;
#X connect 56 0 34 2;
#X connect 57 0 60 0;
#X connect 58 0 78 0;
#X connect 59 0 3 0;
#X connect 60 0 56 0;
#X connect 61 0 51 0;
#X connect 62 0 54 0;
#X connect 63 0 10 0;
#X connect 64 0 22 0;
#X connect 65 0 66 0;
#X connect 66 0 48 0;
#X connect 67 0 16 0;
#X connect 68 0 67 0;
#X connect 69 0 87 0;
#X connect 70 0 69 0;
#X connect 71 0 28 0;
#X connect 72 0 7 0;
#X connect 73 0 72 0;
#X connect 74 0 88 0;
#X connect 75 0 71 0;
#X connect 76 0 74 0;
#X connect 77 0 89 1;
#X connect 78 0 77 0;
#X connect 79 0 50 0;
#X connect 80 0 79 0;
#X connect 81 0 65 0;
#X connect 82 0 81 0;
#X connect 83 0 53 0;
#X connect 84 0 83 0;
#X connect 85 0 57 0;
#X connect 86 0 85 0;
#X connect 87 0 15 0;
#X connect 88 0 27 0;
#X connect 89 0 20 0;
#X connect 90 0 17 0;
#X connect 91 0 9 0;
#X connect 92 0 8 0;
#X connect 93 0 29 0;
#X connect 94 0 21 0;
#X connect 95 0 47 0;
#X connect 96 0 58 0;
#X connect 97 0 49 0;
#X connect 98 0 52 0;
#X connect 99 0 55 0;
