#N canvas -28 22 1380 853 16;
#X obj 423 568 dac~;
#N canvas 0 22 612 404 conversion-tables 0;
#N canvas 0 22 450 300 (subpatch) 0;
#X array mtof 130 float 1;
#A 0 8.1758 8.66196 9.17702 9.72272 10.3009 10.9134 11.5623 12.2499
12.9783 13.75 14.5676 15.4339 16.3516 17.3239 18.354 19.4454 20.6017
21.8268 23.1247 24.4997 25.9565 27.5 29.1352 30.8677 32.7032 34.6478
36.7081 38.8909 41.2034 43.6535 46.2493 48.9994 51.9131 55 58.2705
61.7354 65.4064 69.2957 73.4162 77.7817 82.4069 87.3071 92.4986 97.9989
103.826 110 116.541 123.471 130.813 138.591 146.832 155.563 164.814
174.614 184.997 195.998 207.652 220 233.082 246.942 261.626 277.183
293.665 311.127 329.628 349.228 369.994 391.995 415.305 440 466.164
493.883 523.251 554.365 587.33 622.254 659.255 698.456 739.989 783.991
830.609 880 932.328 987.767 1046.5 1108.73 1174.66 1244.51 1318.51
1396.91 1479.98 1567.98 1661.22 1760 1864.66 1975.53 2093 2217.46 2349.32
2489.02 2637.02 2793.83 2959.96 3135.96 3322.44 3520 3729.31 3951.07
4186.01 4434.92 4698.64 4978.03 5274.04 5587.65 5919.91 6271.93 6644.88
7040 7458.62 7902.13 8372.02 8869.84 9397.27 9956.06 10548.1 11175.3
11839.8 12543.9 13289.8 14080;
#X coords 0 12000 130 0 200 100 1;
#X restore 309 225 graph;
#X text 319 333 ------ 130 samples ------;
#X text 518 318 0;
#X text 520 218 12000;
#X restore 137 546 pd conversion-tables;
#X obj 313 -102 hsl 128 15 0 1 0 0 empty empty empty -2 -8 0 10 -262144
-1 -1 8000 1;
#X obj 310 -130 r dc1a;
#X obj 313 -7 hsl 128 15 0 1 0 0 empty empty empty -2 -8 0 10 -262144
-1 -1 6350 1;
#X obj 448 -64 loadbang;
#X msg 448 -36 0.5;
#X obj 313 -54 hsl 128 15 0 1 0 0 empty empty empty -2 -8 0 10 -262144
-1 -1 1800 1;
#X obj 310 -82 r dc2a;
#X obj 310 -35 r dc3a;
#X obj 313 41 hsl 128 15 0 1 0 0 empty empty empty -2 -8 0 10 -262144
-1 -1 8100 1;
#N canvas 217 22 1335 800 voice1_______________ 0;
#N canvas 0 22 450 300 !- 0;
#X obj 92 21 inlet;
#X obj 124 240 outlet;
#X floatatom 92 57 5 0 0 0 - - -;
#X obj 124 204 - 1;
#X obj 92 106 trigger b f;
#X obj 82 158 f 1;
#X connect 0 0 2 0;
#X connect 2 0 4 0;
#X connect 3 0 1 0;
#X connect 4 0 5 0;
#X connect 4 1 3 1;
#X connect 5 0 3 0;
#X restore 267 27 pd !-;
#X floatatom 267 -6 5 0 0 0 - - -;
#X floatatom 267 55 5 0 0 0 - - -;
#X obj 20 215 +~;
#X floatatom 267 -60 5 0 0 0 - - -;
#N canvas 0 22 450 300 !- 0;
#X obj 92 21 inlet;
#X obj 124 240 outlet;
#X floatatom 92 57 5 0 0 0 - - -;
#X obj 124 204 - 1;
#X obj 92 106 trigger b f;
#X obj 82 158 f 1;
#X connect 0 0 2 0;
#X connect 2 0 4 0;
#X connect 3 0 1 0;
#X connect 4 0 5 0;
#X connect 4 1 3 1;
#X connect 5 0 3 0;
#X restore 267 -35 pd !-;
#X obj 267 -88 line;
#X obj 267 -116 pack f 200;
#X obj 20 -144 inlet;
#X obj 120 -144 inlet;
#X obj 267 -144 inlet;
#X obj 366 -144 inlet;
#X obj 466 -144 inlet;
#X obj 20 578 outlet~;
#X obj 20 -100 * 500;
#X floatatom 20 -44 5 0 0 0 - - -;
#X floatatom 120 -43 5 0 0 0 - - -;
#X obj 20 157 *~;
#X obj 367 -96 * 500;
#X floatatom 367 -40 5 0 0 0 - - -;
#X floatatom 467 -39 5 0 0 0 - - -;
#X obj 367 161 *~;
#X obj 120 -70 + 0.001;
#X obj 467 -66 + 0.001;
#X obj 642 83 +~;
#X text 1005 -40 <-- Q (selectivity);
#X text 685 -14 <-- sweep speed;
#X text 793 -45 <-- sweep depth;
#X text 902 18 <-- base center frequency;
#X obj 641 3 phasor~;
#X obj 642 54 *~;
#X floatatom 641 -25 5 0 0 0 - - -;
#X floatatom 741 -42 5 0 0 0 - - -;
#X floatatom 844 19 5 0 0 0 - - -;
#X floatatom 947 -37 5 0 0 0 - - -;
#X obj 1049 -130 line;
#X obj 1049 -159 pack f 200;
#X obj 741 -130 line;
#X obj 741 -159 pack f 200;
#X obj 641 -130 line;
#X obj 641 -159 pack f 200;
#X obj 845 -130 line;
#X obj 846 -159 pack f 200;
#X obj 947 -130 line;
#X obj 947 -159 pack f 200;
#X floatatom 1050 -18 5 0 0 0 - - -;
#X obj 84 474 *~ 0.4;
#X obj 641 -187 inlet;
#X obj 741 -187 inlet;
#X obj 846 -187 inlet;
#X obj 947 -187 inlet;
#X obj 1049 -187 inlet;
#X obj 741 -101 * 50;
#X obj 641 -101 * -20;
#X obj 641 -73 + 0;
#X obj 845 -71 + 0;
#N canvas 617 22 744 726 sqTrem 0;
#X floatatom 58 49 5 0 0 0 - - -;
#X obj 489 177 osc~;
#X obj 489 149 line~;
#X obj 489 121 pack f 200;
#X floatatom 489 96 10 0 0 0 - - -;
#X obj 489 205 *~ 0.5;
#X obj 489 58 inlet;
#X obj 58 14 inlet;
#X obj 60 529 outlet~;
#X obj 58 200 phasor~;
#X obj 136 141 * -1;
#X obj 136 200 phasor~;
#X obj 257 77 r phasesynch;
#X obj 257 110 bng 15 250 50 0 empty empty empty 17 7 0 10 -262144
-1 -1;
#X msg 257 139 0;
#X msg 310 139 0.5;
#X obj 58 278 +~;
#X obj 58 306 -~ 1;
#X obj 60 469 *~;
#X connect 0 0 9 0;
#X connect 0 0 10 0;
#X connect 1 0 5 0;
#X connect 2 0 1 0;
#X connect 3 0 2 0;
#X connect 4 0 3 0;
#X connect 5 0 18 1;
#X connect 6 0 4 0;
#X connect 7 0 0 0;
#X connect 9 0 16 0;
#X connect 10 0 11 0;
#X connect 11 0 16 1;
#X connect 12 0 13 0;
#X connect 13 0 14 0;
#X connect 13 0 15 0;
#X connect 14 0 9 1;
#X connect 15 0 11 1;
#X connect 16 0 17 0;
#X connect 17 0 18 0;
#X connect 18 0 8 0;
#X restore 20 56 pd sqTrem;
#X obj 20 -72 + 80;
#N canvas 617 22 744 726 sqTrem 0;
#X floatatom 58 49 5 0 0 0 - - -;
#X obj 489 177 osc~;
#X obj 489 149 line~;
#X obj 489 121 pack f 200;
#X floatatom 489 96 10 0 0 0 - - -;
#X obj 489 205 *~ 0.5;
#X obj 489 58 inlet;
#X obj 58 14 inlet;
#X obj 60 529 outlet~;
#X obj 58 200 phasor~;
#X obj 136 141 * -1;
#X obj 136 200 phasor~;
#X obj 257 77 r phasesynch;
#X obj 257 110 bng 15 250 50 0 empty empty empty 17 7 0 10 -262144
-1 -1;
#X msg 257 139 0;
#X msg 310 139 0.5;
#X obj 58 278 +~;
#X obj 58 306 -~ 1;
#X obj 60 469 *~;
#X connect 0 0 9 0;
#X connect 0 0 10 0;
#X connect 1 0 5 0;
#X connect 2 0 1 0;
#X connect 3 0 2 0;
#X connect 4 0 3 0;
#X connect 5 0 18 1;
#X connect 6 0 4 0;
#X connect 7 0 0 0;
#X connect 9 0 16 0;
#X connect 10 0 11 0;
#X connect 11 0 16 1;
#X connect 12 0 13 0;
#X connect 13 0 14 0;
#X connect 13 0 15 0;
#X connect 14 0 9 1;
#X connect 15 0 11 1;
#X connect 16 0 17 0;
#X connect 17 0 18 0;
#X connect 18 0 8 0;
#X restore 376 32 pd sqTrem;
#X obj 367 -68 + 80;
#X obj 57 306 vcf~;
#N canvas 0 22 450 300 !- 0;
#X obj 92 21 inlet;
#X obj 124 240 outlet;
#X floatatom 92 57 5 0 0 0 - - -;
#X obj 124 204 - 1;
#X obj 92 106 trigger b f;
#X obj 82 158 f 1;
#X connect 0 0 2 0;
#X connect 2 0 4 0;
#X connect 3 0 1 0;
#X connect 4 0 5 0;
#X connect 4 1 3 1;
#X connect 5 0 3 0;
#X restore 947 -101 pd !-;
#X obj 741 -71 + 20;
#X obj 947 -73 + 0.1;
#X obj 73 270 tabread4~ mtof;
#X obj 845 -101 * 40;
#X obj 84 502 *~ 0.6;
#N canvas 617 22 744 726 sqTrem 0;
#X floatatom 58 49 5 0 0 0 - - -;
#X obj 489 177 osc~;
#X obj 489 149 line~;
#X obj 489 121 pack f 200;
#X floatatom 489 96 10 0 0 0 - - -;
#X obj 489 205 *~ 0.5;
#X obj 489 58 inlet;
#X obj 58 14 inlet;
#X obj 60 529 outlet~;
#X obj 58 200 phasor~;
#X obj 136 141 * -1;
#X obj 136 200 phasor~;
#X obj 257 77 r phasesynch;
#X obj 257 110 bng 15 250 50 0 empty empty empty 17 7 0 10 -262144
-1 -1;
#X msg 257 139 0;
#X msg 310 139 0.5;
#X obj 58 278 +~;
#X obj 58 306 -~ 1;
#X obj 60 469 *~;
#X connect 0 0 9 0;
#X connect 0 0 10 0;
#X connect 1 0 5 0;
#X connect 2 0 1 0;
#X connect 3 0 2 0;
#X connect 4 0 3 0;
#X connect 5 0 18 1;
#X connect 6 0 4 0;
#X connect 7 0 0 0;
#X connect 9 0 16 0;
#X connect 10 0 11 0;
#X connect 11 0 16 1;
#X connect 12 0 13 0;
#X connect 13 0 14 0;
#X connect 13 0 15 0;
#X connect 14 0 9 1;
#X connect 15 0 11 1;
#X connect 16 0 17 0;
#X connect 17 0 18 0;
#X connect 18 0 8 0;
#X restore 113 55 pd sqTrem;
#X obj 52 3 * 1.3;
#N canvas 617 22 744 726 sqTrem 0;
#X floatatom 58 49 5 0 0 0 - - -;
#X obj 489 177 osc~;
#X obj 489 149 line~;
#X obj 489 121 pack f 200;
#X floatatom 489 96 10 0 0 0 - - -;
#X obj 489 205 *~ 0.5;
#X obj 489 58 inlet;
#X obj 58 14 inlet;
#X obj 60 529 outlet~;
#X obj 58 200 phasor~;
#X obj 136 141 * -1;
#X obj 136 200 phasor~;
#X obj 257 77 r phasesynch;
#X obj 257 110 bng 15 250 50 0 empty empty empty 17 7 0 10 -262144
-1 -1;
#X msg 257 139 0;
#X msg 310 139 0.5;
#X obj 58 278 +~;
#X obj 58 306 -~ 1;
#X obj 60 469 *~;
#X connect 0 0 9 0;
#X connect 0 0 10 0;
#X connect 1 0 5 0;
#X connect 2 0 1 0;
#X connect 3 0 2 0;
#X connect 4 0 3 0;
#X connect 5 0 18 1;
#X connect 6 0 4 0;
#X connect 7 0 0 0;
#X connect 9 0 16 0;
#X connect 10 0 11 0;
#X connect 11 0 16 1;
#X connect 12 0 13 0;
#X connect 13 0 14 0;
#X connect 13 0 15 0;
#X connect 14 0 9 1;
#X connect 15 0 11 1;
#X connect 16 0 17 0;
#X connect 17 0 18 0;
#X connect 18 0 8 0;
#X restore 463 31 pd sqTrem;
#X obj 20 101 *~ 0.7;
#X obj 87 101 *~ 0.5;
#X obj 362 82 *~ 0.7;
#X obj 429 82 *~ 0.5;
#X obj 428 -9 * 1.2;
#X obj 467 -95 * 1;
#X obj 120 -99 * 2;
#X connect 0 0 2 0;
#X connect 1 0 0 0;
#X connect 1 0 17 1;
#X connect 2 0 21 1;
#X connect 3 0 60 0;
#X connect 4 0 5 0;
#X connect 5 0 1 0;
#X connect 6 0 4 0;
#X connect 7 0 6 0;
#X connect 8 0 14 0;
#X connect 9 0 76 0;
#X connect 10 0 7 0;
#X connect 11 0 18 0;
#X connect 12 0 75 0;
#X connect 14 0 57 0;
#X connect 15 0 56 0;
#X connect 15 0 68 0;
#X connect 16 0 56 1;
#X connect 16 0 67 1;
#X connect 17 0 3 0;
#X connect 18 0 59 0;
#X connect 19 0 58 0;
#X connect 19 0 74 0;
#X connect 20 0 69 1;
#X connect 20 0 58 1;
#X connect 21 0 3 1;
#X connect 22 0 16 0;
#X connect 23 0 20 0;
#X connect 24 0 64 0;
#X connect 29 0 30 0;
#X connect 30 0 24 0;
#X connect 31 0 29 0;
#X connect 32 0 30 1;
#X connect 33 0 24 1;
#X connect 34 0 60 2;
#X connect 35 0 45 0;
#X connect 36 0 35 0;
#X connect 37 0 52 0;
#X connect 38 0 37 0;
#X connect 39 0 53 0;
#X connect 40 0 39 0;
#X connect 41 0 65 0;
#X connect 42 0 41 0;
#X connect 43 0 61 0;
#X connect 44 0 43 0;
#X connect 45 0 46 1;
#X connect 46 0 66 0;
#X connect 47 0 40 0;
#X connect 48 0 38 0;
#X connect 49 0 42 0;
#X connect 50 0 44 0;
#X connect 51 0 36 0;
#X connect 52 0 62 0;
#X connect 53 0 54 0;
#X connect 54 0 31 0;
#X connect 55 0 33 0;
#X connect 56 0 70 0;
#X connect 57 0 15 0;
#X connect 58 0 72 0;
#X connect 59 0 19 0;
#X connect 60 0 46 0;
#X connect 61 0 63 0;
#X connect 62 0 32 0;
#X connect 63 0 34 0;
#X connect 64 0 60 1;
#X connect 65 0 55 0;
#X connect 66 0 13 0;
#X connect 67 0 71 0;
#X connect 68 0 67 0;
#X connect 69 0 73 0;
#X connect 70 0 17 0;
#X connect 71 0 17 0;
#X connect 72 0 21 0;
#X connect 73 0 21 0;
#X connect 74 0 69 0;
#X connect 75 0 23 0;
#X connect 76 0 22 0;
#X restore 80 60 pd voice1_______________;
#X obj 313 88 hsl 128 15 0 1 0 0 empty empty empty -2 -8 0 10 -262144
-1 -1 12700 1;
#X obj 310 13 r dc4a;
#X obj 310 60 r dc5a;
#X obj 315 135 hsl 128 15 0 1 0 0 empty empty empty -2 -8 0 10 -262144
-1 -1 8600 1;
#X obj 314 229 hsl 128 15 0 1 0 0 empty empty empty -2 -8 0 10 -262144
-1 -1 5900 1;
#X obj 314 182 hsl 128 15 0 1 0 0 empty empty empty -2 -8 0 10 -262144
-1 -1 7700 1;
#X obj 315 276 hsl 128 15 0 1 0 0 empty empty empty -2 -8 0 10 -262144
-1 -1 7700 1;
#X obj 314 323 hsl 128 15 0 1 0 0 empty empty empty -2 -8 0 10 -262144
-1 -1 12700 1;
#X obj 311 107 r dc6a;
#X obj 311 154 r dc7a;
#X obj 311 201 r dc8a;
#X obj 311 248 r dc9a;
#X obj 311 295 r dc10a;
#X obj 694 -102 hsl 128 15 0 1 0 0 empty empty empty -2 -8 0 10 -262144
-1 -1 9200 1;
#X obj 694 -7 hsl 128 15 0 1 0 0 empty empty empty -2 -8 0 10 -262144
-1 -1 6350 1;
#X obj 829 -64 loadbang;
#X msg 829 -36 0.5;
#X obj 694 -54 hsl 128 15 0 1 0 0 empty empty empty -2 -8 0 10 -262144
-1 -1 2900 1;
#X obj 694 41 hsl 128 15 0 1 0 0 empty empty empty -2 -8 0 10 -262144
-1 -1 9300 1;
#X obj 694 88 hsl 128 15 0 1 0 0 empty empty empty -2 -8 0 10 -262144
-1 -1 12700 1;
#X obj 695 135 hsl 128 15 0 1 0 0 empty empty empty -2 -8 0 10 -262144
-1 -1 9300 1;
#X obj 695 229 hsl 128 15 0 1 0 0 empty empty empty -2 -8 0 10 -262144
-1 -1 8200 1;
#X obj 695 182 hsl 128 15 0 1 0 0 empty empty empty -2 -8 0 10 -262144
-1 -1 7700 1;
#X obj 695 276 hsl 128 15 0 1 0 0 empty empty empty -2 -8 0 10 -262144
-1 -1 7900 1;
#X obj 695 323 hsl 128 15 0 1 0 0 empty empty empty -2 -8 0 10 -262144
-1 -1 9900 1;
#X obj 1093 -98 hsl 128 15 0 1 0 0 empty empty empty -2 -8 0 10 -262144
-1 -1 9000 1;
#X obj 1093 -3 hsl 128 15 0 1 0 0 empty empty empty -2 -8 0 10 -262144
-1 -1 6350 1;
#X obj 1228 -60 loadbang;
#X msg 1228 -32 0.5;
#X obj 1093 -50 hsl 128 15 0 1 0 0 empty empty empty -2 -8 0 10 -262144
-1 -1 3100 1;
#X obj 1093 45 hsl 128 15 0 1 0 0 empty empty empty -2 -8 0 10 -262144
-1 -1 9000 1;
#X obj 1093 92 hsl 128 15 0 1 0 0 empty empty empty -2 -8 0 10 -262144
-1 -1 12700 1;
#X obj 1094 139 hsl 128 15 0 1 0 0 empty empty empty -2 -8 0 10 -262144
-1 -1 8700 1;
#X obj 1094 233 hsl 128 15 0 1 0 0 empty empty empty -2 -8 0 10 -262144
-1 -1 9100 1;
#X obj 1094 186 hsl 128 15 0 1 0 0 empty empty empty -2 -8 0 10 -262144
-1 -1 5500 1;
#X obj 1094 280 hsl 128 15 0 1 0 0 empty empty empty -2 -8 0 10 -262144
-1 -1 7100 1;
#X obj 1094 327 hsl 128 15 0 1 0 0 empty empty empty -2 -8 0 10 -262144
-1 -1 12700 1;
#X obj 691 -130 r dc1b;
#X obj 691 -82 r dc2b;
#X obj 691 -35 r dc3b;
#X obj 691 13 r dc4b;
#X obj 691 60 r dc5b;
#X obj 692 107 r dc6b;
#X obj 692 154 r dc7b;
#X obj 692 201 r dc8b;
#X obj 692 248 r dc9b;
#X obj 692 295 r dc10b;
#X obj 1090 -126 r dc1c;
#X obj 1090 -78 r dc2c;
#X obj 1090 -31 r dc3c;
#X obj 1090 17 r dc4c;
#X obj 1090 64 r dc5c;
#X obj 1091 111 r dc6c;
#X obj 1091 158 r dc7c;
#X obj 1091 205 r dc8c;
#X obj 1091 252 r dc9c;
#X obj 1091 299 r dc10c;
#X obj 113 341 s phasesynch;
#X obj 113 299 bng 15 250 50 0 empty empty empty 17 7 0 10 -262144
-1 -1;
#X obj 423 526 clip~ -1 1;
#X obj 423 490 hip~ 1;
#N canvas 358 60 772 415 pan 0;
#X obj 41 41 inlet~;
#X obj 273 77 sig~;
#X obj 420 -21 inlet;
#X obj 273 105 lop~ 1;
#X obj 46 293 *~;
#X obj 70 222 sqrt~;
#X obj 84 350 outlet~;
#X obj 138 294 *~;
#X obj 176 351 outlet~;
#N canvas 0 22 450 300 !- 0;
#X obj 92 21 inlet;
#X obj 124 240 outlet;
#X floatatom 92 57 5 0 0 0 - - -;
#X obj 124 204 - 1;
#X obj 92 106 trigger b f;
#X obj 82 158 f 1;
#X connect 0 0 2 0;
#X connect 2 0 4 0;
#X connect 3 0 1 0;
#X connect 4 0 5 0;
#X connect 4 1 3 1;
#X connect 5 0 3 0;
#X restore 420 155 pd !-;
#X floatatom 420 122 5 0 0 0 - - -;
#X floatatom 420 183 5 0 0 0 - - -;
#X floatatom 420 68 5 0 0 0 - - -;
#N canvas 0 22 450 300 !- 0;
#X obj 92 21 inlet;
#X obj 124 240 outlet;
#X floatatom 92 57 5 0 0 0 - - -;
#X obj 124 204 - 1;
#X obj 92 106 trigger b f;
#X obj 82 158 f 1;
#X connect 0 0 2 0;
#X connect 2 0 4 0;
#X connect 3 0 1 0;
#X connect 4 0 5 0;
#X connect 4 1 3 1;
#X connect 5 0 3 0;
#X restore 420 93 pd !-;
#X obj 420 40 line;
#X obj 420 12 pack f 200;
#X obj 336 78 sig~;
#X obj 336 106 lop~ 1;
#X connect 0 0 4 0;
#X connect 0 0 7 0;
#X connect 1 0 3 0;
#X connect 2 0 15 0;
#X connect 3 0 5 0;
#X connect 4 0 6 0;
#X connect 5 0 4 1;
#X connect 7 0 8 0;
#X connect 9 0 11 0;
#X connect 10 0 9 0;
#X connect 10 0 16 0;
#X connect 11 0 1 0;
#X connect 12 0 13 0;
#X connect 13 0 10 0;
#X connect 14 0 12 0;
#X connect 15 0 14 0;
#X connect 16 0 17 0;
#X connect 17 0 7 1;
#X restore 423 454 pd pan;
#X obj 477 422 hsl 128 15 0 1 0 0 empty empty empty -2 -8 0 10 -262144
-1 -1 0 1;
#X obj 526 526 clip~ -1 1;
#X obj 526 490 hip~ 1;
#N canvas 358 60 772 415 pan 0;
#X obj 41 41 inlet~;
#X obj 273 77 sig~;
#X obj 420 -21 inlet;
#X obj 273 105 lop~ 1;
#X obj 46 293 *~;
#X obj 70 222 sqrt~;
#X obj 84 350 outlet~;
#X obj 138 294 *~;
#X obj 176 351 outlet~;
#N canvas 0 22 450 300 !- 0;
#X obj 92 21 inlet;
#X obj 124 240 outlet;
#X floatatom 92 57 5 0 0 0 - - -;
#X obj 124 204 - 1;
#X obj 92 106 trigger b f;
#X obj 82 158 f 1;
#X connect 0 0 2 0;
#X connect 2 0 4 0;
#X connect 3 0 1 0;
#X connect 4 0 5 0;
#X connect 4 1 3 1;
#X connect 5 0 3 0;
#X restore 420 155 pd !-;
#X floatatom 420 122 5 0 0 0 - - -;
#X floatatom 420 183 5 0 0 0 - - -;
#X floatatom 420 68 5 0 0 0 - - -;
#N canvas 0 22 450 300 !- 0;
#X obj 92 21 inlet;
#X obj 124 240 outlet;
#X floatatom 92 57 5 0 0 0 - - -;
#X obj 124 204 - 1;
#X obj 92 106 trigger b f;
#X obj 82 158 f 1;
#X connect 0 0 2 0;
#X connect 2 0 4 0;
#X connect 3 0 1 0;
#X connect 4 0 5 0;
#X connect 4 1 3 1;
#X connect 5 0 3 0;
#X restore 420 93 pd !-;
#X obj 420 40 line;
#X obj 420 12 pack f 200;
#X obj 336 78 sig~;
#X obj 336 106 lop~ 1;
#X connect 0 0 4 0;
#X connect 0 0 7 0;
#X connect 1 0 3 0;
#X connect 2 0 15 0;
#X connect 3 0 5 0;
#X connect 4 0 6 0;
#X connect 5 0 4 1;
#X connect 7 0 8 0;
#X connect 9 0 11 0;
#X connect 10 0 9 0;
#X connect 10 0 16 0;
#X connect 11 0 1 0;
#X connect 12 0 13 0;
#X connect 13 0 10 0;
#X connect 14 0 12 0;
#X connect 15 0 14 0;
#X connect 16 0 17 0;
#X connect 17 0 7 1;
#X restore 631 454 pd pan;
#X obj 685 422 hsl 128 15 0 1 0 0 empty empty empty -2 -8 0 10 -262144
-1 -1 6350 1;
#N canvas 358 60 772 415 pan 0;
#X obj 41 41 inlet~;
#X obj 273 77 sig~;
#X obj 420 -21 inlet;
#X obj 273 105 lop~ 1;
#X obj 46 293 *~;
#X obj 70 222 sqrt~;
#X obj 84 350 outlet~;
#X obj 138 294 *~;
#X obj 176 351 outlet~;
#N canvas 0 22 450 300 !- 0;
#X obj 92 21 inlet;
#X obj 124 240 outlet;
#X floatatom 92 57 5 0 0 0 - - -;
#X obj 124 204 - 1;
#X obj 92 106 trigger b f;
#X obj 82 158 f 1;
#X connect 0 0 2 0;
#X connect 2 0 4 0;
#X connect 3 0 1 0;
#X connect 4 0 5 0;
#X connect 4 1 3 1;
#X connect 5 0 3 0;
#X restore 420 155 pd !-;
#X floatatom 420 122 5 0 0 0 - - -;
#X floatatom 420 183 5 0 0 0 - - -;
#X floatatom 420 68 5 0 0 0 - - -;
#N canvas 0 22 450 300 !- 0;
#X obj 92 21 inlet;
#X obj 124 240 outlet;
#X floatatom 92 57 5 0 0 0 - - -;
#X obj 124 204 - 1;
#X obj 92 106 trigger b f;
#X obj 82 158 f 1;
#X connect 0 0 2 0;
#X connect 2 0 4 0;
#X connect 3 0 1 0;
#X connect 4 0 5 0;
#X connect 4 1 3 1;
#X connect 5 0 3 0;
#X restore 420 93 pd !-;
#X obj 420 40 line;
#X obj 420 12 pack f 200;
#X obj 336 78 sig~;
#X obj 336 106 lop~ 1;
#X connect 0 0 4 0;
#X connect 0 0 7 0;
#X connect 1 0 3 0;
#X connect 2 0 15 0;
#X connect 3 0 5 0;
#X connect 4 0 6 0;
#X connect 5 0 4 1;
#X connect 7 0 8 0;
#X connect 9 0 11 0;
#X connect 10 0 9 0;
#X connect 10 0 16 0;
#X connect 11 0 1 0;
#X connect 12 0 13 0;
#X connect 13 0 10 0;
#X connect 14 0 12 0;
#X connect 15 0 14 0;
#X connect 16 0 17 0;
#X connect 17 0 7 1;
#X restore 837 454 pd pan;
#X obj 891 422 hsl 128 15 0 1 0 0 empty empty empty -2 -8 0 10 -262144
-1 -1 12700 1;
#X obj 250 370 loadbang;
#X msg 250 398 0;
#X obj 568 297 loadbang;
#X msg 568 325 0.5;
#X obj 929 303 loadbang;
#X msg 929 331 1;
#N canvas 217 22 1335 800 voice3_______________ 0;
#N canvas 0 22 450 300 !- 0;
#X obj 92 21 inlet;
#X obj 124 240 outlet;
#X floatatom 92 57 5 0 0 0 - - -;
#X obj 124 204 - 1;
#X obj 92 106 trigger b f;
#X obj 82 158 f 1;
#X connect 0 0 2 0;
#X connect 2 0 4 0;
#X connect 3 0 1 0;
#X connect 4 0 5 0;
#X connect 4 1 3 1;
#X connect 5 0 3 0;
#X restore 267 27 pd !-;
#X floatatom 267 -6 5 0 0 0 - - -;
#X floatatom 267 55 5 0 0 0 - - -;
#X obj 20 215 +~;
#X floatatom 267 -60 5 0 0 0 - - -;
#N canvas 0 22 450 300 !- 0;
#X obj 92 21 inlet;
#X obj 124 240 outlet;
#X floatatom 92 57 5 0 0 0 - - -;
#X obj 124 204 - 1;
#X obj 92 106 trigger b f;
#X obj 82 158 f 1;
#X connect 0 0 2 0;
#X connect 2 0 4 0;
#X connect 3 0 1 0;
#X connect 4 0 5 0;
#X connect 4 1 3 1;
#X connect 5 0 3 0;
#X restore 267 -35 pd !-;
#X obj 267 -88 line;
#X obj 267 -116 pack f 200;
#X obj 20 -144 inlet;
#X obj 120 -144 inlet;
#X obj 267 -144 inlet;
#X obj 366 -144 inlet;
#X obj 466 -144 inlet;
#X obj 20 578 outlet~;
#X floatatom 20 -44 5 0 0 0 - - -;
#X floatatom 120 -43 5 0 0 0 - - -;
#X obj 20 157 *~;
#X floatatom 367 -40 5 0 0 0 - - -;
#X floatatom 467 -39 5 0 0 0 - - -;
#X obj 367 161 *~;
#X obj 120 -70 + 0.001;
#X obj 467 -66 + 0.001;
#X obj 642 83 +~;
#X text 1005 -40 <-- Q (selectivity);
#X text 685 -14 <-- sweep speed;
#X text 793 -45 <-- sweep depth;
#X text 902 18 <-- base center frequency;
#X obj 641 3 phasor~;
#X obj 642 54 *~;
#X floatatom 641 -25 5 0 0 0 - - -;
#X floatatom 741 -42 5 0 0 0 - - -;
#X floatatom 844 19 5 0 0 0 - - -;
#X floatatom 947 -37 5 0 0 0 - - -;
#X obj 1049 -130 line;
#X obj 1049 -159 pack f 200;
#X obj 741 -130 line;
#X obj 741 -159 pack f 200;
#X obj 641 -130 line;
#X obj 641 -159 pack f 200;
#X obj 845 -130 line;
#X obj 846 -159 pack f 200;
#X obj 947 -130 line;
#X obj 947 -159 pack f 200;
#X floatatom 1050 -18 5 0 0 0 - - -;
#X obj 84 474 *~ 0.4;
#X obj 641 -187 inlet;
#X obj 741 -187 inlet;
#X obj 846 -187 inlet;
#X obj 947 -187 inlet;
#X obj 1049 -187 inlet;
#X obj 741 -101 * 50;
#X obj 641 -73 + 0;
#X obj 845 -71 + 0;
#N canvas 617 22 744 726 sqTrem 0;
#X floatatom 58 49 5 0 0 0 - - -;
#X obj 489 177 osc~;
#X obj 489 149 line~;
#X obj 489 121 pack f 200;
#X floatatom 489 96 10 0 0 0 - - -;
#X obj 489 205 *~ 0.5;
#X obj 489 58 inlet;
#X obj 58 14 inlet;
#X obj 60 529 outlet~;
#X obj 58 200 phasor~;
#X obj 136 141 * -1;
#X obj 136 200 phasor~;
#X obj 257 77 r phasesynch;
#X obj 257 110 bng 15 250 50 0 empty empty empty 17 7 0 10 -262144
-1 -1;
#X msg 257 139 0;
#X msg 310 139 0.5;
#X obj 58 278 +~;
#X obj 58 306 -~ 1;
#X obj 60 469 *~;
#X connect 0 0 9 0;
#X connect 0 0 10 0;
#X connect 1 0 5 0;
#X connect 2 0 1 0;
#X connect 3 0 2 0;
#X connect 4 0 3 0;
#X connect 5 0 18 1;
#X connect 6 0 4 0;
#X connect 7 0 0 0;
#X connect 9 0 16 0;
#X connect 10 0 11 0;
#X connect 11 0 16 1;
#X connect 12 0 13 0;
#X connect 13 0 14 0;
#X connect 13 0 15 0;
#X connect 14 0 9 1;
#X connect 15 0 11 1;
#X connect 16 0 17 0;
#X connect 17 0 18 0;
#X connect 18 0 8 0;
#X restore 20 56 pd sqTrem;
#N canvas 617 22 744 726 sqTrem 0;
#X floatatom 58 49 5 0 0 0 - - -;
#X obj 489 177 osc~;
#X obj 489 149 line~;
#X obj 489 121 pack f 200;
#X floatatom 489 96 10 0 0 0 - - -;
#X obj 489 205 *~ 0.5;
#X obj 489 58 inlet;
#X obj 58 14 inlet;
#X obj 60 529 outlet~;
#X obj 58 200 phasor~;
#X obj 136 141 * -1;
#X obj 136 200 phasor~;
#X obj 257 77 r phasesynch;
#X obj 257 110 bng 15 250 50 0 empty empty empty 17 7 0 10 -262144
-1 -1;
#X msg 257 139 0;
#X msg 310 139 0.5;
#X obj 58 278 +~;
#X obj 58 306 -~ 1;
#X obj 60 469 *~;
#X connect 0 0 9 0;
#X connect 0 0 10 0;
#X connect 1 0 5 0;
#X connect 2 0 1 0;
#X connect 3 0 2 0;
#X connect 4 0 3 0;
#X connect 5 0 18 1;
#X connect 6 0 4 0;
#X connect 7 0 0 0;
#X connect 9 0 16 0;
#X connect 10 0 11 0;
#X connect 11 0 16 1;
#X connect 12 0 13 0;
#X connect 13 0 14 0;
#X connect 13 0 15 0;
#X connect 14 0 9 1;
#X connect 15 0 11 1;
#X connect 16 0 17 0;
#X connect 17 0 18 0;
#X connect 18 0 8 0;
#X restore 376 32 pd sqTrem;
#X obj 57 306 vcf~;
#N canvas 0 22 450 300 !- 0;
#X obj 92 21 inlet;
#X obj 124 240 outlet;
#X floatatom 92 57 5 0 0 0 - - -;
#X obj 124 204 - 1;
#X obj 92 106 trigger b f;
#X obj 82 158 f 1;
#X connect 0 0 2 0;
#X connect 2 0 4 0;
#X connect 3 0 1 0;
#X connect 4 0 5 0;
#X connect 4 1 3 1;
#X connect 5 0 3 0;
#X restore 947 -101 pd !-;
#X obj 741 -71 + 20;
#X obj 947 -73 + 0.1;
#X obj 73 270 tabread4~ mtof;
#X obj 845 -101 * 40;
#X obj 84 502 *~ 0.6;
#N canvas 617 22 744 726 sqTrem 0;
#X floatatom 58 49 5 0 0 0 - - -;
#X obj 489 177 osc~;
#X obj 489 149 line~;
#X obj 489 121 pack f 200;
#X floatatom 489 96 10 0 0 0 - - -;
#X obj 489 205 *~ 0.5;
#X obj 489 58 inlet;
#X obj 58 14 inlet;
#X obj 60 529 outlet~;
#X obj 58 200 phasor~;
#X obj 136 141 * -1;
#X obj 136 200 phasor~;
#X obj 257 77 r phasesynch;
#X obj 257 110 bng 15 250 50 0 empty empty empty 17 7 0 10 -262144
-1 -1;
#X msg 257 139 0;
#X msg 310 139 0.5;
#X obj 58 278 +~;
#X obj 58 306 -~ 1;
#X obj 60 469 *~;
#X connect 0 0 9 0;
#X connect 0 0 10 0;
#X connect 1 0 5 0;
#X connect 2 0 1 0;
#X connect 3 0 2 0;
#X connect 4 0 3 0;
#X connect 5 0 18 1;
#X connect 6 0 4 0;
#X connect 7 0 0 0;
#X connect 9 0 16 0;
#X connect 10 0 11 0;
#X connect 11 0 16 1;
#X connect 12 0 13 0;
#X connect 13 0 14 0;
#X connect 13 0 15 0;
#X connect 14 0 9 1;
#X connect 15 0 11 1;
#X connect 16 0 17 0;
#X connect 17 0 18 0;
#X connect 18 0 8 0;
#X restore 113 55 pd sqTrem;
#N canvas 617 22 744 726 sqTrem 0;
#X floatatom 58 49 5 0 0 0 - - -;
#X obj 489 177 osc~;
#X obj 489 149 line~;
#X obj 489 121 pack f 200;
#X floatatom 489 96 10 0 0 0 - - -;
#X obj 489 205 *~ 0.5;
#X obj 489 58 inlet;
#X obj 58 14 inlet;
#X obj 60 529 outlet~;
#X obj 58 200 phasor~;
#X obj 136 141 * -1;
#X obj 136 200 phasor~;
#X obj 257 77 r phasesynch;
#X obj 257 110 bng 15 250 50 0 empty empty empty 17 7 0 10 -262144
-1 -1;
#X msg 257 139 0;
#X msg 310 139 0.5;
#X obj 58 278 +~;
#X obj 58 306 -~ 1;
#X obj 60 469 *~;
#X connect 0 0 9 0;
#X connect 0 0 10 0;
#X connect 1 0 5 0;
#X connect 2 0 1 0;
#X connect 3 0 2 0;
#X connect 4 0 3 0;
#X connect 5 0 18 1;
#X connect 6 0 4 0;
#X connect 7 0 0 0;
#X connect 9 0 16 0;
#X connect 10 0 11 0;
#X connect 11 0 16 1;
#X connect 12 0 13 0;
#X connect 13 0 14 0;
#X connect 13 0 15 0;
#X connect 14 0 9 1;
#X connect 15 0 11 1;
#X connect 16 0 17 0;
#X connect 17 0 18 0;
#X connect 18 0 8 0;
#X restore 463 31 pd sqTrem;
#X obj 20 101 *~ 0.7;
#X obj 87 101 *~ 0.5;
#X obj 362 82 *~ 0.7;
#X obj 429 82 *~ 0.5;
#X obj 52 3 * 2;
#X obj 20 -100 * 700;
#X obj 367 -96 * 700;
#X obj 20 -72 + 75;
#X obj 367 -68 + 75;
#X obj 428 -9 * 2.3;
#X obj 120 -99 * 4;
#X obj 467 -95 * 1;
#X obj 641 -101 * -24;
#X connect 0 0 2 0;
#X connect 1 0 0 0;
#X connect 1 0 16 1;
#X connect 2 0 19 1;
#X connect 3 0 55 0;
#X connect 4 0 5 0;
#X connect 5 0 1 0;
#X connect 6 0 4 0;
#X connect 7 0 6 0;
#X connect 8 0 69 0;
#X connect 9 0 74 0;
#X connect 10 0 7 0;
#X connect 11 0 70 0;
#X connect 12 0 75 0;
#X connect 14 0 53 0;
#X connect 14 0 68 0;
#X connect 15 0 53 1;
#X connect 15 0 62 1;
#X connect 16 0 3 0;
#X connect 17 0 54 0;
#X connect 17 0 73 0;
#X connect 18 0 63 1;
#X connect 18 0 54 1;
#X connect 19 0 3 1;
#X connect 20 0 15 0;
#X connect 21 0 18 0;
#X connect 22 0 59 0;
#X connect 27 0 28 0;
#X connect 28 0 22 0;
#X connect 29 0 27 0;
#X connect 30 0 28 1;
#X connect 31 0 22 1;
#X connect 32 0 55 2;
#X connect 33 0 43 0;
#X connect 34 0 33 0;
#X connect 35 0 50 0;
#X connect 36 0 35 0;
#X connect 37 0 76 0;
#X connect 38 0 37 0;
#X connect 39 0 60 0;
#X connect 40 0 39 0;
#X connect 41 0 56 0;
#X connect 42 0 41 0;
#X connect 43 0 44 1;
#X connect 44 0 61 0;
#X connect 45 0 38 0;
#X connect 46 0 36 0;
#X connect 47 0 40 0;
#X connect 48 0 42 0;
#X connect 49 0 34 0;
#X connect 50 0 57 0;
#X connect 51 0 29 0;
#X connect 52 0 31 0;
#X connect 53 0 64 0;
#X connect 54 0 66 0;
#X connect 55 0 44 0;
#X connect 56 0 58 0;
#X connect 57 0 30 0;
#X connect 58 0 32 0;
#X connect 59 0 55 1;
#X connect 60 0 52 0;
#X connect 61 0 13 0;
#X connect 62 0 65 0;
#X connect 63 0 67 0;
#X connect 64 0 16 0;
#X connect 65 0 16 0;
#X connect 66 0 19 0;
#X connect 67 0 19 0;
#X connect 68 0 62 0;
#X connect 69 0 71 0;
#X connect 70 0 72 0;
#X connect 71 0 14 0;
#X connect 72 0 17 0;
#X connect 73 0 63 0;
#X connect 74 0 20 0;
#X connect 75 0 21 0;
#X connect 76 0 51 0;
#X restore 861 64 pd voice3_______________;
#N canvas 217 22 1335 800 voice2_______________ 0;
#N canvas 0 22 450 300 !- 0;
#X obj 92 21 inlet;
#X obj 124 240 outlet;
#X floatatom 92 57 5 0 0 0 - - -;
#X obj 124 204 - 1;
#X obj 92 106 trigger b f;
#X obj 82 158 f 1;
#X connect 0 0 2 0;
#X connect 2 0 4 0;
#X connect 3 0 1 0;
#X connect 4 0 5 0;
#X connect 4 1 3 1;
#X connect 5 0 3 0;
#X restore 267 27 pd !-;
#X floatatom 267 -6 5 0 0 0 - - -;
#X floatatom 267 55 5 0 0 0 - - -;
#X obj 20 215 +~;
#X floatatom 267 -60 5 0 0 0 - - -;
#N canvas 0 22 450 300 !- 0;
#X obj 92 21 inlet;
#X obj 124 240 outlet;
#X floatatom 92 57 5 0 0 0 - - -;
#X obj 124 204 - 1;
#X obj 92 106 trigger b f;
#X obj 82 158 f 1;
#X connect 0 0 2 0;
#X connect 2 0 4 0;
#X connect 3 0 1 0;
#X connect 4 0 5 0;
#X connect 4 1 3 1;
#X connect 5 0 3 0;
#X restore 267 -35 pd !-;
#X obj 267 -88 line;
#X obj 267 -116 pack f 200;
#X obj 20 -144 inlet;
#X obj 120 -144 inlet;
#X obj 267 -144 inlet;
#X obj 366 -144 inlet;
#X obj 466 -144 inlet;
#X obj 20 578 outlet~;
#X floatatom 20 -44 5 0 0 0 - - -;
#X floatatom 120 -43 5 0 0 0 - - -;
#X obj 20 157 *~;
#X floatatom 367 -40 5 0 0 0 - - -;
#X floatatom 467 -39 5 0 0 0 - - -;
#X obj 367 161 *~;
#X obj 120 -70 + 0.001;
#X obj 467 -66 + 0.001;
#X obj 642 83 +~;
#X text 1005 -40 <-- Q (selectivity);
#X text 685 -14 <-- sweep speed;
#X text 793 -45 <-- sweep depth;
#X text 902 18 <-- base center frequency;
#X obj 641 3 phasor~;
#X obj 642 54 *~;
#X floatatom 641 -25 5 0 0 0 - - -;
#X floatatom 741 -42 5 0 0 0 - - -;
#X floatatom 844 19 5 0 0 0 - - -;
#X floatatom 947 -37 5 0 0 0 - - -;
#X obj 1049 -130 line;
#X obj 1049 -159 pack f 200;
#X obj 741 -130 line;
#X obj 741 -159 pack f 200;
#X obj 641 -130 line;
#X obj 641 -159 pack f 200;
#X obj 845 -130 line;
#X obj 846 -159 pack f 200;
#X obj 947 -130 line;
#X obj 947 -159 pack f 200;
#X floatatom 1050 -18 5 0 0 0 - - -;
#X obj 84 474 *~ 0.4;
#X obj 641 -187 inlet;
#X obj 741 -187 inlet;
#X obj 846 -187 inlet;
#X obj 947 -187 inlet;
#X obj 1049 -187 inlet;
#X obj 741 -101 * 50;
#X obj 641 -73 + 0;
#X obj 845 -71 + 0;
#N canvas 617 22 744 726 sqTrem 0;
#X floatatom 58 49 5 0 0 0 - - -;
#X obj 489 177 osc~;
#X obj 489 149 line~;
#X obj 489 121 pack f 200;
#X floatatom 489 96 10 0 0 0 - - -;
#X obj 489 205 *~ 0.5;
#X obj 489 58 inlet;
#X obj 58 14 inlet;
#X obj 60 529 outlet~;
#X obj 58 200 phasor~;
#X obj 136 141 * -1;
#X obj 136 200 phasor~;
#X obj 257 77 r phasesynch;
#X obj 257 110 bng 15 250 50 0 empty empty empty 17 7 0 10 -262144
-1 -1;
#X msg 257 139 0;
#X msg 310 139 0.5;
#X obj 58 278 +~;
#X obj 58 306 -~ 1;
#X obj 60 469 *~;
#X connect 0 0 9 0;
#X connect 0 0 10 0;
#X connect 1 0 5 0;
#X connect 2 0 1 0;
#X connect 3 0 2 0;
#X connect 4 0 3 0;
#X connect 5 0 18 1;
#X connect 6 0 4 0;
#X connect 7 0 0 0;
#X connect 9 0 16 0;
#X connect 10 0 11 0;
#X connect 11 0 16 1;
#X connect 12 0 13 0;
#X connect 13 0 14 0;
#X connect 13 0 15 0;
#X connect 14 0 9 1;
#X connect 15 0 11 1;
#X connect 16 0 17 0;
#X connect 17 0 18 0;
#X connect 18 0 8 0;
#X restore 20 56 pd sqTrem;
#N canvas 617 22 744 726 sqTrem 0;
#X floatatom 58 49 5 0 0 0 - - -;
#X obj 489 177 osc~;
#X obj 489 149 line~;
#X obj 489 121 pack f 200;
#X floatatom 489 96 10 0 0 0 - - -;
#X obj 489 205 *~ 0.5;
#X obj 489 58 inlet;
#X obj 58 14 inlet;
#X obj 60 529 outlet~;
#X obj 58 200 phasor~;
#X obj 136 141 * -1;
#X obj 136 200 phasor~;
#X obj 257 77 r phasesynch;
#X obj 257 110 bng 15 250 50 0 empty empty empty 17 7 0 10 -262144
-1 -1;
#X msg 257 139 0;
#X msg 310 139 0.5;
#X obj 58 278 +~;
#X obj 58 306 -~ 1;
#X obj 60 469 *~;
#X connect 0 0 9 0;
#X connect 0 0 10 0;
#X connect 1 0 5 0;
#X connect 2 0 1 0;
#X connect 3 0 2 0;
#X connect 4 0 3 0;
#X connect 5 0 18 1;
#X connect 6 0 4 0;
#X connect 7 0 0 0;
#X connect 9 0 16 0;
#X connect 10 0 11 0;
#X connect 11 0 16 1;
#X connect 12 0 13 0;
#X connect 13 0 14 0;
#X connect 13 0 15 0;
#X connect 14 0 9 1;
#X connect 15 0 11 1;
#X connect 16 0 17 0;
#X connect 17 0 18 0;
#X connect 18 0 8 0;
#X restore 376 32 pd sqTrem;
#X obj 57 306 vcf~;
#N canvas 0 22 450 300 !- 0;
#X obj 92 21 inlet;
#X obj 124 240 outlet;
#X floatatom 92 57 5 0 0 0 - - -;
#X obj 124 204 - 1;
#X obj 92 106 trigger b f;
#X obj 82 158 f 1;
#X connect 0 0 2 0;
#X connect 2 0 4 0;
#X connect 3 0 1 0;
#X connect 4 0 5 0;
#X connect 4 1 3 1;
#X connect 5 0 3 0;
#X restore 947 -101 pd !-;
#X obj 741 -71 + 20;
#X obj 947 -73 + 0.1;
#X obj 73 270 tabread4~ mtof;
#X obj 845 -101 * 40;
#X obj 84 502 *~ 0.6;
#N canvas 617 22 744 726 sqTrem 0;
#X floatatom 58 49 5 0 0 0 - - -;
#X obj 489 177 osc~;
#X obj 489 149 line~;
#X obj 489 121 pack f 200;
#X floatatom 489 96 10 0 0 0 - - -;
#X obj 489 205 *~ 0.5;
#X obj 489 58 inlet;
#X obj 58 14 inlet;
#X obj 60 529 outlet~;
#X obj 58 200 phasor~;
#X obj 136 141 * -1;
#X obj 136 200 phasor~;
#X obj 257 77 r phasesynch;
#X obj 257 110 bng 15 250 50 0 empty empty empty 17 7 0 10 -262144
-1 -1;
#X msg 257 139 0;
#X msg 310 139 0.5;
#X obj 58 278 +~;
#X obj 58 306 -~ 1;
#X obj 60 469 *~;
#X connect 0 0 9 0;
#X connect 0 0 10 0;
#X connect 1 0 5 0;
#X connect 2 0 1 0;
#X connect 3 0 2 0;
#X connect 4 0 3 0;
#X connect 5 0 18 1;
#X connect 6 0 4 0;
#X connect 7 0 0 0;
#X connect 9 0 16 0;
#X connect 10 0 11 0;
#X connect 11 0 16 1;
#X connect 12 0 13 0;
#X connect 13 0 14 0;
#X connect 13 0 15 0;
#X connect 14 0 9 1;
#X connect 15 0 11 1;
#X connect 16 0 17 0;
#X connect 17 0 18 0;
#X connect 18 0 8 0;
#X restore 113 55 pd sqTrem;
#N canvas 617 22 744 726 sqTrem 0;
#X floatatom 58 49 5 0 0 0 - - -;
#X obj 489 177 osc~;
#X obj 489 149 line~;
#X obj 489 121 pack f 200;
#X floatatom 489 96 10 0 0 0 - - -;
#X obj 489 205 *~ 0.5;
#X obj 489 58 inlet;
#X obj 58 14 inlet;
#X obj 60 529 outlet~;
#X obj 58 200 phasor~;
#X obj 136 141 * -1;
#X obj 136 200 phasor~;
#X obj 257 77 r phasesynch;
#X obj 257 110 bng 15 250 50 0 empty empty empty 17 7 0 10 -262144
-1 -1;
#X msg 257 139 0;
#X msg 310 139 0.5;
#X obj 58 278 +~;
#X obj 58 306 -~ 1;
#X obj 60 469 *~;
#X connect 0 0 9 0;
#X connect 0 0 10 0;
#X connect 1 0 5 0;
#X connect 2 0 1 0;
#X connect 3 0 2 0;
#X connect 4 0 3 0;
#X connect 5 0 18 1;
#X connect 6 0 4 0;
#X connect 7 0 0 0;
#X connect 9 0 16 0;
#X connect 10 0 11 0;
#X connect 11 0 16 1;
#X connect 12 0 13 0;
#X connect 13 0 14 0;
#X connect 13 0 15 0;
#X connect 14 0 9 1;
#X connect 15 0 11 1;
#X connect 16 0 17 0;
#X connect 17 0 18 0;
#X connect 18 0 8 0;
#X restore 463 31 pd sqTrem;
#X obj 20 101 *~ 0.7;
#X obj 87 101 *~ 0.5;
#X obj 362 82 *~ 0.7;
#X obj 429 82 *~ 0.5;
#X obj 428 -9 * 1.5;
#X obj 20 -100 * 600;
#X obj 367 -96 * 600;
#X obj 20 -72 + 70;
#X obj 367 -68 + 70;
#X obj 52 3 * 1.7;
#X obj 120 -99 * 3;
#X obj 467 -95 * 2;
#X obj 641 -101 * -22;
#X connect 0 0 2 0;
#X connect 1 0 0 0;
#X connect 1 0 16 1;
#X connect 2 0 19 1;
#X connect 3 0 55 0;
#X connect 4 0 5 0;
#X connect 5 0 1 0;
#X connect 6 0 4 0;
#X connect 7 0 6 0;
#X connect 8 0 69 0;
#X connect 9 0 74 0;
#X connect 10 0 7 0;
#X connect 11 0 70 0;
#X connect 12 0 75 0;
#X connect 14 0 53 0;
#X connect 14 0 73 0;
#X connect 15 0 53 1;
#X connect 15 0 62 1;
#X connect 16 0 3 0;
#X connect 17 0 54 0;
#X connect 17 0 68 0;
#X connect 18 0 63 1;
#X connect 18 0 54 1;
#X connect 19 0 3 1;
#X connect 20 0 15 0;
#X connect 21 0 18 0;
#X connect 22 0 59 0;
#X connect 27 0 28 0;
#X connect 28 0 22 0;
#X connect 29 0 27 0;
#X connect 30 0 28 1;
#X connect 31 0 22 1;
#X connect 32 0 55 2;
#X connect 33 0 43 0;
#X connect 34 0 33 0;
#X connect 35 0 50 0;
#X connect 36 0 35 0;
#X connect 37 0 76 0;
#X connect 38 0 37 0;
#X connect 39 0 60 0;
#X connect 40 0 39 0;
#X connect 41 0 56 0;
#X connect 42 0 41 0;
#X connect 43 0 44 1;
#X connect 44 0 61 0;
#X connect 45 0 38 0;
#X connect 46 0 36 0;
#X connect 47 0 40 0;
#X connect 48 0 42 0;
#X connect 49 0 34 0;
#X connect 50 0 57 0;
#X connect 51 0 29 0;
#X connect 52 0 31 0;
#X connect 53 0 64 0;
#X connect 54 0 66 0;
#X connect 55 0 44 0;
#X connect 56 0 58 0;
#X connect 57 0 30 0;
#X connect 58 0 32 0;
#X connect 59 0 55 1;
#X connect 60 0 52 0;
#X connect 61 0 13 0;
#X connect 62 0 65 0;
#X connect 63 0 67 0;
#X connect 64 0 16 0;
#X connect 65 0 16 0;
#X connect 66 0 19 0;
#X connect 67 0 19 0;
#X connect 68 0 63 0;
#X connect 69 0 71 0;
#X connect 70 0 72 0;
#X connect 71 0 14 0;
#X connect 72 0 17 0;
#X connect 73 0 62 0;
#X connect 74 0 20 0;
#X connect 75 0 21 0;
#X connect 76 0 51 0;
#X restore 463 60 pd voice2_______________;
#X obj 827 591 line;
#X obj 930 594 line;
#X obj 1110 365 tgl 15 0 empty empty empty 17 7 0 10 -262144 -1 -1
0 1;
#X obj 1111 438 tgl 15 0 empty empty empty 17 7 0 10 -262144 -1 -1
0 1;
#X obj 1140 476 sel 1;
#X msg 728 551 1 \, 0 15000;
#X msg 827 552 0 \, 1 15000;
#X msg 930 555 1 \, 0 15000;
#X msg 1028 554 0 \, 1 15000;
#X obj 1110 399 metro 16000;
#X obj 113 261 loadbang;
#X text 40 459 add some randomizing factor \, less stable;
#X text 40 477 look at Farnell's examples \, physics;
#X connect 2 0 11 0;
#X connect 3 0 2 0;
#X connect 4 0 11 2;
#X connect 5 0 6 0;
#X connect 6 0 4 0;
#X connect 7 0 11 1;
#X connect 8 0 7 0;
#X connect 9 0 4 0;
#X connect 10 0 11 3;
#X connect 11 0 73 0;
#X connect 12 0 11 4;
#X connect 13 0 10 0;
#X connect 14 0 12 0;
#X connect 15 0 11 5;
#X connect 16 0 11 7;
#X connect 17 0 11 6;
#X connect 18 0 11 8;
#X connect 19 0 11 9;
#X connect 20 0 15 0;
#X connect 21 0 17 0;
#X connect 22 0 16 0;
#X connect 23 0 18 0;
#X connect 24 0 19 0;
#X connect 25 0 88 0;
#X connect 26 0 88 2;
#X connect 27 0 28 0;
#X connect 28 0 26 0;
#X connect 29 0 88 1;
#X connect 30 0 88 3;
#X connect 31 0 88 4;
#X connect 32 0 88 5;
#X connect 33 0 88 7;
#X connect 34 0 88 6;
#X connect 35 0 88 8;
#X connect 36 0 88 9;
#X connect 37 0 87 0;
#X connect 38 0 87 2;
#X connect 39 0 40 0;
#X connect 40 0 38 0;
#X connect 41 0 87 1;
#X connect 42 0 87 3;
#X connect 43 0 87 4;
#X connect 44 0 87 5;
#X connect 45 0 87 7;
#X connect 46 0 87 6;
#X connect 47 0 87 8;
#X connect 48 0 87 9;
#X connect 49 0 25 0;
#X connect 50 0 29 0;
#X connect 51 0 26 0;
#X connect 52 0 30 0;
#X connect 53 0 31 0;
#X connect 54 0 32 0;
#X connect 55 0 34 0;
#X connect 56 0 33 0;
#X connect 57 0 35 0;
#X connect 58 0 36 0;
#X connect 59 0 37 0;
#X connect 60 0 41 0;
#X connect 61 0 38 0;
#X connect 62 0 42 0;
#X connect 63 0 43 0;
#X connect 64 0 44 0;
#X connect 65 0 46 0;
#X connect 66 0 45 0;
#X connect 67 0 47 0;
#X connect 68 0 48 0;
#X connect 70 0 69 0;
#X connect 71 0 0 0;
#X connect 72 0 71 0;
#X connect 73 0 72 0;
#X connect 73 1 76 0;
#X connect 74 0 73 1;
#X connect 75 0 0 1;
#X connect 76 0 75 0;
#X connect 77 0 72 0;
#X connect 77 1 76 0;
#X connect 78 0 77 1;
#X connect 79 0 72 0;
#X connect 79 1 76 0;
#X connect 80 0 79 1;
#X connect 81 0 82 0;
#X connect 82 0 74 0;
#X connect 83 0 84 0;
#X connect 84 0 78 0;
#X connect 85 0 86 0;
#X connect 86 0 80 0;
#X connect 87 0 79 0;
#X connect 88 0 77 0;
#X connect 89 0 74 0;
#X connect 90 0 80 0;
#X connect 91 0 98 0;
#X connect 92 0 93 0;
#X connect 93 0 96 0;
#X connect 93 0 95 0;
#X connect 93 1 97 0;
#X connect 93 1 94 0;
#X connect 94 0 89 0;
#X connect 95 0 89 0;
#X connect 96 0 90 0;
#X connect 97 0 90 0;
#X connect 98 0 92 0;
#X connect 99 0 70 0;
