#N canvas 46 71 1380 853 16;
#X obj 423 568 dac~;
#X obj 423 526 clip~ -1 1;
#X obj 423 490 hip~ 1;
#N canvas 0 22 612 404 conversion-tables 0;
#N canvas 0 22 450 300 (subpatch) 0;
#X array mtof 130 float 1;
#A 0 8.1758 8.66196 9.17702 9.72272 10.3009 10.9134 11.5623 12.2499
12.9783 13.75 14.5676 15.4339 16.3516 17.3239 18.354 19.4454 20.6017
21.8268 23.1247 24.4997 25.9565 27.5 29.1352 30.8677 32.7032 34.6478
36.7081 38.8909 41.2034 43.6535 46.2493 48.9994 51.9131 55 58.2705
61.7354 65.4064 69.2957 73.4162 77.7817 82.4069 87.3071 92.4986 97.9989
103.826 110 116.541 123.471 130.813 138.591 146.832 155.563 164.814
174.614 184.997 195.998 207.652 220 233.082 246.942 261.626 277.183
293.665 311.127 329.628 349.228 369.994 391.995 415.305 440 466.164
493.883 523.251 554.365 587.33 622.254 659.255 698.456 739.989 783.991
830.609 880 932.328 987.767 1046.5 1108.73 1174.66 1244.51 1318.51
1396.91 1479.98 1567.98 1661.22 1760 1864.66 1975.53 2093 2217.46 2349.32
2489.02 2637.02 2793.83 2959.96 3135.96 3322.44 3520 3729.31 3951.07
4186.01 4434.92 4698.64 4978.03 5274.04 5587.65 5919.91 6271.93 6644.88
7040 7458.62 7902.13 8372.02 8869.84 9397.27 9956.06 10548.1 11175.3
11839.8 12543.9 13289.8 14080;
#X coords 0 12000 130 0 200 100 1;
#X restore 309 225 graph;
#X text 319 333 ------ 130 samples ------;
#X text 518 318 0;
#X text 520 218 12000;
#X restore 137 546 pd conversion-tables;
#X obj 313 -102 hsl 128 15 0 1 0 0 empty empty empty -2 -8 0 10 -262144
-1 -1 0 1;
#X obj 310 -130 r dc1a;
#X obj 313 -7 hsl 128 15 0 1 0 0 empty empty empty -2 -8 0 10 -262144
-1 -1 6350 1;
#X obj 448 -64 loadbang;
#X msg 448 -36 0.5;
#X obj 313 -54 hsl 128 15 0 1 0 0 empty empty empty -2 -8 0 10 -262144
-1 -1 0 1;
#X obj 310 -82 r dc2a;
#X obj 310 -35 r dc3a;
#X obj 313 41 hsl 128 15 0 1 0 0 empty empty empty -2 -8 0 10 -262144
-1 -1 6500 1;
#N canvas 108 160 1335 800 voice1_______________ 0;
#N canvas 0 22 450 300 !- 0;
#X obj 92 21 inlet;
#X obj 124 240 outlet;
#X floatatom 92 57 5 0 0 0 - - -;
#X obj 124 204 - 1;
#X obj 92 106 trigger b f;
#X obj 82 158 f 1;
#X connect 0 0 2 0;
#X connect 2 0 4 0;
#X connect 3 0 1 0;
#X connect 4 0 5 0;
#X connect 4 1 3 1;
#X connect 5 0 3 0;
#X restore 267 27 pd !-;
#X floatatom 267 -6 5 0 0 0 - - -;
#X floatatom 267 55 5 0 0 0 - - -;
#X obj 47 408 +~;
#X floatatom 267 -60 5 0 0 0 - - -;
#X floatatom 19 -60 5 0 0 0 - - -;
#X obj 19 -35 * 500;
#X obj 604 101 +~;
#X obj 47 454 vcf~;
#X obj 94 410 tabread4~ mtof;
#X text 968 3 <-- Q (selectivity);
#X text 651 19 <-- sweep speed;
#X text 756 -2 <-- sweep depth;
#X text 865 61 <-- base center frequency;
#X obj 604 46 phasor~;
#X obj 604 72 *~;
#X floatatom 604 18 5 0 0 0 - - -;
#X obj 704 -58 * 100;
#X floatatom 704 1 5 0 0 0 - - -;
#X obj 808 -58 * 100;
#X floatatom 807 62 5 0 0 0 - - -;
#X floatatom 910 6 5 0 0 0 - - -;
#X obj 910 -58 * 30;
#N canvas 0 22 450 300 !- 0;
#X obj 92 21 inlet;
#X obj 124 240 outlet;
#X floatatom 92 57 5 0 0 0 - - -;
#X obj 124 204 - 1;
#X obj 92 106 trigger b f;
#X obj 82 158 f 1;
#X connect 0 0 2 0;
#X connect 2 0 4 0;
#X connect 3 0 1 0;
#X connect 4 0 5 0;
#X connect 4 1 3 1;
#X connect 5 0 3 0;
#X restore 267 -35 pd !-;
#X obj 910 -28 + 0.25;
#X obj 704 -28 + 0.25;
#X obj 808 -28 + 0.25;
#X obj 19 -6 + 80;
#X obj 604 -58 * 30;
#X obj 604 -28 - 15;
#X obj 20 -88 line;
#X obj 20 -116 pack f 200;
#X obj 120 -88 line;
#X obj 120 -116 pack f 200;
#X obj 267 -88 line;
#X obj 267 -116 pack f 200;
#X obj 1012 -87 line;
#X obj 1012 -116 pack f 200;
#X obj 704 -87 line;
#X obj 704 -116 pack f 200;
#X obj 604 -87 line;
#X obj 604 -116 pack f 200;
#X obj 808 -87 line;
#X obj 809 -116 pack f 200;
#X obj 910 -87 line;
#X obj 910 -116 pack f 200;
#X floatatom 120 -60 5 0 0 0 - - -;
#X floatatom 1013 25 5 0 0 0 - - -;
#X floatatom 19 27 5 0 0 0 - - -;
#X obj 56 166 -~ 0.5;
#X floatatom 107 83 5 0 0 0 - - -;
#X obj 56 194 clip~ 0 1e-06;
#X obj 56 222 *~ 1e+06;
#X obj 107 110 * -1;
#X obj 107 137 + 1;
#X obj 19 54 phasor~ 0;
#X obj 107 27 / 100;
#X obj 107 54 clip 0.1 0.99;
#X obj 183 222 abs~;
#X obj 183 194 osc~;
#X obj 183 137 * 10;
#X obj 159 251 *~;
#X floatatom 365 -60 5 0 0 0 - - -;
#X obj 365 -35 * 500;
#X obj 365 -6 + 80;
#X obj 366 -88 line;
#X obj 366 -116 pack f 200;
#X obj 466 -88 line;
#X obj 466 -116 pack f 200;
#X floatatom 466 -60 5 0 0 0 - - -;
#X floatatom 365 27 5 0 0 0 - - -;
#X obj 405 166 -~ 0.5;
#X floatatom 456 83 5 0 0 0 - - -;
#X obj 405 194 clip~ 0 1e-06;
#X obj 405 222 *~ 1e+06;
#X obj 456 110 * -1;
#X obj 456 137 + 1;
#X obj 365 54 phasor~ 0;
#X obj 456 27 / 100;
#X obj 456 54 clip 0.1 0.99;
#X obj 532 222 abs~;
#X obj 532 194 osc~;
#X obj 532 137 * 10;
#X obj 508 251 *~;
#X obj 183 166 / 200;
#N canvas 358 60 772 415 sq1 0;
#X obj 41 41 inlet~;
#X obj 273 77 sig~;
#X obj 273 49 inlet;
#X obj 273 105 lop~ 1;
#X obj 46 293 *~;
#X obj 70 222 sqrt~;
#X obj 84 350 outlet~;
#X connect 0 0 4 0;
#X connect 1 0 3 0;
#X connect 2 0 1 0;
#X connect 3 0 5 0;
#X connect 4 0 6 0;
#X connect 5 0 4 1;
#X restore 159 284 pd sq1;
#N canvas 358 60 772 415 sq2 0;
#X obj 41 41 inlet~;
#X obj 273 77 sig~;
#X obj 273 49 inlet;
#X obj 273 105 lop~ 1;
#X obj 46 293 *~;
#X obj 70 222 sqrt~;
#X obj 84 350 outlet~;
#X connect 0 0 4 0;
#X connect 1 0 3 0;
#X connect 2 0 1 0;
#X connect 3 0 5 0;
#X connect 4 0 6 0;
#X connect 5 0 4 1;
#X restore 509 282 pd sq2;
#X obj 107 -6 * 100;
#X obj 456 -6 * 100;
#X obj 532 166 / 300;
#N canvas 0 22 450 300 !- 0;
#X obj 92 21 inlet;
#X obj 124 240 outlet;
#X floatatom 92 57 5 0 0 0 - - -;
#X obj 124 204 - 1;
#X obj 92 106 trigger b f;
#X obj 82 158 f 1;
#X connect 0 0 2 0;
#X connect 2 0 4 0;
#X connect 3 0 1 0;
#X connect 4 0 5 0;
#X connect 4 1 3 1;
#X connect 5 0 3 0;
#X restore 107 -35 pd !-;
#N canvas 0 22 450 300 !- 0;
#X obj 92 21 inlet;
#X obj 124 240 outlet;
#X floatatom 92 57 5 0 0 0 - - -;
#X obj 124 204 - 1;
#X obj 92 106 trigger b f;
#X obj 82 158 f 1;
#X connect 0 0 2 0;
#X connect 2 0 4 0;
#X connect 3 0 1 0;
#X connect 4 0 5 0;
#X connect 4 1 3 1;
#X connect 5 0 3 0;
#X restore 456 -35 pd !-;
#X obj 47 517 *~ 0.4;
#X obj 20 -144 inlet;
#X obj 120 -144 inlet;
#X obj 267 -144 inlet;
#X obj 366 -144 inlet;
#X obj 466 -144 inlet;
#X obj 47 574 outlet~;
#X obj 604 -144 inlet;
#X obj 704 -144 inlet;
#X obj 809 -144 inlet;
#X obj 910 -144 inlet;
#X obj 1012 -144 inlet;
#X obj 47 545 *~ 0.3;
#X connect 0 0 2 0;
#X connect 1 0 0 0;
#X connect 1 0 85 1;
#X connect 2 0 86 1;
#X connect 3 0 8 0;
#X connect 4 0 23 0;
#X connect 5 0 6 0;
#X connect 6 0 27 0;
#X connect 7 0 9 0;
#X connect 8 0 92 0;
#X connect 9 0 8 1;
#X connect 14 0 15 0;
#X connect 15 0 7 0;
#X connect 16 0 14 0;
#X connect 17 0 25 0;
#X connect 18 0 15 1;
#X connect 19 0 26 0;
#X connect 20 0 7 1;
#X connect 21 0 8 2;
#X connect 22 0 24 0;
#X connect 23 0 1 0;
#X connect 24 0 21 0;
#X connect 25 0 18 0;
#X connect 26 0 20 0;
#X connect 27 0 48 0;
#X connect 28 0 29 0;
#X connect 29 0 16 0;
#X connect 30 0 5 0;
#X connect 31 0 30 0;
#X connect 32 0 46 0;
#X connect 33 0 32 0;
#X connect 34 0 4 0;
#X connect 35 0 34 0;
#X connect 36 0 47 0;
#X connect 37 0 36 0;
#X connect 38 0 17 0;
#X connect 39 0 38 0;
#X connect 40 0 28 0;
#X connect 41 0 40 0;
#X connect 42 0 19 0;
#X connect 43 0 42 0;
#X connect 44 0 22 0;
#X connect 45 0 44 0;
#X connect 46 0 60 0;
#X connect 46 0 90 0;
#X connect 47 0 92 1;
#X connect 48 0 55 0;
#X connect 49 0 51 0;
#X connect 50 0 53 0;
#X connect 51 0 52 0;
#X connect 52 0 61 0;
#X connect 53 0 54 0;
#X connect 54 0 49 1;
#X connect 55 0 49 0;
#X connect 56 0 57 0;
#X connect 57 0 50 0;
#X connect 58 0 61 1;
#X connect 59 0 58 0;
#X connect 60 0 84 0;
#X connect 61 0 85 0;
#X connect 62 0 63 0;
#X connect 63 0 64 0;
#X connect 64 0 70 0;
#X connect 65 0 62 0;
#X connect 66 0 65 0;
#X connect 67 0 69 0;
#X connect 68 0 67 0;
#X connect 69 0 82 0;
#X connect 69 0 91 0;
#X connect 70 0 77 0;
#X connect 71 0 73 0;
#X connect 72 0 75 0;
#X connect 73 0 74 0;
#X connect 74 0 83 0;
#X connect 75 0 76 0;
#X connect 76 0 71 1;
#X connect 77 0 71 0;
#X connect 78 0 79 0;
#X connect 79 0 72 0;
#X connect 80 0 83 1;
#X connect 81 0 80 0;
#X connect 82 0 89 0;
#X connect 83 0 86 0;
#X connect 84 0 59 0;
#X connect 85 0 3 0;
#X connect 86 0 3 1;
#X connect 87 0 56 0;
#X connect 88 0 78 0;
#X connect 89 0 81 0;
#X connect 90 0 87 0;
#X connect 91 0 88 0;
#X connect 92 0 104 0;
#X connect 93 0 31 0;
#X connect 94 0 33 0;
#X connect 95 0 35 0;
#X connect 96 0 66 0;
#X connect 97 0 68 0;
#X connect 99 0 41 0;
#X connect 100 0 39 0;
#X connect 101 0 43 0;
#X connect 102 0 45 0;
#X connect 103 0 37 0;
#X connect 104 0 98 0;
#X restore 70 60 pd voice1_______________;
#X obj 313 88 hsl 128 15 0 1 0 0 empty empty empty -2 -8 0 10 -262144
-1 -1 0 1;
#X obj 310 13 r dc4a;
#X obj 310 60 r dc5a;
#X obj 314 135 hsl 128 15 0 1 0 0 empty empty empty -2 -8 0 10 -262144
-1 -1 0 1;
#X obj 314 229 hsl 128 15 0 1 0 0 empty empty empty -2 -8 0 10 -262144
-1 -1 0 1;
#X obj 314 182 hsl 128 15 0 1 0 0 empty empty empty -2 -8 0 10 -262144
-1 -1 0 1;
#X obj 314 276 hsl 128 15 0 1 0 0 empty empty empty -2 -8 0 10 -262144
-1 -1 0 1;
#X obj 314 323 hsl 128 15 0 1 0 0 empty empty empty -2 -8 0 10 -262144
-1 -1 0 1;
#X obj 311 107 r dc6a;
#X obj 311 154 r dc7a;
#X obj 311 201 r dc8a;
#X obj 311 248 r dc9a;
#X obj 311 295 r dc10a;
#X obj 694 -102 hsl 128 15 0 1 0 0 empty empty empty -2 -8 0 10 -262144
-1 -1 0 1;
#X obj 694 -7 hsl 128 15 0 1 0 0 empty empty empty -2 -8 0 10 -262144
-1 -1 6350 1;
#X obj 829 -64 loadbang;
#X msg 829 -36 0.5;
#X obj 694 -54 hsl 128 15 0 1 0 0 empty empty empty -2 -8 0 10 -262144
-1 -1 0 1;
#X obj 694 41 hsl 128 15 0 1 0 0 empty empty empty -2 -8 0 10 -262144
-1 -1 0 1;
#X obj 694 88 hsl 128 15 0 1 0 0 empty empty empty -2 -8 0 10 -262144
-1 -1 0 1;
#X obj 695 135 hsl 128 15 0 1 0 0 empty empty empty -2 -8 0 10 -262144
-1 -1 0 1;
#X obj 695 229 hsl 128 15 0 1 0 0 empty empty empty -2 -8 0 10 -262144
-1 -1 0 1;
#X obj 695 182 hsl 128 15 0 1 0 0 empty empty empty -2 -8 0 10 -262144
-1 -1 0 1;
#X obj 695 276 hsl 128 15 0 1 0 0 empty empty empty -2 -8 0 10 -262144
-1 -1 0 1;
#X obj 695 323 hsl 128 15 0 1 0 0 empty empty empty -2 -8 0 10 -262144
-1 -1 0 1;
#X obj 1093 -98 hsl 128 15 0 1 0 0 empty empty empty -2 -8 0 10 -262144
-1 -1 0 1;
#X obj 1093 -3 hsl 128 15 0 1 0 0 empty empty empty -2 -8 0 10 -262144
-1 -1 6350 1;
#X obj 1228 -60 loadbang;
#X msg 1228 -32 0.5;
#X obj 1093 -50 hsl 128 15 0 1 0 0 empty empty empty -2 -8 0 10 -262144
-1 -1 0 1;
#X obj 1093 45 hsl 128 15 0 1 0 0 empty empty empty -2 -8 0 10 -262144
-1 -1 0 1;
#X obj 1093 92 hsl 128 15 0 1 0 0 empty empty empty -2 -8 0 10 -262144
-1 -1 0 1;
#X obj 1094 139 hsl 128 15 0 1 0 0 empty empty empty -2 -8 0 10 -262144
-1 -1 0 1;
#X obj 1094 233 hsl 128 15 0 1 0 0 empty empty empty -2 -8 0 10 -262144
-1 -1 0 1;
#X obj 1094 186 hsl 128 15 0 1 0 0 empty empty empty -2 -8 0 10 -262144
-1 -1 0 1;
#X obj 1094 280 hsl 128 15 0 1 0 0 empty empty empty -2 -8 0 10 -262144
-1 -1 0 1;
#X obj 1094 327 hsl 128 15 0 1 0 0 empty empty empty -2 -8 0 10 -262144
-1 -1 0 1;
#X obj 70 89 throw~ voice1;
#N canvas 52 22 1335 800 voice2_______________ 0;
#N canvas 0 22 450 300 !- 0;
#X obj 92 21 inlet;
#X obj 124 240 outlet;
#X floatatom 92 57 5 0 0 0 - - -;
#X obj 124 204 - 1;
#X obj 92 106 trigger b f;
#X obj 82 158 f 1;
#X connect 0 0 2 0;
#X connect 2 0 4 0;
#X connect 3 0 1 0;
#X connect 4 0 5 0;
#X connect 4 1 3 1;
#X connect 5 0 3 0;
#X restore 267 27 pd !-;
#X floatatom 267 -6 5 0 0 0 - - -;
#X floatatom 267 55 5 0 0 0 - - -;
#X obj 47 408 +~;
#X floatatom 267 -60 5 0 0 0 - - -;
#X floatatom 19 -60 5 0 0 0 - - -;
#X obj 19 -35 * 500;
#X obj 604 101 +~;
#X obj 47 454 vcf~;
#X obj 94 410 tabread4~ mtof;
#X text 968 3 <-- Q (selectivity);
#X text 651 19 <-- sweep speed;
#X text 756 -2 <-- sweep depth;
#X text 865 61 <-- base center frequency;
#X obj 604 46 phasor~;
#X obj 604 72 *~;
#X floatatom 604 18 5 0 0 0 - - -;
#X obj 704 -58 * 100;
#X floatatom 704 1 5 0 0 0 - - -;
#X obj 808 -58 * 100;
#X floatatom 807 62 5 0 0 0 - - -;
#X floatatom 910 6 5 0 0 0 - - -;
#X obj 910 -58 * 30;
#N canvas 0 22 450 300 !- 0;
#X obj 92 21 inlet;
#X obj 124 240 outlet;
#X floatatom 92 57 5 0 0 0 - - -;
#X obj 124 204 - 1;
#X obj 92 106 trigger b f;
#X obj 82 158 f 1;
#X connect 0 0 2 0;
#X connect 2 0 4 0;
#X connect 3 0 1 0;
#X connect 4 0 5 0;
#X connect 4 1 3 1;
#X connect 5 0 3 0;
#X restore 267 -35 pd !-;
#X obj 910 -28 + 0.25;
#X obj 704 -28 + 0.25;
#X obj 808 -28 + 0.25;
#X obj 19 -6 + 80;
#X obj 604 -58 * 30;
#X obj 604 -28 - 15;
#X obj 20 -88 line;
#X obj 20 -116 pack f 200;
#X obj 120 -88 line;
#X obj 120 -116 pack f 200;
#X obj 267 -88 line;
#X obj 267 -116 pack f 200;
#X obj 1012 -87 line;
#X obj 1012 -116 pack f 200;
#X obj 704 -87 line;
#X obj 704 -116 pack f 200;
#X obj 604 -87 line;
#X obj 604 -116 pack f 200;
#X obj 808 -87 line;
#X obj 809 -116 pack f 200;
#X obj 910 -87 line;
#X obj 910 -116 pack f 200;
#X floatatom 120 -60 5 0 0 0 - - -;
#X floatatom 1013 25 5 0 0 0 - - -;
#X floatatom 19 27 5 0 0 0 - - -;
#X obj 56 166 -~ 0.5;
#X floatatom 107 83 5 0 0 0 - - -;
#X obj 56 194 clip~ 0 1e-06;
#X obj 56 222 *~ 1e+06;
#X obj 107 110 * -1;
#X obj 107 137 + 1;
#X obj 19 54 phasor~ 0;
#X obj 107 27 / 100;
#X obj 107 54 clip 0.1 0.99;
#X obj 183 222 abs~;
#X obj 183 194 osc~;
#X obj 183 137 * 10;
#X obj 159 251 *~;
#X floatatom 365 -60 5 0 0 0 - - -;
#X obj 365 -35 * 500;
#X obj 365 -6 + 80;
#X obj 366 -88 line;
#X obj 366 -116 pack f 200;
#X obj 466 -88 line;
#X obj 466 -116 pack f 200;
#X floatatom 466 -60 5 0 0 0 - - -;
#X floatatom 365 27 5 0 0 0 - - -;
#X obj 405 166 -~ 0.5;
#X floatatom 456 83 5 0 0 0 - - -;
#X obj 405 194 clip~ 0 1e-06;
#X obj 405 222 *~ 1e+06;
#X obj 456 110 * -1;
#X obj 456 137 + 1;
#X obj 365 54 phasor~ 0;
#X obj 456 27 / 100;
#X obj 456 54 clip 0.1 0.99;
#X obj 532 222 abs~;
#X obj 532 194 osc~;
#X obj 532 137 * 10;
#X obj 508 251 *~;
#X obj 183 166 / 200;
#N canvas 358 60 772 415 sq1 0;
#X obj 41 41 inlet~;
#X obj 273 77 sig~;
#X obj 273 49 inlet;
#X obj 273 105 lop~ 1;
#X obj 46 293 *~;
#X obj 70 222 sqrt~;
#X obj 84 350 outlet~;
#X connect 0 0 4 0;
#X connect 1 0 3 0;
#X connect 2 0 1 0;
#X connect 3 0 5 0;
#X connect 4 0 6 0;
#X connect 5 0 4 1;
#X restore 159 284 pd sq1;
#N canvas 358 60 772 415 sq2 0;
#X obj 41 41 inlet~;
#X obj 273 77 sig~;
#X obj 273 49 inlet;
#X obj 273 105 lop~ 1;
#X obj 46 293 *~;
#X obj 70 222 sqrt~;
#X obj 84 350 outlet~;
#X connect 0 0 4 0;
#X connect 1 0 3 0;
#X connect 2 0 1 0;
#X connect 3 0 5 0;
#X connect 4 0 6 0;
#X connect 5 0 4 1;
#X restore 509 282 pd sq2;
#X obj 107 -6 * 100;
#X obj 456 -6 * 100;
#X obj 532 166 / 300;
#N canvas 0 22 450 300 !- 0;
#X obj 92 21 inlet;
#X obj 124 240 outlet;
#X floatatom 92 57 5 0 0 0 - - -;
#X obj 124 204 - 1;
#X obj 92 106 trigger b f;
#X obj 82 158 f 1;
#X connect 0 0 2 0;
#X connect 2 0 4 0;
#X connect 3 0 1 0;
#X connect 4 0 5 0;
#X connect 4 1 3 1;
#X connect 5 0 3 0;
#X restore 107 -35 pd !-;
#N canvas 0 22 450 300 !- 0;
#X obj 92 21 inlet;
#X obj 124 240 outlet;
#X floatatom 92 57 5 0 0 0 - - -;
#X obj 124 204 - 1;
#X obj 92 106 trigger b f;
#X obj 82 158 f 1;
#X connect 0 0 2 0;
#X connect 2 0 4 0;
#X connect 3 0 1 0;
#X connect 4 0 5 0;
#X connect 4 1 3 1;
#X connect 5 0 3 0;
#X restore 456 -35 pd !-;
#X obj 47 517 *~ 0.4;
#X obj 20 -144 inlet;
#X obj 120 -144 inlet;
#X obj 267 -144 inlet;
#X obj 366 -144 inlet;
#X obj 466 -144 inlet;
#X obj 47 574 outlet~;
#X obj 604 -144 inlet;
#X obj 704 -144 inlet;
#X obj 809 -144 inlet;
#X obj 910 -144 inlet;
#X obj 1012 -144 inlet;
#X obj 47 545 *~ 0.3;
#X connect 0 0 2 0;
#X connect 1 0 0 0;
#X connect 1 0 85 1;
#X connect 2 0 86 1;
#X connect 3 0 8 0;
#X connect 4 0 23 0;
#X connect 5 0 6 0;
#X connect 6 0 27 0;
#X connect 7 0 9 0;
#X connect 8 0 92 0;
#X connect 9 0 8 1;
#X connect 14 0 15 0;
#X connect 15 0 7 0;
#X connect 16 0 14 0;
#X connect 17 0 25 0;
#X connect 18 0 15 1;
#X connect 19 0 26 0;
#X connect 20 0 7 1;
#X connect 21 0 8 2;
#X connect 22 0 24 0;
#X connect 23 0 1 0;
#X connect 24 0 21 0;
#X connect 25 0 18 0;
#X connect 26 0 20 0;
#X connect 27 0 48 0;
#X connect 28 0 29 0;
#X connect 29 0 16 0;
#X connect 30 0 5 0;
#X connect 31 0 30 0;
#X connect 32 0 46 0;
#X connect 33 0 32 0;
#X connect 34 0 4 0;
#X connect 35 0 34 0;
#X connect 36 0 47 0;
#X connect 37 0 36 0;
#X connect 38 0 17 0;
#X connect 39 0 38 0;
#X connect 40 0 28 0;
#X connect 41 0 40 0;
#X connect 42 0 19 0;
#X connect 43 0 42 0;
#X connect 44 0 22 0;
#X connect 45 0 44 0;
#X connect 46 0 60 0;
#X connect 46 0 90 0;
#X connect 47 0 92 1;
#X connect 48 0 55 0;
#X connect 49 0 51 0;
#X connect 50 0 53 0;
#X connect 51 0 52 0;
#X connect 52 0 61 0;
#X connect 53 0 54 0;
#X connect 54 0 49 1;
#X connect 55 0 49 0;
#X connect 56 0 57 0;
#X connect 57 0 50 0;
#X connect 58 0 61 1;
#X connect 59 0 58 0;
#X connect 60 0 84 0;
#X connect 61 0 85 0;
#X connect 62 0 63 0;
#X connect 63 0 64 0;
#X connect 64 0 70 0;
#X connect 65 0 62 0;
#X connect 66 0 65 0;
#X connect 67 0 69 0;
#X connect 68 0 67 0;
#X connect 69 0 82 0;
#X connect 69 0 91 0;
#X connect 70 0 77 0;
#X connect 71 0 73 0;
#X connect 72 0 75 0;
#X connect 73 0 74 0;
#X connect 74 0 83 0;
#X connect 75 0 76 0;
#X connect 76 0 71 1;
#X connect 77 0 71 0;
#X connect 78 0 79 0;
#X connect 79 0 72 0;
#X connect 80 0 83 1;
#X connect 81 0 80 0;
#X connect 82 0 89 0;
#X connect 83 0 86 0;
#X connect 84 0 59 0;
#X connect 85 0 3 0;
#X connect 86 0 3 1;
#X connect 87 0 56 0;
#X connect 88 0 78 0;
#X connect 89 0 81 0;
#X connect 90 0 87 0;
#X connect 91 0 88 0;
#X connect 92 0 104 0;
#X connect 93 0 31 0;
#X connect 94 0 33 0;
#X connect 95 0 35 0;
#X connect 96 0 66 0;
#X connect 97 0 68 0;
#X connect 99 0 41 0;
#X connect 100 0 39 0;
#X connect 101 0 43 0;
#X connect 102 0 45 0;
#X connect 103 0 37 0;
#X connect 104 0 98 0;
#X restore 451 60 pd voice2_______________;
#X obj 850 92 throw~ voice3;
#N canvas 52 22 1335 800 voice3_______________ 0;
#N canvas 0 22 450 300 !- 0;
#X obj 92 21 inlet;
#X obj 124 240 outlet;
#X floatatom 92 57 5 0 0 0 - - -;
#X obj 124 204 - 1;
#X obj 92 106 trigger b f;
#X obj 82 158 f 1;
#X connect 0 0 2 0;
#X connect 2 0 4 0;
#X connect 3 0 1 0;
#X connect 4 0 5 0;
#X connect 4 1 3 1;
#X connect 5 0 3 0;
#X restore 267 27 pd !-;
#X floatatom 267 -6 5 0 0 0 - - -;
#X floatatom 267 55 5 0 0 0 - - -;
#X obj 47 408 +~;
#X floatatom 267 -60 5 0 0 0 - - -;
#X floatatom 19 -60 5 0 0 0 - - -;
#X obj 19 -35 * 500;
#X obj 604 101 +~;
#X obj 47 454 vcf~;
#X obj 94 410 tabread4~ mtof;
#X text 968 3 <-- Q (selectivity);
#X text 651 19 <-- sweep speed;
#X text 756 -2 <-- sweep depth;
#X text 865 61 <-- base center frequency;
#X obj 604 46 phasor~;
#X obj 604 72 *~;
#X floatatom 604 18 5 0 0 0 - - -;
#X obj 704 -58 * 100;
#X floatatom 704 1 5 0 0 0 - - -;
#X obj 808 -58 * 100;
#X floatatom 807 62 5 0 0 0 - - -;
#X floatatom 910 6 5 0 0 0 - - -;
#X obj 910 -58 * 30;
#N canvas 0 22 450 300 !- 0;
#X obj 92 21 inlet;
#X obj 124 240 outlet;
#X floatatom 92 57 5 0 0 0 - - -;
#X obj 124 204 - 1;
#X obj 92 106 trigger b f;
#X obj 82 158 f 1;
#X connect 0 0 2 0;
#X connect 2 0 4 0;
#X connect 3 0 1 0;
#X connect 4 0 5 0;
#X connect 4 1 3 1;
#X connect 5 0 3 0;
#X restore 267 -35 pd !-;
#X obj 910 -28 + 0.25;
#X obj 704 -28 + 0.25;
#X obj 808 -28 + 0.25;
#X obj 19 -6 + 80;
#X obj 604 -58 * 30;
#X obj 604 -28 - 15;
#X obj 20 -88 line;
#X obj 20 -116 pack f 200;
#X obj 120 -88 line;
#X obj 120 -116 pack f 200;
#X obj 267 -88 line;
#X obj 267 -116 pack f 200;
#X obj 1012 -87 line;
#X obj 1012 -116 pack f 200;
#X obj 704 -87 line;
#X obj 704 -116 pack f 200;
#X obj 604 -87 line;
#X obj 604 -116 pack f 200;
#X obj 808 -87 line;
#X obj 809 -116 pack f 200;
#X obj 910 -87 line;
#X obj 910 -116 pack f 200;
#X floatatom 120 -60 5 0 0 0 - - -;
#X floatatom 1013 25 5 0 0 0 - - -;
#X floatatom 19 27 5 0 0 0 - - -;
#X obj 56 166 -~ 0.5;
#X floatatom 107 83 5 0 0 0 - - -;
#X obj 56 194 clip~ 0 1e-06;
#X obj 56 222 *~ 1e+06;
#X obj 107 110 * -1;
#X obj 107 137 + 1;
#X obj 19 54 phasor~ 0;
#X obj 107 27 / 100;
#X obj 107 54 clip 0.1 0.99;
#X obj 183 222 abs~;
#X obj 183 194 osc~;
#X obj 183 137 * 10;
#X obj 159 251 *~;
#X floatatom 365 -60 5 0 0 0 - - -;
#X obj 365 -35 * 500;
#X obj 365 -6 + 80;
#X obj 366 -88 line;
#X obj 366 -116 pack f 200;
#X obj 466 -88 line;
#X obj 466 -116 pack f 200;
#X floatatom 466 -60 5 0 0 0 - - -;
#X floatatom 365 27 5 0 0 0 - - -;
#X obj 405 166 -~ 0.5;
#X floatatom 456 83 5 0 0 0 - - -;
#X obj 405 194 clip~ 0 1e-06;
#X obj 405 222 *~ 1e+06;
#X obj 456 110 * -1;
#X obj 456 137 + 1;
#X obj 365 54 phasor~ 0;
#X obj 456 27 / 100;
#X obj 456 54 clip 0.1 0.99;
#X obj 532 222 abs~;
#X obj 532 194 osc~;
#X obj 532 137 * 10;
#X obj 508 251 *~;
#X obj 183 166 / 200;
#N canvas 358 60 772 415 sq1 0;
#X obj 41 41 inlet~;
#X obj 273 77 sig~;
#X obj 273 49 inlet;
#X obj 273 105 lop~ 1;
#X obj 46 293 *~;
#X obj 70 222 sqrt~;
#X obj 84 350 outlet~;
#X connect 0 0 4 0;
#X connect 1 0 3 0;
#X connect 2 0 1 0;
#X connect 3 0 5 0;
#X connect 4 0 6 0;
#X connect 5 0 4 1;
#X restore 159 284 pd sq1;
#N canvas 358 60 772 415 sq2 0;
#X obj 41 41 inlet~;
#X obj 273 77 sig~;
#X obj 273 49 inlet;
#X obj 273 105 lop~ 1;
#X obj 46 293 *~;
#X obj 70 222 sqrt~;
#X obj 84 350 outlet~;
#X connect 0 0 4 0;
#X connect 1 0 3 0;
#X connect 2 0 1 0;
#X connect 3 0 5 0;
#X connect 4 0 6 0;
#X connect 5 0 4 1;
#X restore 509 282 pd sq2;
#X obj 107 -6 * 100;
#X obj 456 -6 * 100;
#X obj 532 166 / 300;
#N canvas 0 22 450 300 !- 0;
#X obj 92 21 inlet;
#X obj 124 240 outlet;
#X floatatom 92 57 5 0 0 0 - - -;
#X obj 124 204 - 1;
#X obj 92 106 trigger b f;
#X obj 82 158 f 1;
#X connect 0 0 2 0;
#X connect 2 0 4 0;
#X connect 3 0 1 0;
#X connect 4 0 5 0;
#X connect 4 1 3 1;
#X connect 5 0 3 0;
#X restore 107 -35 pd !-;
#N canvas 0 22 450 300 !- 0;
#X obj 92 21 inlet;
#X obj 124 240 outlet;
#X floatatom 92 57 5 0 0 0 - - -;
#X obj 124 204 - 1;
#X obj 92 106 trigger b f;
#X obj 82 158 f 1;
#X connect 0 0 2 0;
#X connect 2 0 4 0;
#X connect 3 0 1 0;
#X connect 4 0 5 0;
#X connect 4 1 3 1;
#X connect 5 0 3 0;
#X restore 456 -35 pd !-;
#X obj 47 517 *~ 0.4;
#X obj 20 -144 inlet;
#X obj 120 -144 inlet;
#X obj 267 -144 inlet;
#X obj 366 -144 inlet;
#X obj 466 -144 inlet;
#X obj 47 574 outlet~;
#X obj 604 -144 inlet;
#X obj 704 -144 inlet;
#X obj 809 -144 inlet;
#X obj 910 -144 inlet;
#X obj 1012 -144 inlet;
#X obj 47 545 *~ 0.3;
#X connect 0 0 2 0;
#X connect 1 0 0 0;
#X connect 1 0 85 1;
#X connect 2 0 86 1;
#X connect 3 0 8 0;
#X connect 4 0 23 0;
#X connect 5 0 6 0;
#X connect 6 0 27 0;
#X connect 7 0 9 0;
#X connect 8 0 92 0;
#X connect 9 0 8 1;
#X connect 14 0 15 0;
#X connect 15 0 7 0;
#X connect 16 0 14 0;
#X connect 17 0 25 0;
#X connect 18 0 15 1;
#X connect 19 0 26 0;
#X connect 20 0 7 1;
#X connect 21 0 8 2;
#X connect 22 0 24 0;
#X connect 23 0 1 0;
#X connect 24 0 21 0;
#X connect 25 0 18 0;
#X connect 26 0 20 0;
#X connect 27 0 48 0;
#X connect 28 0 29 0;
#X connect 29 0 16 0;
#X connect 30 0 5 0;
#X connect 31 0 30 0;
#X connect 32 0 46 0;
#X connect 33 0 32 0;
#X connect 34 0 4 0;
#X connect 35 0 34 0;
#X connect 36 0 47 0;
#X connect 37 0 36 0;
#X connect 38 0 17 0;
#X connect 39 0 38 0;
#X connect 40 0 28 0;
#X connect 41 0 40 0;
#X connect 42 0 19 0;
#X connect 43 0 42 0;
#X connect 44 0 22 0;
#X connect 45 0 44 0;
#X connect 46 0 60 0;
#X connect 46 0 90 0;
#X connect 47 0 92 1;
#X connect 48 0 55 0;
#X connect 49 0 51 0;
#X connect 50 0 53 0;
#X connect 51 0 52 0;
#X connect 52 0 61 0;
#X connect 53 0 54 0;
#X connect 54 0 49 1;
#X connect 55 0 49 0;
#X connect 56 0 57 0;
#X connect 57 0 50 0;
#X connect 58 0 61 1;
#X connect 59 0 58 0;
#X connect 60 0 84 0;
#X connect 61 0 85 0;
#X connect 62 0 63 0;
#X connect 63 0 64 0;
#X connect 64 0 70 0;
#X connect 65 0 62 0;
#X connect 66 0 65 0;
#X connect 67 0 69 0;
#X connect 68 0 67 0;
#X connect 69 0 82 0;
#X connect 69 0 91 0;
#X connect 70 0 77 0;
#X connect 71 0 73 0;
#X connect 72 0 75 0;
#X connect 73 0 74 0;
#X connect 74 0 83 0;
#X connect 75 0 76 0;
#X connect 76 0 71 1;
#X connect 77 0 71 0;
#X connect 78 0 79 0;
#X connect 79 0 72 0;
#X connect 80 0 83 1;
#X connect 81 0 80 0;
#X connect 82 0 89 0;
#X connect 83 0 86 0;
#X connect 84 0 59 0;
#X connect 85 0 3 0;
#X connect 86 0 3 1;
#X connect 87 0 56 0;
#X connect 88 0 78 0;
#X connect 89 0 81 0;
#X connect 90 0 87 0;
#X connect 91 0 88 0;
#X connect 92 0 104 0;
#X connect 93 0 31 0;
#X connect 94 0 33 0;
#X connect 95 0 35 0;
#X connect 96 0 66 0;
#X connect 97 0 68 0;
#X connect 99 0 41 0;
#X connect 100 0 39 0;
#X connect 101 0 43 0;
#X connect 102 0 45 0;
#X connect 103 0 37 0;
#X connect 104 0 98 0;
#X restore 850 64 pd voice3_______________;
#X obj 423 387 catch~ voice1;
#X obj 451 88 throw~ voice2;
#X obj 691 -130 r dc1b;
#X obj 691 -82 r dc2b;
#X obj 691 -35 r dc3b;
#X obj 691 13 r dc4b;
#X obj 691 60 r dc5b;
#X obj 692 107 r dc6b;
#X obj 692 154 r dc7b;
#X obj 692 201 r dc8b;
#X obj 692 248 r dc9b;
#X obj 692 295 r dc10b;
#X obj 1090 -126 r dc1c;
#X obj 1090 -78 r dc2c;
#X obj 1090 -31 r dc3c;
#X obj 1090 17 r dc4c;
#X obj 1090 64 r dc5c;
#X obj 1091 111 r dc6c;
#X obj 1091 158 r dc7c;
#X obj 1091 205 r dc8c;
#X obj 1091 252 r dc9c;
#X obj 1091 299 r dc10c;
#N canvas 358 60 772 415 pan 0;
#X obj 41 41 inlet~;
#X obj 273 77 sig~;
#X obj 420 -21 inlet;
#X obj 273 105 lop~ 1;
#X obj 46 293 *~;
#X obj 70 222 sqrt~;
#X obj 84 350 outlet~;
#X obj 138 294 *~;
#X obj 176 351 outlet~;
#N canvas 0 22 450 300 !- 0;
#X obj 92 21 inlet;
#X obj 124 240 outlet;
#X floatatom 92 57 5 0 0 0 - - -;
#X obj 124 204 - 1;
#X obj 92 106 trigger b f;
#X obj 82 158 f 1;
#X connect 0 0 2 0;
#X connect 2 0 4 0;
#X connect 3 0 1 0;
#X connect 4 0 5 0;
#X connect 4 1 3 1;
#X connect 5 0 3 0;
#X restore 420 155 pd !-;
#X floatatom 420 122 5 0 0 0 - - -;
#X floatatom 420 183 5 0 0 0 - - -;
#X floatatom 420 68 5 0 0 0 - - -;
#N canvas 0 22 450 300 !- 0;
#X obj 92 21 inlet;
#X obj 124 240 outlet;
#X floatatom 92 57 5 0 0 0 - - -;
#X obj 124 204 - 1;
#X obj 92 106 trigger b f;
#X obj 82 158 f 1;
#X connect 0 0 2 0;
#X connect 2 0 4 0;
#X connect 3 0 1 0;
#X connect 4 0 5 0;
#X connect 4 1 3 1;
#X connect 5 0 3 0;
#X restore 420 93 pd !-;
#X obj 420 40 line;
#X obj 420 12 pack f 200;
#X obj 336 78 sig~;
#X obj 336 106 lop~ 1;
#X connect 0 0 4 0;
#X connect 0 0 7 0;
#X connect 1 0 3 0;
#X connect 2 0 15 0;
#X connect 3 0 5 0;
#X connect 4 0 6 0;
#X connect 5 0 4 1;
#X connect 7 0 8 0;
#X connect 9 0 11 0;
#X connect 10 0 9 0;
#X connect 10 0 16 0;
#X connect 11 0 1 0;
#X connect 12 0 13 0;
#X connect 13 0 10 0;
#X connect 14 0 12 0;
#X connect 15 0 14 0;
#X connect 16 0 17 0;
#X connect 17 0 7 1;
#X restore 423 454 pd pan;
#X obj 477 422 hsl 128 15 0 1 0 0 empty empty empty -2 -8 0 10 -262144
-1 -1 0 1;
#X obj 526 526 clip~ -1 1;
#X obj 526 490 hip~ 1;
#N canvas 358 60 772 415 pan 1;
#X obj 41 41 inlet~;
#X obj 273 77 sig~;
#X obj 420 -21 inlet;
#X obj 273 105 lop~ 1;
#X obj 46 293 *~;
#X obj 70 222 sqrt~;
#X obj 84 350 outlet~;
#X obj 138 294 *~;
#X obj 176 351 outlet~;
#N canvas 0 22 450 300 !- 0;
#X obj 92 21 inlet;
#X obj 124 240 outlet;
#X floatatom 92 57 5 0 0 0 - - -;
#X obj 124 204 - 1;
#X obj 92 106 trigger b f;
#X obj 82 158 f 1;
#X connect 0 0 2 0;
#X connect 2 0 4 0;
#X connect 3 0 1 0;
#X connect 4 0 5 0;
#X connect 4 1 3 1;
#X connect 5 0 3 0;
#X restore 420 155 pd !-;
#X floatatom 420 122 5 0 0 0 - - -;
#X floatatom 420 183 5 0 0 0 - - -;
#X floatatom 420 68 5 0 0 0 - - -;
#N canvas 0 22 450 300 !- 0;
#X obj 92 21 inlet;
#X obj 124 240 outlet;
#X floatatom 92 57 5 0 0 0 - - -;
#X obj 124 204 - 1;
#X obj 92 106 trigger b f;
#X obj 82 158 f 1;
#X connect 0 0 2 0;
#X connect 2 0 4 0;
#X connect 3 0 1 0;
#X connect 4 0 5 0;
#X connect 4 1 3 1;
#X connect 5 0 3 0;
#X restore 420 93 pd !-;
#X obj 420 40 line;
#X obj 420 12 pack f 200;
#X obj 336 78 sig~;
#X obj 336 106 lop~ 1;
#X connect 0 0 4 0;
#X connect 0 0 7 0;
#X connect 1 0 3 0;
#X connect 2 0 15 0;
#X connect 3 0 5 0;
#X connect 4 0 6 0;
#X connect 5 0 4 1;
#X connect 7 0 8 0;
#X connect 9 0 11 0;
#X connect 10 0 9 0;
#X connect 10 0 16 0;
#X connect 11 0 1 0;
#X connect 12 0 13 0;
#X connect 13 0 10 0;
#X connect 14 0 12 0;
#X connect 15 0 14 0;
#X connect 16 0 17 0;
#X connect 17 0 7 1;
#X restore 631 454 pd pan;
#X obj 685 422 hsl 128 15 0 1 0 0 empty empty empty -2 -8 0 10 -262144
-1 -1 6350 1;
#N canvas 358 60 772 415 pan 1;
#X obj 41 41 inlet~;
#X obj 273 77 sig~;
#X obj 420 -21 inlet;
#X obj 273 105 lop~ 1;
#X obj 46 293 *~;
#X obj 70 222 sqrt~;
#X obj 84 350 outlet~;
#X obj 138 294 *~;
#X obj 176 351 outlet~;
#N canvas 0 22 450 300 !- 0;
#X obj 92 21 inlet;
#X obj 124 240 outlet;
#X floatatom 92 57 5 0 0 0 - - -;
#X obj 124 204 - 1;
#X obj 92 106 trigger b f;
#X obj 82 158 f 1;
#X connect 0 0 2 0;
#X connect 2 0 4 0;
#X connect 3 0 1 0;
#X connect 4 0 5 0;
#X connect 4 1 3 1;
#X connect 5 0 3 0;
#X restore 420 155 pd !-;
#X floatatom 420 122 5 0 0 0 - - -;
#X floatatom 420 183 5 0 0 0 - - -;
#X floatatom 420 68 5 0 0 0 - - -;
#N canvas 0 22 450 300 !- 0;
#X obj 92 21 inlet;
#X obj 124 240 outlet;
#X floatatom 92 57 5 0 0 0 - - -;
#X obj 124 204 - 1;
#X obj 92 106 trigger b f;
#X obj 82 158 f 1;
#X connect 0 0 2 0;
#X connect 2 0 4 0;
#X connect 3 0 1 0;
#X connect 4 0 5 0;
#X connect 4 1 3 1;
#X connect 5 0 3 0;
#X restore 420 93 pd !-;
#X obj 420 40 line;
#X obj 420 12 pack f 200;
#X obj 336 78 sig~;
#X obj 336 106 lop~ 1;
#X connect 0 0 4 0;
#X connect 0 0 7 0;
#X connect 1 0 3 0;
#X connect 2 0 15 0;
#X connect 3 0 5 0;
#X connect 4 0 6 0;
#X connect 5 0 4 1;
#X connect 7 0 8 0;
#X connect 9 0 11 0;
#X connect 10 0 9 0;
#X connect 10 0 16 0;
#X connect 11 0 1 0;
#X connect 12 0 13 0;
#X connect 13 0 10 0;
#X connect 14 0 12 0;
#X connect 15 0 14 0;
#X connect 16 0 17 0;
#X connect 17 0 7 1;
#X restore 837 454 pd pan;
#X obj 891 422 hsl 128 15 0 1 0 0 empty empty empty -2 -8 0 10 -262144
-1 -1 12700 1;
#X obj 631 387 catch~ voice2;
#X obj 837 387 catch~ voice3;
#X obj 250 370 loadbang;
#X msg 250 398 0;
#X obj 568 297 loadbang;
#X msg 568 325 0.5;
#X obj 929 303 loadbang;
#X msg 929 331 1;
#X connect 1 0 0 0;
#X connect 2 0 1 0;
#X connect 4 0 13 0;
#X connect 5 0 4 0;
#X connect 6 0 13 2;
#X connect 7 0 8 0;
#X connect 8 0 6 0;
#X connect 9 0 13 1;
#X connect 10 0 9 0;
#X connect 11 0 6 0;
#X connect 12 0 13 3;
#X connect 13 0 51 0;
#X connect 14 0 13 4;
#X connect 15 0 12 0;
#X connect 16 0 14 0;
#X connect 17 0 13 5;
#X connect 18 0 13 7;
#X connect 19 0 13 6;
#X connect 20 0 13 8;
#X connect 21 0 13 9;
#X connect 22 0 17 0;
#X connect 23 0 19 0;
#X connect 24 0 18 0;
#X connect 25 0 20 0;
#X connect 26 0 21 0;
#X connect 27 0 52 0;
#X connect 28 0 52 2;
#X connect 29 0 30 0;
#X connect 30 0 28 0;
#X connect 31 0 52 1;
#X connect 32 0 52 3;
#X connect 33 0 52 4;
#X connect 34 0 52 5;
#X connect 35 0 52 7;
#X connect 36 0 52 6;
#X connect 37 0 52 8;
#X connect 38 0 52 9;
#X connect 39 0 54 0;
#X connect 40 0 54 2;
#X connect 41 0 42 0;
#X connect 42 0 40 0;
#X connect 43 0 54 1;
#X connect 44 0 54 3;
#X connect 45 0 54 4;
#X connect 46 0 54 5;
#X connect 47 0 54 7;
#X connect 48 0 54 6;
#X connect 49 0 54 8;
#X connect 50 0 54 9;
#X connect 52 0 56 0;
#X connect 54 0 53 0;
#X connect 55 0 77 0;
#X connect 57 0 27 0;
#X connect 58 0 31 0;
#X connect 59 0 28 0;
#X connect 60 0 32 0;
#X connect 61 0 33 0;
#X connect 62 0 34 0;
#X connect 63 0 36 0;
#X connect 64 0 35 0;
#X connect 65 0 37 0;
#X connect 66 0 38 0;
#X connect 67 0 39 0;
#X connect 68 0 43 0;
#X connect 69 0 40 0;
#X connect 70 0 44 0;
#X connect 71 0 45 0;
#X connect 72 0 46 0;
#X connect 73 0 48 0;
#X connect 74 0 47 0;
#X connect 75 0 49 0;
#X connect 76 0 50 0;
#X connect 77 0 2 0;
#X connect 77 1 80 0;
#X connect 78 0 77 1;
#X connect 79 0 0 1;
#X connect 80 0 79 0;
#X connect 81 0 2 0;
#X connect 81 1 80 0;
#X connect 82 0 81 1;
#X connect 83 0 2 0;
#X connect 83 1 80 0;
#X connect 84 0 83 1;
#X connect 85 0 81 0;
#X connect 86 0 83 0;
#X connect 87 0 88 0;
#X connect 88 0 78 0;
#X connect 89 0 90 0;
#X connect 90 0 82 0;
#X connect 91 0 92 0;
#X connect 92 0 84 0;
